<mxfile host="65bd71144e">
    <diagram id="PXIKyE6BdWlQ4LlmDC5w" name="Page-1">
        <mxGraphModel dx="2466" dy="907" grid="1" gridSize="10" guides="1" tooltips="1" connect="1" arrows="1" fold="1" page="1" pageScale="1" pageWidth="850" pageHeight="1100" math="0" shadow="0">
            <root>
                <mxCell id="0"/>
                <mxCell id="1" parent="0"/>
                <mxCell id="110" style="edgeStyle=none;html=1;exitX=1;exitY=0.5;exitDx=0;exitDy=0;exitPerimeter=0;fontSize=14;" edge="1" parent="1" source="2">
                    <mxGeometry relative="1" as="geometry">
                        <mxPoint x="90" y="362" as="targetPoint"/>
                    </mxGeometry>
                </mxCell>
                <mxCell id="113" style="edgeStyle=orthogonalEdgeStyle;html=1;exitX=0.74;exitY=1;exitDx=0;exitDy=0;exitPerimeter=0;fontSize=14;" edge="1" parent="1" source="2" target="11">
                    <mxGeometry relative="1" as="geometry">
                        <mxPoint x="90" y="515" as="targetPoint"/>
                        <Array as="points">
                            <mxPoint x="-73" y="370"/>
                            <mxPoint x="-50" y="370"/>
                            <mxPoint x="-50" y="515"/>
                        </Array>
                    </mxGeometry>
                </mxCell>
                <mxCell id="2" value="" style="outlineConnect=0;dashed=0;verticalLabelPosition=bottom;verticalAlign=top;align=center;html=1;shape=mxgraph.aws3.users;fillColor=#D2D3D3;gradientColor=none;" parent="1" vertex="1">
                    <mxGeometry x="-140" y="327" width="90" height="70" as="geometry"/>
                </mxCell>
                <mxCell id="3" value="Users" style="text;html=1;align=center;verticalAlign=middle;resizable=0;points=[];autosize=1;strokeColor=none;fillColor=none;" parent="1" vertex="1">
                    <mxGeometry x="-115" y="407" width="50" height="20" as="geometry"/>
                </mxCell>
                <mxCell id="115" style="edgeStyle=orthogonalEdgeStyle;html=1;fontSize=14;" edge="1" parent="1" source="5">
                    <mxGeometry relative="1" as="geometry">
                        <mxPoint x="-120.19999999999982" y="810.0588235294117" as="targetPoint"/>
                        <Array as="points">
                            <mxPoint x="-190" y="520"/>
                            <mxPoint x="-190" y="810"/>
                        </Array>
                    </mxGeometry>
                </mxCell>
                <mxCell id="126" style="edgeStyle=orthogonalEdgeStyle;html=1;fontSize=14;" edge="1" parent="1">
                    <mxGeometry relative="1" as="geometry">
                        <mxPoint x="-110" y="500" as="sourcePoint"/>
                        <mxPoint x="310" y="348" as="targetPoint"/>
                        <Array as="points">
                            <mxPoint x="-190" y="500"/>
                            <mxPoint x="-190" y="200"/>
                            <mxPoint x="310" y="200"/>
                        </Array>
                    </mxGeometry>
                </mxCell>
                <mxCell id="5" value="" style="shadow=0;dashed=0;html=1;strokeColor=none;fillColor=#4495D1;labelPosition=center;verticalLabelPosition=bottom;verticalAlign=top;align=center;outlineConnect=0;shape=mxgraph.veeam.portal_admin;" parent="1" vertex="1">
                    <mxGeometry x="-120.2" y="469" width="70.2" height="70" as="geometry"/>
                </mxCell>
                <mxCell id="6" value="Admin" style="text;html=1;align=center;verticalAlign=middle;resizable=0;points=[];autosize=1;strokeColor=none;fillColor=none;" parent="1" vertex="1">
                    <mxGeometry x="-115" y="540" width="50" height="20" as="geometry"/>
                </mxCell>
                <mxCell id="7" value="" style="swimlane;startSize=0;direction=south;" parent="1" vertex="1">
                    <mxGeometry x="48" y="140" width="1190" height="980" as="geometry"/>
                </mxCell>
                <mxCell id="8" value="" style="swimlane;startSize=0;fillColor=#E1D5E7;strokeColor=#000000;gradientColor=none;" parent="7" vertex="1">
                    <mxGeometry x="176" y="150" width="991.5" height="575" as="geometry"/>
                </mxCell>
                <mxCell id="26" value="" style="whiteSpace=wrap;html=1;aspect=fixed;strokeColor=#b85450;fillColor=#F8EEEC;" parent="8" vertex="1">
                    <mxGeometry x="550" y="29.25" width="420" height="420" as="geometry"/>
                </mxCell>
                <mxCell id="28" value="" style="whiteSpace=wrap;html=1;aspect=fixed;strokeColor=#6c8ebf;fillColor=#dae8fc;" parent="8" vertex="1">
                    <mxGeometry x="100" y="28.5" width="421.5" height="421.5" as="geometry"/>
                </mxCell>
                <mxCell id="92" style="edgeStyle=none;html=1;exitX=1;exitY=0.5;exitDx=0;exitDy=0;entryX=0.009;entryY=0.599;entryDx=0;entryDy=0;entryPerimeter=0;fontSize=14;dashed=1;" edge="1" parent="8" source="30" target="52">
                    <mxGeometry relative="1" as="geometry"/>
                </mxCell>
                <mxCell id="97" style="edgeStyle=orthogonalEdgeStyle;html=1;exitX=1;exitY=0.5;exitDx=0;exitDy=0;entryX=0.5;entryY=1;entryDx=0;entryDy=0;fontSize=14;" edge="1" parent="8" source="30" target="51">
                    <mxGeometry relative="1" as="geometry">
                        <Array as="points">
                            <mxPoint x="155" y="140"/>
                            <mxPoint x="228" y="140"/>
                            <mxPoint x="228" y="300"/>
                        </Array>
                    </mxGeometry>
                </mxCell>
                <mxCell id="30" value="" style="shape=image;verticalLabelPosition=bottom;labelBackgroundColor=#ffffff;verticalAlign=top;aspect=fixed;imageAspect=0;image=data:image/webp,UklGRog0AABXRUJQVlA4WAoAAAAYAAAAKwEAKwEAQUxQSJIiAAABoEZt2yOleWcLSwdpIliwodi7YO9gTYgNNfaSqNEQu0aDJUUTxa6xxRI0sffGAhobYAArIiBdOghSl93ZeX+g38zOfjvwMyImAEy+c+/R89ZuPBKmvhdTgoLmqe+Gh+1ctmZKv95WUFeXu3v1HT1+4YagHX/9cz3iv7jU1PScamEqUlPSUqNCwy+dOLZ11YoF44d1a96g7sQoLW0dnBv2nR90XP20DEVfGH0p+PsJ3Vyd7K0tlEzdB5r4Ltp961lSenbRx0pWfLqKkrzMlMS4c5u+HtoU6rS2nn3GzF2z+3JUFodGX/U24sKeNXNHdXNl6iBylaWls9+6k9EfkaplT/bO6OxoZWEmq1s4+y07FvEyo6BCTxd9eU5SbMSBuX1UdQf79n5zfr0QV4bULnpwcrX/oFaWko+RKWXOI7dF65D6RXfX9HWQKWSSDlpNClbHZZYj/fUlqVFXNo10lm5WrfvM2H6nCE1o+oWgiT3c5BKMAfDZFFaEYuYMKB5EzD03pyUDjNTqtOhgRGoJilmXn5WdEhN6+eq1q1evXrt29dq1a1cv3XubkZVVLiqu4NXtA5NdJJVT1/HBsVoUo760IOvdy5io0Js3jmzd8vOGxVPGfUk8dsaajVu27Dl9405E1LM373JKKw3GISJqQ1eN6OQsmRpMPFesQ04UOeHnDwTNHDvYCZQKhVwul8v4ymsrFAqr5oMnLwn6Kzzug6E+yXHaonMTG0ijLktPRxWgwSsT7oTsWDlzzIDenT0bOdqC4Rlbl2ae3QYMHzcr6NCVR1kGql0QeXppF6kjc+rgHxyPhmVLMt7Ehh5bN3mwpwUYpXOPcfO3nrv/Ijm73CCIGB/s38ZK0jhMuVBYxRqo4M7PM7o5WKnMlHKZccgUZiqVTbOhS/dF1RiGY6uLD/lImCaz/n5chAZNvvTHdwGD2jVSAgWtPbr6zlx5+FGhcLXf39zt7yxJVM7ey56iAavyU+Kubx7pBnRlOs0/EPEys1QrGCKqF3S3lyAt1sUV6gzAvj70dSdXK3MFQxkzK+vG/VbdzjEAp8t7MEspNVovPJGgR8GL7+39fnyvhkBrVavh034687RKIESs/n/neDcJIXfsGBSPQmtK0p8fn+4GtDfrveRyenYZJwwiqhe1b8BIBcc50R9qhOBqpZye49nARkk9mbmdm/cPYVrBqrND/a2kgd24bVEoIIeImKLeNbe/K5jM5qNWnoorEQax6v6P/axMHmPuPDlCg4LqK0tjdnzhCia2c+C5hLIaTgjEohNjnM1MnLznoaxyjh+HiLqIpV3cbJSmxqKBh+/OZEREjh9bnLDN07S1mR9SgIJyydc3feUOptms64I9j4qQP4eIaUcmuZoui9abElFIrkbz7PeeYMqdAs6+q2H5fPrBXCfGFDEA8lHnU7SCYPym/k0sTZrCvuVXJ8qFqX51uJMpArnn7CsVKKQm+sACTzD9Fv1/vPhOCMTC42NcTFC71W9RQI4teTytAUjELlsTq1gBEJ8HuJucoUcya4RgHyxr7yiTChbN+/2eLIgm+ZcOAIwJcfnqdCEKqHl+YHojkJTtV13KFAAxNXioDZhMuXLOaw0KWB632AakprLdzgKNAFh2a6TpaPljVA0K+PaP4S4gPVWe008XCoClD5Zbm4ievyYhfy5bvbIjSFOzocHPy/lwiPh6flNTYNZkF4cC5h7vZgaS1XnCgxoetWsyVtnL6cYAmA86mokC3lva1gIkrEv/rW/4IZu8z4tuALZj/q5C3tz78zMcQeK2XhP+gRdi2dZuMqrZ+N1E/lzRhiYqkLxWw0O0/PTsXncFrRgAG/875Tw4RP1/81qBFLbpvykZETkixMyDHWkFYPPVZUSODPX5t2eBVHbf+KISeVf+1kVOKRu/W8i/8LgPMFJJoQqI0/Bia/a7yenDANh8dbsMkePxPMhbBRLaYdy/JYgcEWLm/i70AbDxv4zIIXl1/LLGAIyEAhjxd5oW+db81lFBHRu/28g/YrALSG3GKzCRF1t50F1GGfMxN8v53ZhgDhLcY+1zPoiZe7vRRTnoFCJHxn18PJIB6c0ANFv6tJwPslvbMjRpfLQS+Vaf7GEH0lzmOkTNS1+xkyY9d2Ui37y9fUC6m026qeOBmLCkMS3kLX7lkG/OaU+Q8jLfaA0ffeZcS0oo1yXxqjnQ0lzSgdOwO3ywJvobAIYCLnOikW/OAW+Q+opJdzQ8EEP9bIGC/q9r+OSfbgnSXzEsWsen9NYQY2MAhp7WIDlXvdfTvA4ATiNu8cHyn5sbGcjbHy1Enh9P9oG6oWyiWoscAYf4Zp2jkXmuyUS+j3tAXVE57C3yTRhpZ1Ty2W9r+NwYaVdngEbLXiFyRNUxo4zJYtQV5FkdMYGBuqOs6ZpELZJyiMc7yYyn9fkKPvGDzaFO6RGYRoSIhYcdjabN5hQk5RBfLHOGOqbX3yWIHAk+n+xoHIx8fqKOCPWFQY2Bzio7t+Yt23Xz8enT3++LcXx9B/p4+/i0b9HKrYEdQx0GmBH/apC88vZY47DoGYI88497A52d2w+evSpoz7nwiP9iClFPzunynoeH37u3b23QHL8hjahTe1xcJRnibleFMTgfLuChv+2jooyslbf/N8t3Xbwe+iDuTWJ6/sePZVUooOZj6cePGQlJzx4/vBlyYOvyCT7NrajiEPCCT/xqc2BEZzf5PZJz/80CYGjB2Db26jlg+qaD12MStSjukre3/wz6Zkzvjh5O5pQA1cYUHhjdRwaiHxdRTsYVzQMGqGnfP/BoVKlWU6NjWU5cnJ7V1Wi0RS/PbZjQzoISCrff+BTs6i42udM2DUf2fn0roKOi1Yjvd58Je/G+Go1aV5Dw+Obxrd/0sacAwLCbZWRs7jIZIy7HOVHI83wToKC5c8veARv+TUZq1jw/NH9Q22b2cmNz+OoREYd4e5CluDpGI8/7M1U08Jq9/011ebWOo4ZeW1WWEbZtpIOxgc0vGSSI+OEfN1G1Dioh43KXOoKxW3h/s+N8VAZSuCI5/K9fprQxLmi3hwemznUR07fxNWTZx9uCUTM27l0m7k/C2hx9Pvn4J782DS0Z44HBzzVkmtCvxKNqcQJ5qrtZGJf54N2xxWU1n6A0V13y4d7qbnIjcpn0gkyv+VXFiMV5XQKPtyvNwIgtvb8NvpGOJrDmxcUtkz0ZYwGn4EIixP8m24nFO05PVv5HRzBapZ3r6D9zULTaao2muqL0A2FphUaj0dSw4kBE9un6vg2t5MYBw05ryEqvdxJJk2WFSKyJGw7G677genKpVjzZrxISX4SdOXTk04eP/h329u2bhJQK0XBVH+L+HGVtJGbT88kwe6q1OGY9ZcmeL3Y2FlmbqTujqtHweYn/37t84sAfmzcsnDFrztdfDPHp89m+A7+YPXvWrHnLfvk5+MyFW5Fv8z4aqHbO7S0T2yqMAbwOZpNpQwaKQebwNxJz7AEbME6lQ8+fktCgXE1laXF+QczJX5YE9PWwBUO36+U7/5eT157nF5SUa/SGQGSfBXk7KI3A2ucWmS5vAyMCpymPydgHM8BIu+2PLtAYRp98NXipf09PDzcXB2szucHMrWyd3DxaevacuvlsTJVhuMrCJ9u7GwGYb8zRkyBe7WtjuI4XishKfmhkFFZd55zJRUPm/3/rr5+/Hd3NXQXit2k3YsaP+/+5l1gmWO30Mwt62ogOvA9VkWXu9jCcfyESax63ByNU2g7ZnYeCs5qK0rf/LOznDMbdxP+Xu+kfq7R6oRCLD46wNxMbjEwmw5QBBusSXEUWPc3RGLx+i81hhSu6+6NfD09XG4WRmTk0bTtw9v646lqcIPq8uB2dRNd2XybZx+Xuhloaryfh8IC9THRMswn70xGRE6Q6UX14w/gWQE2b3vN+OfM4VYdCcoj4/nBAc5m4rAffJGMjAgxkfxqJa+IXgOgVzVfEoLCcXlMeubm3EmjbyD/4FdawHK9Pv1jrqRQVyLeUsSQct88wThMjSTjUbPIUFwMgG3UmvlogfLn1q87NrYG6csdWfWfvfY0CVyfdmmkHwIgH/M5XkyDe9bY2RNdzBSTIPesPIld1mH21GgXVvAs9tbgdiJSxsrX7pL0NI4baiu7fnXyYKwgiPgzsZQ0itp+ZS5a+o7UhxhcjcfLvjcXWeWs+Clv1YnMXczAwwzCMrDY08Rk8dEjt4QObmss+yTAMYxAAsBp5skArDJYe6ycm8IrSE+lTBgvHdArWEXCI13taiMviyxOZKOiH64EjmluAga2bDpjyzaqtB89evxL68ElkZOSTyMjIx6HXr948sXHLsi98fTwMBQ3afbnlqTBYvL+HpYgarosnwqoldoLBwlgk1es2gbibzLxehsjxK3y0Z6w9GNDCpVXXfr5Tl/x0XB2dWKhFITOzX189e3jjjKH9u7dxt1MKxAAAtFxw5kkBPw4xdbObiMy9Qsjw3+HCHdRyJBURX4lsaboGBdQXnxplC4xwjEPngJ/Pv/qgYXWsXs9xnCAcp9frWZb7+PJ68IIhLeTCfJIB6+EhWl6IyD5qIyKAtRo9CZe+gRHIyicCCTksXeouKseFD1HIzGNzezQAoc07TFi692podHJBDYq0pjjt2YNrf64L6GErEADY9lxwJJUfpnYQ1YgrlSSI510Far0plQQxpjOIutMTjh9b8GyrDwMADD/Gtln7wTN/v/1Gj8b4PmzPt37dPBwVggBAz5//z2f55HYSldPMTLJnXzoK00ddQpS6w01cvtnIv+h4T1tZLQFtBqy/mVFWo2U5Y+BYraamJOJn/8YCMYxt5z/z+WR3FBW0iSJ7f7izEAzMKEJi9TgbUdnNKOZVejOwsxkIKWs3dfPxsDelaOTlSQ/+2TSlk0oAAFB0WHIlz5gcNsQTad74CSFvtR3Jd7kqReW6sIiHJvWEvxUIaOXa5cufH1QhJcv++31CFzcrhh+AavTZD5zxWHQJIULdYiXDTznpDpEmZS6Iu+E3PLiUha4WjADKnuvuF1do9LRgNZX5zzd3VwkBqgnXdcYjU/5Khvs6y/nJdhYRlYT0F5kLmT733wA3AGAIGACQd523+8rrKqTt20t7ZrfnxQAM+0drPADT46uJYpco+DmHIXH6nEbGpL05GngrGjTy3Z6MlH6+ZXAzWxkRAIy6YFRdgwuI9CHWvOxHxpE99wRj0mxswc9x2vmU0hpaaYpST/hbU8VyVAYRRjTl1X5bJlHxcXvjWubCQ95uxp7/SlGURTnJUU8e37904tSpU8evRUU+jsooLjQcIuar9//ga0UPaHGPLGFmIz5+UeVE96bbGNdqdxJGZd93cyoaWFtVVlzwPi3x0emj2xYtmP/1wDbt2rfzHL7o23kL950JicnOyi4oKddwhkDEqsuDLejhsCOdqOCcD585OiTe66akh7Lr79HFNYbKijq7Y9mYNq1aNHF3dXRwsLdWmZubq6wdHR0c3Zo0ad556IRlh24l4qc5oTD/oh89rCeFEmmSx5DJnX9FYvZ7EL0hfE+noiFrsqMvHdm8KGBYVw8VGJCx9vAZM3f93nMRr4vQgJVbzKihbLKbCHULgSFR+V0gqno9nh4yqz9RcK6mojTtv6MLe9mAaFUdx68/l1pWVs0KhBe9zGkB8F0VR4K/N5aTWC2LI8o/1Isedn53BeE+8eb4woGeHi5WMvEwFg0ate45Y7e6VKj74x3oMe5xOdEFXxWJ5bEyopSvG9Kj6W9JgiC+j/xn64KBLmCUNj3Grz8VlibI/4sa0qNLcC7R67UWJM4RSBzXCejR5mqJAHqNLuXotOZg1FbD9sR/0LIcn7hAV3q4TE0iqgqxJ7D1e0l23ZUmlz8IUHJxsY+nk5lxMXYeveb+nYa8vqcItH5KhA9bEnj+mEGUvMmKIp4Xi/kUR58PGt0AqGg7aMXfzwq11LIKqSJK8LX5nM+pAqJLI83ppS2+MtUJKOo++1YhtaxXPCNKW97yc2OeVhD94aag1rujU71cGJpA86+jqWUx/hZRYUjfz835qCf6DhhK6SvO9AEAYGii7HybWspWe4mq347/FANrkJTNDwBjFIcubSVQ16aPmloMBBIhu+BTyia7iUruDKZX6jIpBTApS0uCPylktSx9LxGl/9yOWmzaShqFEcVSZuDND0SHvcxq2S6OInozoxG1dPSLo0yn4CyiG+MsaznuziKK7aaUVmqKNZ7/lihykW0tl1scUagDUIulUxhRLGVUvWOJ0rc3qNXwGZJWHrOil45+cZQB+4dEuqvOACDvm0SUsE5Vf6D6W0eCT5sBgNv8dKK7k83oxUou843viBK7A4BXUA7R6cFKeunopCaKpY1qYRTRO387gL7Hi4h2tJZLrDCiONqYjbtClBnYHGC0+iPRSgtZ/YGi259E+bu6A4x/Wkk0C4xUHKzkkrttIfpwYQjAwjKWQJ8zhmY6ycXAIqLyh18ArEfS0vABNGPppKYZwASWpDrxa4AgooLzvSVXGN2GP68i0GuWgPN2oqwDnesX+qtLCBBXgvcxondBnvULPleKiDbA6H+IXs50q1/ouCuDaF+redeJYsY6SrpY+rRYmUh0tMfacKKowbb1C25zXhEd67nxP6JQJ5B0cfRxHBdDdGPBkTiimyC91ESx9LH0fkx0b31YKtENpfQKo5us5T2i8NVqIt0RRT0D2Nwmuv/TvXSS/K0STE0URyHZTaLYQzE5JFlb5PUNSrJUdUk1SfbPCqrp6BRGFEshxRmitHAk5VI2yKnG0i+ORnsrSFLVZDGLJZiacvKf33OChU6RSbtYGm3KJMl4QHZ5HN10dAojiqPRliySokSyq1/SjZV8epbsWj0HT+5qvco1yunqVVhp9r7OEkujTRl1ljgarX4r3NV6iB/fmSodndREsTTa8l64a5Rj6RRGFEelLFOlo1+sablKOZZ+cbTTa8kujZV4sbTLfkp2b4acajo6qYniaLQ5kyT5FtnbNXRjJdnP70lS1WQZGyVYGOUUeyuQKK+CALO20E0nyc4gaVqEOtV0sFJMeZMoVX03haR8j0LaxVKIuUEUuT08jQRPS7w4CjncJQr9ISyV6EZ9g3n3R0Thq3dGEd2xkl5qolj62AyIJLobuCyUKKI5I7nCiOLo4zA2huhiwNpwoqghtvULbnNeER3rOeUSUcxYh/qFFisTiQ569T9B9HJmI5rp6KSmW8ddGUQ7nHsfI3r3k6fkCiOKpY/35UKi9WC1lSjneHeasfSLo8/gx2VEgQCriErDB9QvjE7VEegK5gOsIKqMG16/MJFDwurEaQDzC3UE+GFcfQIDi5C0LGw0wPinFSQ4qz5B7raFqPCID8DQSyVEQc4yeukkl6Lbn0TZQV4A3YLziQ73UNQfmI29TJTxbRMAj8AsoivjlPRi6aQmiqWNalE00bsv7QAaTEghejRfRS8dncKI4mhjsT2HKMETAKBbIlHWVoqxksv8AhI/cKrlGkeE56zrD+wfEpWe+oTz+Sqi+80kXCxlVL1iiN78ZF+rwaa3RC+G2kgrNcWaLU4iCp9mXct6egRR8lIPaRVGsV5/5RGdHWRRy2LoBaLs/d2opaNfHGV8n5QT7XJT1FI23UNU9nA4tVipNe2DnmgFMLUYWE3EFgTUDzAQiKRs8Qz47NwyPQHiChlTH6BsuYeoPGrM50Y9KSc62E4p1WKpYjn5LlHu/u6f67Y3hyg0wEJKqYniqGK7OYkoea7751xnJBOl/WYlpcKoZXVWSxTfS/k5pnMsEXetYX1Aq2gkDm0IhI73iDCuYz2Ay9QkooxtNiRWBwqJ0ua7Syg1rXoczCd6OM+CxGLuA6KicwPqfpPeVBOd6mNGYtbnJJH2/TQJFUYUS5MVSB5kKyORqVYTIa4Bpm6nbLyPrGIW8PQv0hMda2cmmdREcfSwDlATlUcO4zPobgnR0+9sJVMYnRwO5xNl/NGBT6s1qURl/zaq27WPRuIXw235WPaNIsKXvep0jlOzyO40AN4OV8iyAptLsVhq9D1eTJS33YKfbFMaUXnYKCkWR43ZqTVEdycp+ClGXiDitCvqbjLVr0jMbW0p4ydzDkLkPod4uIVZXc1m1A2y0mkg6MRcDkmjFtjV1Zx3ZxCVRngL0+NcPlHJOY+6WptIJE5c11IYt9mviDDB16xu5jQzk+xpXyth5C1vk5Xt7Fo3G3GlkoRj/7IDgZkDWo6kJnlB3WytRk+ifzKPEQomhxJxuNdRQRcdndS0MfcKQfKD3UFwl1VaEsRHAfZ0YekURpuG6+LJiuaYCwcjisiKzrase3lF6Yk+hvcGA3Y8V0CEySNlda2GC/OQ+PVCN0M4T4wk4bB6V7e61nh1DQmH5zyUhoAGp0kQde9/qGMxO5AjYbM3gIGXxutJOAxpbSZ11ESxRmc3OgKJ9ScHGKpLcDUJYsK6phTR0SmMKM7oOpzOJ8ufbmEo8C8mw4R+FGGlz5gCJC6/1wMM3ubQe7KqTa0kjpoo1qgYgAEheuRIXi1xNZx1n5tk7LPFSmkTRhRnVACW28v0SMhhSHMzwwGzGzkSDi+2M6eFTuLY+4YjsTZlGYjSX60jQUz/pQktWInT8WwRCYe67R3F4bwgj0yfNFp8qxp9rrVpiV3a8HMjz4vOfH4Vkr8bBCLt8aCaCCsP9hZbdaDt59zOFhHo6KQm+v8bq88N+kd0UyN0ZO+2NheL/az/yTD7V1uRac8snDwpoPa4H56WE7B0CiNKO/mtf0DtiZO3RbPiYpqc0CL5+R4WYgGznTzw/6H24uJyE15++nniR5Z2aqKqnDfPX9Z+8TLtIyeuJvPjkViXuwJEPD6smqz4ire4UFtd9dlqliPQ0SmMSK+trvpsDYviGvNKQ1a5u4eY3BbnkGFpkIe4hDYBwhuKAfA5juRczHClmKB9aBUZPl1sIVXUFACw3VPMI3mbC4i6wVf3ETkSvNXb3PhYOoXRwGXW/8jzdEeVuBirH4tYJC465GOYht+KQUelflQY+18lmTZhHoi+34liMtRucpcbwuUbMbA0svZWG5+y7R7kmbu5vfisxibwwJcrVYZoMLtYDDnr6CNzvSoCDos6G8RpTx4P9l5PMELnbWk88LG/vQEYv/ci0EfOog8wh0SA+H9bQzRdlIY8H81RASM+ledhPh8jfA0AbR6zhqv8ozOFYHmKznBJv7kLx8CsFA0P/Sow0kkPqsm48mP9ABih7Cb8Z7invjIaddrBGu5UW3OhGIBRl/RIXnakt7G4zntFxCHmHmwDgjOqeU8ySiqFY0uybyxyBBozff9N/FDKCVdZnHTrSxBe5X26CMn1EQMsjAWcDheS1E4L9BAMwMp7151YjVDajNDtg4DSqibf34jIE0wTdyWojcwAPn/lI8+Y723BaGWd/kLkiHRJiy2EA8uO/YZNnDZFyKlTJo3p394WgKESMM36Dvxi2tQpgk6bONzHUwECMwCNNxdyPDSbnMGYx7zQICmHeH+ik3CSm2m94jkiR1R8qRcAY0QuU5KJakcNNqsrNAtMQ76RvVVg3O6/pCByRJXqSbI6gbzZ2gQOOQIO8dEsazD2DsFlyPfWCMe6gPvSl4gckuqzF1uB8Q+9VcpHFzVMIf0Uw2I45Jm2pg1Q0NrvAR/U3JmkkHqKSXeqkGfFybZyCjAAy+NreCDeGeoo6eTuw24j34rLXwAwxgcA1vMzWD6aqBEyycYANFsaU8mn4uEooGbTlUl8UHdrkplUA6bZupcc8n00zZ4eYL+vXM8DUT3ERaq1CkxAvpqEVXKgqNxrK8urInq2EwAjtRiAxivSOF7p8+wZmgB025vJBzFqmQdIb5XP5ueIHI/o7xsBZWXuByv1fDAxsI3UYqD3X4XIV/duBdBX0fG3Gl66tIP9JBaMOp3P8ape1ZhCAF32Z/DgEHOP+dpLqaazLhUhcjwy97UFKsvd99foiWqXR/ir5FJJ6bQwhUW+uur97go6gbzLb5W8uI+PV7pLIQYA2u5J1SDvd6u8FEDtjgczeXCI+HLTABvpA9Bw7N485B+9ojFQXOG+l9UTfVIbMtxK+tjOuo/8NenfA91l3bZW8MMP4WtaSx2fPf9X8OAQ8c3cRpQDaLszQc8L8c22/i4Shmky9ngx8q94vMoeqM8w32XW8MOaBxOcpUuT+a9QwPKH0+QM/QDc50UjIscDy5/vHGomPRgAMJ96Il7Dh0OsuDTKHkyj5TehpShg4enpniqpAWDfYX6EFvmzaSe/ANPpd6tcANQU7PRSSA1L37PVOhQwe01bMKE2Q35+g8jxQcy8vLG7tBiwPbwIhXy8uI3chDAAzdclVKOQuXv7trKWCnYdxoSUoZDFkbOsABjTUdtxZIwg+qqk/X0kAjP6dIFez4tD1FzqbQ2m127U8UIBEDHz2voRDUxfw/HBEfkopD5mYy8VmOROh59XCoFYfn6GZwO5KTN38fpWjcKWRQQ6g4mWOU2+LQyrybwz3cGUea2LyqvhBNEfGWDHmCoAhzG74xGR44OIFZG75w90MU1OI9aGxOtRUPbRyl7mAIzJAnBd/bSARWGTQma3cTA3MTIb5zYzLmtQWG3uvTlg6pUWfXbnCsNpyjOjfupgYlSjdkdmVOoF4BDx7eaeKpMHIOu+7PYHIT755tSG8e0sTIVj39m/3chAgbnk03PbgQRkAGSD/k3V6IVBxJiNfi3srRW0U1o7tJ96PBWF1lXGbusIAIzpAwDG0m2uugYROUEq8zJuB01oSLvGAYejsoo1gnCImLt7hIsKJKTLV7/+V4qC696E7pgzpqsLrVx6TF6xLywfhU8+v7yHEiSmavL1bC0rUO2qx8FTW1lamysYmjBKCxurVlMOvkED6nTvtvYA6cnYdZ4akm8Arjw36WnICl83oGrLyZvPRiflVwvE1UrZPqi5hQQBAOsBG65lCvbJqmcX/wicPLBTY3PjUzXr5TstcM/dJC0asvxVyLKOIF1lfXenlLGccJ/Muhk8v7e9ylyllMsY8TEyhVJlYW7fa/FfTz6gYfX6/HtLmoOktfEYsCICDaz9kPU29uHfGxeO8HQFI3TrNnbR9gsPY5LyyvUGyj45vYermbQBAPeAfXfT9Yb4NPsu6uyOzYsnjOjTvX1Ld0dLmWHMbRzcW3T0GTx64qItf16OzkHDf3x9bsMAC5DG3jtSqpAz0GfZF9dP7Fg9Z5x3SxuZUqGQC6hQKBmH7gPGzlm56/LjVA7FyOmxKHyhB0hm69aDl/ybLg6sKs5NT3wV8/jenZs3j23bsnkLz80/7z1z88bdR5ExrxIzCst0KEr2ycE5vd2U0gkA7IZvOPfsvUYE5Pr891l8M99XoMhLE5/+Na+7OUhuxvXLw2904kJEjkNEjkPk8JMcipsrjVjX144BSe7Y2W/xvli9uIw77+7Wqd4trUC6KzsvCYlIKKihX3nGi9vbJ7cEac/IFdZNZ55L1tGuIvKP4Q0sFDKJ98lGPmMW/n7hdRWtMh6eDJo1rIMt1CGb+K4NeZSQVlhNFbY8Nzk+dNu8PrZQt2QUKkv7Vr7LQ97qaVIctX9u74Y2FmayOsanbVr2Hb/gp8M3ItO1xlYSH35254oZo7u7K6Buq/Qat2j71aeJKVn5JeUaTly66rLCnIx3CQ9O/fT1IDeoC8vMrGwdXJp19w/cdeFhkkZcBYlhR4IWfunp5GxvbaFg6kKft/PoNuSLr5esXL/v6NEb98Lux6ampaZmFOlJ9NnJqalpqZGh4XcvHj24Y33g/Gmjfbwa20FdvlWPngvWrw46pA5Xqx8ksiTap7fU6gj19h9WBwb09HIGCQhWUDggDhEAAJBbAJ0BKiwBLAE+bTKSRawjIZc7VTzABsSyN2XEnLFwh5+nG7EPf5B+AGIA/VX+O5AF6V6xxKv4QfqTEf+Xrfx34gXHUzn5XtV4985/jPyP/unvwWp+5/jHny+q/af+n/d/7j7yf2q/QD4XfqT/O/n/9AH6YfrV/c+yr/RvQB/PP7J+0vvA/8D9K/cb6AH9m/0//09o31Jv3a9gD9hvVt/4/7vfBJ+6H7v/Ax+zn/9/43uAf+L1AOoP7Af2b8O+4z+Bfw/Fh2TAEHWbZJokfkusL/W9dr+f+oH0Xv3K9hP9Y0UROnkL52f8ln1giZ9ep4w8PQc8O1CVLy3n/6b0RsNMwQ1QGP1IHiFoqxHc3r25xLRMuMxROAzcrWo1twM7IWdnrk3RClVqZqWFdZJKdT2Khui4t41WBm0nuMrSry47uptsrzyu2wMhSmEsWwy7Du5zm2bS34ScMdMcaaqUlSdfchZGVoU7v3pRkEpo4eyN4sVU7cMN3ji0N2QxEUs4AehhFeeG9F/H1hA9eUqn9K7lGjPJykFT5O52nC3wAqae5hjoB33lh8BSfhssTNBc275OzJ2cwXZa33P5iNAiLG5Usi6NIgBth6RHtJJQfK6ve0B98F17m4YSOyyIYIkBm88Kie9/1FQRtPjfiXCvNzYK4OVJMhYY96n9ALLRJnCjPPX9UhXRf7GrWFg7rNWpovQDxl8/hXw182bwNpqE5NLvSBu8IVXiujORk62kwKsusFvIaCANY/bFkmkd6vwz6ZAozz1/UKgqo2+ucgS4hBw/ymvoIP6bbD2fKrnkrQVYwDzFlL2CQVquewNWPbWnVmZNWkxdqrxv4DyFR0PNRBuRbqTFFonMDo95PHg9scIEqcZWXZdTD94Dcxp4JfHiO2AcurccOM2ZgPTjfBR1+Eg+dwMORvCkgchsjDawL1upzgkPQQQ65IkcBcYGTQfOs8bbP5TQZiQFMgAA2f7j63VTQJe/gAD83ngTQujd4GmquVtuCPQvL3LSDD9kDSIA9HPBVs4CkhDuBftZeKRD6q4XeJRUkY55vvw0FjWIFBCLhP2RTeODLjA5SLWIK18mAvsHwMKXA+jUg4V0gb6l79u73gixzu4m9dvidSooelE+G5M41Auug3G7Oa3d2MbiiEwA8AwB2CWoWAE/R+yICap62vpgLR6wdcSPG/7fV5iYkw0MX0VJMMzLAkZ8BaV+o18lKWn4WlrU4C+iDOoxVrGsuvj3TBzNwVX3uGhSXyF/1i9+KEZECqNfFzPC3cF6x7ltIyIlF5Emc3f7WqlyhLmJlYWczGmvreRQbVXxMfUAOjzlm+gQyZ/47FU3YCVTeJMmuzzHOm/AjwfN0gbsQPsprnORNQPYvSqXDR6V/JtTRIhBlXspCWupKI77N0mlzR29zBLoc/ewAQsUi7e7/6uRoUXalJsuCjbl+1CfImCx+lst/BPOeIEwHI8uxWr80XjFS1hSSewVrWAEHWqpi4c68m/w430Eo3hZRUcXnqnJjiWv7P8BGCMmBqH805a50Et1QrFCYyTI04faPixaojUzh1QnkNfzrC9z/BMKhWYr4qFVV/h+/MOMsHyZ5ACImXpIGhprpoh7LD0cenYLwAI2JKcoT3IoJ9u4OHYKvE0dEf9qQnJEy7DF9Z7t7qlsVs7Oqy3k8f6/EPQ0bwKoZ4C6tfBT9LacNc9kmK5evFpS4kIDieWGID7af/Mp+ELZRtsGyglV0Kye9eAV3QGNpaAARa7YRa0DBivAk4qwfxhu1v97vFeOfTGNzdANgZomN8dD0IZ2PXtBZk/TafloMNom5yUsIXMrnXowcfFNnQLffXlO7mjbjdQ6PIvwfSc5//EunnEptlBp4skdGPYXQKSRhOdeh5qmWL0JYVIUwsPM6Rr8KsMtraydCQMWlhar2Mxd5YC1nQC5nwyrgMK5b//7QncydfEoCGyQ5nguCEX3dcKElKQWMBrdrrAAqnYRp++RLXa7XEz6pF2zPZ/vVvQ+CNWSQMAdPkWG/jKF5XTtLxjwtCTpFl1Tt8VjK04TagZAU2sZhwqKDLDEIeEQ62HKHwBIYWmAeQU0bRQEJKJVVFkvhZ+snVYciC4UO5dsKWlU7AQ9Wxj2qUeiApoln01g4XecdIMT3MsZO/500WQGKTtuYjhWqFKhSluFnK5h8fxCuuBJVqPE2sXohVZim0p7CcxDcETgq7l5eKkhKMKSIZrq1FnCRcG4AUjiKxARj8lcDw0oJx8pnQ54qJkGBN4PcM2/3aKXVrd4m9ItLXIuJXLnbKRHwjjeD7FLyhw/p+NlTGLQ5p2YazuyGDrXwF30XBtdfv6GNtutO0BGgXrpR00qOvlhPmbNovOWgsjDAws9H1RPCCIkhOis1rQZ0USPwEaA2m5MQ6Sge6PNXv6wtgRxfTdA+xdEM++AcgpnF0eS4GTL/zZVQaa1CCPKuteY0O/o5vP0nrnm47FmeTh0wG809JqHFrRWcBVZljG6XUBDiye2d5T//N+40VV5FTeM2xMf4aUNfGKuqtVFRPupXHds3FO2CE/AHhjsR4pqyHF01WdCFo2rprLl44GVGBnbnIC/WaiMgDWYKBHxbWUNYHV2jwzfuDzVasT+EPvwneeJ1u64RKeQ9JRw1Txet7nc5xSDPRjLqI9aPViTTpYhZ0oZi815J5w6FB/8pDpaHKNY/QLA2Ofu/MpLRzCym0bfp4NmqVlmszjcWgs0jJIoro42OI+oY3ETmjUaB0OwT+E9A0HqPSNUKUnRSuds9idT1UhxnwBEni/5K5G9wrC/hF0h3x9KJtNx5ptSsqDoMeeK4DUQEi5S4M9z3cOte/AapGapg6GwZFMY+qgzDdB9xiOojqiDvxkYaER5NrRErepYPfpsT8HtlH/pgOb6UkhYYFzn+ApPX6w8fWsnX1mF5EgAksSUYaYNANeJzicZOE+a614fsFsG4wxHNsLpIVXRvknpcxYC2//9q8c7z4xCJ8bD4ykaRaek0gW3vPjNzKUy4Tzy9XMNEckJinxxIN70ir+75nlx6a+MiqrJpNPwLvW9zQBQGwaIPk8jlLBhfQLcCI7/hjOf+o2rKZN11r9gq6WhzKs8OfeeBxwwBkkt2VqHaO8272frtDhSvXXXjhsukvPRiDM0fBwsqb5Na2gSiWCcwHfy0trDEfhcAmWy3SM7PTS2wChHw8o2xpN8RrVrDnyl7kgeFirziLkTZIdUThL5ZVwpfHytZ9mWFgRFVtCjoVd2I9vN38lUezD/JXPI0tnISvRFelqeYdPvg6fqBSP0qHtbpBnaE48EBbSmHOzJzlxyFquaCAF5l5lxe37JdAOP1vQxDRJ3iBzXgnRFayGNKLPBt77kySQaibnWHsjp6XQkkswoyJNXfkXMO7w+ep+Buu78yof6mnYMQqbhHKH9IFWvUVYXoTE231Op1g1N5BS9zHLrPNlpiCQekbLncgRBXHl1jhaYxRYRBd2//QOvv6BcMXKULnBRjtQW8JgXyyTw021foZ1bM/ObBP6L7ZgS7ifvfCi+g+CduD+X0+e7W/H+X0+e7FXeUahEpPgyc/rBRhQQGf//7Qc/YRPRrwHJLQlDcbjdGRAuC6lx7TdAkAODU4deKRYdKQz6azNqV0vl4QkaLe7te7xEMxEGnyXQHu0Ocy+H3tvg3f8mOfyh261wXrm+4jK2Ckr3HzdkPUfiWkO/OvB/KARPXSTrZgqi+VYU4iQZVo7XQQLHQtMOGQL4yJDcg8DUs1vD1uHkAKpjr2VtFuKZ5DzkcQLNMvC0nssAqornUW09UusTVGC2C/7eg4OGyTsgF1JB++MBDMMKHBbV70nGx1ViJkQcHBuhOy0jGWHrGOwyLDEQF++uaJmImwYnt6oPHr7E/MF0ozEDvmuat07k10nU6ClEQJIk5zAxc4B9ZGLu38C7NCX6azVQwhKwsDP4/auMSkJNJkjz55Ec47258qh6wUSv7KcD9k5xlsc9Gu/kFd0BdOUtrmQ28Gd4lpVkhzG2CByaiYSDYmJbizDaQH0UoPenEe8n05fC/zOfPsH1+55rvO4H1NdgblhGblkfJDHeVJ4au0RCgHGGqJDbBD5KBSMDaPGsTDyTndfyqWmiTUunKBjZGQZlb7577xI90chGOSMlL7YqsL8nPeoAuYQqdT1jHIAXxxucH/qv3UQxJx4C3PMYETweD3tpfUPDuEnclU/gDFblf6r1ut4Fe0FkPZi/cFX/pYGwI1KEKRb5d6UCQxOCjL7c1YWvARdlrFxrr5u7VgtLwKdgyDxEfH6FO4wvXUKgH5RbMPw5oW9/aOPPtelqHprNkrFzA525vuG0sba042u+jGWQZ/ZKV3cJvupbrD2YO5m4NOT+GqYrH9H79ctkB4fGX9EXFpCxo3mfRA68ZI9DlPEHUpV8g20QU9CG8ZA6X9o9goc/LCQbnNjksHvTTOvswnXkmEXFb4//bLmPGZ24jboinmSyUwQ8gz8EbKUm76adbrxelo9rVcT0rmagAW33uLYzIaH/vniDkWLJi32KwCMV2wEOUDQ+Bs22NnB3zkUmum1wwmy5F4+SM6S96NsP3RJKXV/GyyxyQSJriNR8WZzs+5cDd+905XKh/WD7efK7tY2+la5usO/b91TrJr2byqKhG0xi0uTrByDZe/LW95gam46886sHQmbVHqxJ1URQTq3r2kn/FfXAEMU77Cv+HLlBc0XKBeE4us2G6IS/uyAOon5aglgFIw1/FzGM7je8bqCSXlFqFNMSkqzRU7b8PvA1ONZJPi8vIHs/+K45Tspjo4jG+i9R67l9GrhbQ+ueYXE081iKGK8GnDnUsKP0tHy+iHM8CVp4LsGcBpuRRtnGR4fLhLaStwAQ8SC75sQeGNKsRxmLM1b2CitDaQ16UUejKABQj0sum49OTO1uMA6smZz0ui58pwuS+vnuacm7/DcIT9y1TUyOGn0nwDyCCQHeE/bE/9DSaZtZYDxWUiG7QuVXLdve/haOgz+TJxanAKrrZPAtYAt3QsTsyxqohFMVuP6h4ACO3wsCLtYOvQang2Cc3Q8Z093d8GpYF/n1VnDyy7upH84zMczkHOsk7fRb21vww81Orsmz2MlWylWgKLfa//3CtlExSRxrB9gFchcLwSIAAEFkC//+1hq6Y05Z1jeiZD6dSu1fUp3LpyxEekGRPtSxBXCE6XBNQvCzcTtW7y9RWQc7i8GMJtX/lksB1iVqgBsJp51792Tr9s9P66B52jDaa5PDWTkWeYqkAB1CrV1jnfIRwXKvzzOrRE6EzvK9b1kxWIVyITkL5VYA2wk1aNpHmOaOdOZ8f4nrHDak9pRquyo/ojPncEvQXLtnZuqzK5Lm3szzHAwZkaJGiAIpHVHCibFy6bNjnW6b4w33oM9MyqjbpLWtxHgcFsPqhZHg4BAnQb5qkfPK0vNTZeaIKEJ11hH+hc5UaUvvWALkVqjDBnHSVRlotJZ/upuL/RHBz4cwI/tnEedPv5rxjvithYRuPumdd0RwMJb07Jwlxcyo/K5AbQDaIE5Qzm5tIlB2rC1ohlYin8VZ7x+9vLaRVbBR4FR0G92eW+RMFkKDdzNIIaYac+xdgZlfVRCKYrcgkuhQbbAABLAMN+dMcnFbbBRoG067WaxMSRploOgiIz87+T6S1Eb+KDReKoAPMV1C/GeyhOUKlXdY+/XmruA+dDCNFdQHwx7xEB+hYU7sIS1Zq0G5aGQk/DnbJyWiQrDB0+jcIyUsMouKdlXIBBIQR/bq/k5bieaT2XmRuhDu8YoEAK1Y19CiEOn3cczxtz/9rNQUiTGIhTBxa3SuqQAAAABFWElGugAAAEV4aWYAAElJKgAIAAAABgASAQMAAQAAAAEAAAAaAQUAAQAAAFYAAAAbAQUAAQAAAF4AAAAoAQMAAQAAAAIAAAATAgMAAQAAAAEAAABphwQAAQAAAGYAAAAAAAAASAAAAAEAAABIAAAAAQAAAAYAAJAHAAQAAAAwMjEwAZEHAAQAAAABAgMAAKAHAAQAAAAwMTAwAaADAAEAAAD//wAAAqAEAAEAAAAsAQAAA6AEAAEAAAAsAQAAAAAAAA==;" parent="8" vertex="1">
                    <mxGeometry x="45" y="70" width="110" height="110" as="geometry"/>
                </mxCell>
                <mxCell id="31" value="IGW" style="text;html=1;align=center;verticalAlign=middle;resizable=0;points=[];autosize=1;strokeColor=none;fillColor=none;" parent="8" vertex="1">
                    <mxGeometry x="80" y="180" width="40" height="20" as="geometry"/>
                </mxCell>
                <mxCell id="32" value="" style="shape=image;verticalLabelPosition=bottom;labelBackgroundColor=#ffffff;verticalAlign=top;aspect=fixed;imageAspect=0;image=data:image/webp,UklGRr44AABXRUJQVlA4WAoAAAAYAAAAKwEAKwEAQUxQSHQlAAAB/yckSPD/eGtEpO7hDdv/R0r7/3vOFpbeQQU7imIvWLCgxl4Tey+xvaNGRWOPiqhJ7D2aWKJEMLHEXkGwRzTYCyICAjaKUpZdli2v5w3g9ZqdmR3eNyP6PwFg833a9Z+6dNW+q7HXEvOR10+xV+Kubp2/ZHSndk5QWVf6B3XsP3TGivDNf/x1Lv7Gw7S0tx9K+ClOS01PS4iJO3nowLpFC6YP7dGqjkfliVM7unr6VOk4Lfxg7P0iFHzuvZNb5g5rVdXb3dlBzVV+oEbvmdsvPnr99n1eoc4sPFNx/qfM1OSHxyLGda8JlVrXwA4DpizZfiohi6Do9a/iT+xYMqVfq6pcJUSpcXT06bMs8l4hSmrRvzsnNPdycrBTVC58+sw/EP80I6fYIi0W7YfXD+J3T+mgqTy4N+4z+ecTD4tQsvNuRi4e3LWeo+zjFGqFT9/190wo+XlXlnT0VKgUsg7qjdgS+zBTi9JvyU9LOB3R10e+OdXvMGHT5Ty0oW9PhA8P9lPKMA4gJOJqHgqZWFE4iPjx2OQADji51Wzmnvi0fBSyKTvrfWpizKkzZ8+cOXP27JmzZ8+eOXntVUZWllZQJOfZpd0jfWWVd8uhWx4YUYiWgpysN08TE2IunN+3bs3aFbNGD/qGeuCEJavWrNkRff5yfMKjl28+FOisRhARjTGLejXzkU0ew499NiERxIe447vDJw7s5g1qlUqpVCoVrMqyKpXKqU63kbPD/4h7+MVa5RJizDs23EMetZgTnZCDVtclXY7avHDigNB2zQOrebmC9TlX31qBrUJ7DpoU/vvp21lWKptzN3pOC7mj8G4yeMsLtK45P+Plg5gDy0Z2C3QAUfoED5q27tj1JynvtVZBxBdbBjdwkjWeo0/k6s1Wyrm8dkIrTyeNnVqpEIdCZafRuNTqPmdXQql1iLnk8+8hMqbGpMN38tCqKSc3fj+qa6NqapBA59ote09cuPd2Ln9l313YPthHlmh82s+/j1bUZ6c+PLe6rx9IK9ds2u74p5kFRt4QMXZ6a3cZUnfZw1yTFczPfx/XrKqTvYqTGDsn5+qdFl36YAVi+nRzklpu1J9xKMmCvH++tnPu0LZVQKo19XqOXXnkvp4nRCz5b+tQPxmh9Goa/gL5NuS/fXxwvB9IvV272afevi8i/CBi7MzGHpxc8Jp870spH6RMavTkQA8XteQp7N382s+7auSt5H3MYCd54DZofQLySBARU2O3TelcFWxmnX4L/3yYzw+i/vqPnZxsHmfvMzLegLxadAWJm7+uCja2edixpKJSwgdi3qEBPnY2Ttnm9ywtYSOIaIqf08LPRW1rHDxq996agohI2Myfk9YH2rYG06JykFeSci5iiD/YZruW03fczkN2gojp+0ZUtV0O9SOSkU9Sani0oQ3Ycu9RR9+UmlnKvznFm7NFHICy3/FUIy/4IqJzDUebpnIPGHJIy0/Js73NbBEoA789XYx8Gu7tnh4Itt+h84//vOEDMffgAF8b1GjxK+SRmPPvjPUAmdhiXbLezAPi41H+Nqf7vsxSPsw35zf2UsgFhzqdNqTwYkj5qQkAZ0N8h0TnIo+Gx7vHVwNZ2XjRyUweENO2dHcBm6lUT35uQB61D2e5gNxUN9qaY+ABiy72tR0BPyaUIo+vNvb0BfmpCRwfncsDFtz8wdlGtPn5NbKT97ELm4I8teu+5bGWhSDi82k1bYFdjW0Eefx4sJUdyFafYTdLGcqWZixyV0obB2DfdX8m8nhtTkMHkLG+nde9ZENzyq4gaQNwHXBYj8zk3fEJXiBz6y+J+8KEWLSulULSXPpcQHaSt6KGBmSvU88oI5vFvNNfJVUcgMvgy1oGgmi5MbUeyGGXzhEpiEioEDP3NJUqAJchpxAJHVqyL00Cuey/6okOmXW/tFBKlEufi8ieezAEOLmk0ox6aGAyl/7qp5QeDsBlyKUiRMLwOLy9BmS056C/8xEJFWLmry2kB8Bl8ClEgvQlL+ZXB+BkFECvw+lGZC39palKclz6XEL2+G6+ILe5oLBkJrNuj79CYuwHXNCynR9mDzK89tLHLIiZO1tJi7rrn4iEjhTe6cuB/OYAas25r2VB87qGnJRU369D1pLIYDeQ54qqX8UyWYq3SkmbbZnI+mlnB5DvdiMumBgQk2ZXlwpl3Z8Jsn6IDgQ5r+h9z8BiyZziKBHqZa+ZSncH2Ms68O5xmQVL7/0PgJMA38n3kPXD7vbA6NFp7NwfpvWpZwfAySNQjbhsYECM6eMKEjj4eSlLdnQA0Ct8v4nKRCy+uriVCmSzqsc9E0vBxa/ExgF0jzYgPSnZGWhPp/SOSMk1IpLCT8eHK2UTePe6yILatXVEBsrG+3ORsTCyAzBW+fYRVlh8cVot2QSK4bFGJBQE8eUyL5EFLslE1jvBwBp8TVsRkszl7iq5BOoer5A1qa+bqJTfviplOd/XjalXNtKaU/a3BQBOFkG1+c8QCVVJYj8xOfQ7jYwl8cM4YFVNMlMhFu3rXxVksqLmkmQj0hLEg80U4ql/vJjlRTd7YPZfYmBAvD6umkwCqB2WToWIuXu9RNNgdSrSEsQn832AvToPxQ/XNpNLEHQ4H5HQ4OORXuLglNOSTVRoyQ2vDjz6L2ZDTNvczlkWccD1+tuA9LpLA8Xh0CYKGbMPtgehYP7V7rKo7KCHOjrE7VVVYvDZm8NguRSiEQ4WxM/0kkmeo56wvFhsD5zg3Ea+Q3pyYxIAJxSCiI9nNrOXRaBZlcqA9zooQPCD4rV0JG8qcMArP2XNuduD5ZHK7xeWnG2thab0Xm8gdO+W1wOe+UN8f2S0uxwC6HGhiM78cb6CE5bX5ARkPF4DhIfGuIk+SjnkOeQ2FUG81NVRWE3vIeP1iRoxoDH5Fy85BC4/ZdAg4pe//ARVPzyfjnyc4wWiQHy5IUQhg6DRDgZMm+IrpO9elNK9P9gQxIKFe0O9ZRB0e2ygM8QMEY6m7iFkjG3lIB5L8bWh7gCc3PEd8YTOYvhZwwnFZ1kSw6uFdiAUS14pE2LJjQVBIH+9t+RSId4Y6SaU9g8tdNqNTUEwhvv3P5QyIaasbqKSPdAj2kBXcK6ZQGrMz0Vqw8OeIBxt1KQxr3mwZB7rI3/sxmfT4fsxzsKYdN9M93iWj4CK9nV0nXi5lIUgFvwzpgaFytXT20uEvs4SB0F73tMZo7oIQeF5GKmJebcLCCkyFKDH9WxCV9by5Ls6qgo8uwwZPVKE4/rXdFZzUuYccpHO9GkFJwDv0XfozDcngLC6Amgab3uPSBhQl7m5kbq8ppGPM9NEmJ7ycFEtSQP7VR8sNIhnOrpYr+mJPLr8edWEB9By5Y0SZM/8ta2ynLa3LCjS5Ihakgbtf9fTZW6vbb3BuUhtuNMYxADuw24iYULLitrltL5SIBb8OMJd0qBvCh2mhlqtxRY93b2xXuLgvDr9huzmy0NFV3ikq7Q13JVJV/iDv7XmvLDQENztrhAFBwBtdj0rJQyWop9EZ3w3Vdqcu12gM8ePspJ7NFKXvpgO1mc5VE65dj/nWhgQD4sOcbG0gXJNkZmGkF3W8R5+l4agISJQcJE0XMQntr8lYLnEQZ/jJTSIV9o7W6PlsRwaJI86g3i4wCkXiwgDwR0SsFLq3Cd+pHu7ub41hn5G6pQN1cWjqL3sCzIbH30nfyAowUJlSe3GH9dsi4mCIJ5r4yC8Q+VpeuzLQnbTukYyqMqyF1Son+3GG8x4gLQWUwQIkiWyDOc7LFqL7LknOivKCY7TyRj7oCg6/Lsnf3uMhKY4fohoPOckWJDHI0EOUF6sVsYALDVYaMjbFRxPTiHxSEmwYI6/KDoDBG9/oEckLFmbQtRQvv+UVRvXCXdVdFapjel1WkeDeLwqT/Uj0mgQE5uDGP7o6tRuZyGyFz/cGAAV21WpWae2cD1H3NfaGO+JmXSPvvHip0NsPlXaZj9R7B0QetVsYTPemuKmouAUSiFD11tFNgYaJNC929ucDw4m5CF17CAXMehj/rpahOwf9w/2BfF2ulFoazxXvKAyvOzDh7LeJqTfVlUtBnNmEbIbP+xuD2IOvVlkaxxaRFGhaZaaY1OPuExlSJ0CQmVAs4WHt7MCFPJKof6ZDnc1V7IptuZR5Ud1FgmPxstTaoG4bRDA+BclVA9mq9h8riL128nVpMH8LvYbELtNarklh8oS5czk3vch3eNAkACCmLkj2EmOOfbLoML4mkyN12dSfT7oLgVourO0uQLkGNS9Rpc0sRpLnwQt1bXxLlJguj3ZByTQNnlufkuVcyyEZbIJqXf6qaUgsqu3Qq45j4ihMqQMoFP6/IzU5rkgYH4IIib/2kUJwMk0dY3tVGiaARyNps8JKv3zoWJD1L/52Qck0jYBfK8nNLihupLGaf5Dquzf24qLIJbEfeuvkneD7mipTvTW0DgeKKJKHVdFXIjvIod7gWTaqhZbPlI9X+pA4xOP1A+bgci+7AgGCbVVvmNeU+mj3Clc+zylO1dVUDV/ZHsys5lG/kH9+1R4K4Ai8McMqpQIJ0G5zjQy5N+Y6Q2SarOcovRUSb1dKgr5M4fqZF97QcGgYrr82K8UUClwXvCIKv2HgIoG3C+m2uinElan55YKCGLalg7uUDlwGHqRKjeqY0WTCy1U3wMnrDo/vakA9XdXNQfJtVnqejupSl4NLY+DJUhrzh4FArdv+BeS8m6M9YRKAwdhVGieXp66xnaq/MvdhMbZB88//jz7U8K+xT2rQOUBYESWkQZXqhRlHHufpHq7tpHQAMCp74ING75r5woAXCWiy4UvVHuD7Mq4zkqgejmhmgg4pVqtVik5kGQb1mxLFtX5QY5lvLZnUT1opRaBtNuw6tNeUd2d6VrG9yKhivGE/xdo2j2gervJo0yVR0irO+D0fwNwv0VlOuMDAMqOr6mSlmkqJb79lu/evXP5CB9haQ6baPB+LQDwm/aW6spIu0qIsva3pwoRsShush8nJPtVb6iSWwNAUPgHquhu6kqI8y9JBgsiEn1qhEZImhkJVG8GuwF0PJhHtbm+svLh1PMeVvxkWR0B2Q06TZUZVgegf2wh1UIHReWj2fo8Csye56UUjKrVb1TZ21oDDL2vo5oEslMK+l4ppDGlrHYQjNJvDdWXE18BzCgyU1g+DBCFqsH4RavCl07p6CZTRjzS0yA+W1xXKBzMpNLe+hpgOdIWxIWKQdV85StExMyDfR0UsmTUMwaSM99NKQyAYWaakuRxAOFUOcfbicCu7l5dSRmj9upMbzmE5ldrnIXS87GewmKYDT6bqLJ2NxdB7YhMrNBwN7yVHBn5lAXx5cIAgXSOzadAXAjtD1C9CQ8UQZcMpC3a1cBZfoziwZK70FkpiJDTeVQroP9fVE8n+olgWBEVybnUVw3AyR20vFzjJoim2zKodtWbeo4qcaCX8FxnGqkQyblv63AgexBfza8rhLoLk6n2By+No0ro5iq86ksMDIgv5wfIIXPOYgel9fwmP6M60GbVDaoYbxC+Pw/G5N1dZRCSZ6u9rOc1KJHq/PR9D6kugBgWMxHE7MODq8ofxJR5dazm2P4O1bXlV9OozquloKzh6TgnhfwxZS/TcFZSBFyjilscS2Xap5IK1D9fU0c+jOQN8WlEFSuByyWq6yuvvaXJXicdiJlrQ13kD6aH1bKS4gLVg98TP9BkrVFKCOLRXiqZMMoapg/L1dZR06XF5pfQvF+rkpQvF2bVkj2IT8L9rKI6QpUeh7QkdYVSUpA8XNrYXvZg5tzqVtlZTJMWS5c4S2LQkn2wgfwoNbAY361UW0G59h3hLWa0QmIQ358aag/AyYqDOwkD4uMVNawQkUmTcZPu1CDpQbw8vI4KZMXoJrEFLPh+bjX+1mTR5CXTnflGivD10gB5MRLanmUyZqyyE4TFTHdWfMbkjzxg0tZuGnmh7n/UxID45MfaQmAkZ8SnO3n0UT4LQfz8Vz8vEXVmWCGKEQxjAKDL1SIW/BjmoxDaWfFpDw3pcsmMSGjKfnn0nUo87a8XUi0VxZAnbG7tTzGZ0iI0Nqfojw6qPr+nIjv5b0VTAODK1Aju0FHIzWY91lHtaxrSUegdWixPNjCBcsDxEgbEp0vr8vNOyiK7ADTd+NTMhFj0U0t7DsoOWL93/z4B7zr30UiVuGvvPqHv3X35nZENoFOcjgWz53kqeYjIkLSuACr/KTd4MOujO9mXs/DZ58IvAv5cZCJU+s9fRJj3xcyHe4d/mMyvVzvxsPgVf2ckAqDKmKN5TIj5R76yLxORjSImKEpzAS/ADThZzID4dE4tth/fSB+oWkQVGVkI4rbmZVZkWkQkUn0+P6AIiTOwmFJHsq15x99Z6QDHBsvesSCa/5tiqwp4AvfOx1gQf3RQMGXZAoCAhefeWxiIZYvMAOj3zxeW6BCNcM5ICthNvWNiQDwsOzxHvGG5NtHJGhYj3cmBkuK+S2dhOmir8vnrFVvIcnaggzXe36e7NkEpERyAY4eVz5HVUrjWVhXwZd/1TwNh2Rtkx7I6kyblIt2rJVIBoAk9iOylcaNlRstLJcj8o1rBsvYdTVosXcYqyfAOu/yFj4V+8qLXmRxkLb0zEFhVO4uR6lMxBWatkYrARY8IMpO3h1tC2YgcFDERh7mQF8dO0RZkNd2a7M92BGnT42PTJMjvQCGyG99tqKcpZ3m6CS0CNlsIFRKzRfhEl89Lqys6ZH4YZg/M6gtUabFXUmm0O1Ti6wjQ9+wHZCSIprsz66uh3MCeA78eJODuS1/oqaK/GjBI6AN7rksx8ND7ZC6ymh7P8AF27jzV3U1x6TQYLb793asOOoM85p6d5gHlciD4ZnEFVD+AGPs91jM5hRwhyGr6N6wqAMfkeYUqZt7VNKrz4vttwrQk5FEb2RXEG3qziGqlKEY+ZQuOKULmR2Ea4NG+9W2quMVbE6guO4mt9MnNRyYenoV3dLJpoxhGA/Q5/hlZjQ9nVAHg2FxC71JdCZsfQxVfhxMZmhGRsOQ/XlQdgJMPw6Dt38hs/jfMF4ADds+BiVT/jFoaR5XwlavYCLKXXP3GB0QtPV/XiclnezLXHvj1m/yM6kCb0SepEgd6io3Hj7/18AJ5cXhnPrIaE2dUA+B4qbswmWpPUOdDVE8nVpOY0me7gkHs0pP/BVnNd+d5Ad9Nt2VQbfZpd4DqzcpAifnv+2ogOyxmpidz7IH39qdyqZaD0zqqDwdbS0r+iYnVQX7QE8TS/2b4AXB8dbtTRBUGsIiqIC5UQoy5f3XRAHCyBtFyd54HWLF/monClDMNYAGV7mFPCXm/pokzSKHUPZ3tCNYcTpCyJHkswLRcEwV+GSQNBLHkWlgjkEZpK7030x+A442DmUhbdLU/wND7xTQ4SRqQ5F+drAT5QxLmu4I1lX5rqHL3hQB0P5lPFe6jkIS8fd3sOflDnn7vzFlF1eo3qvfhQQCttmRT7Q1WSUHy5g5qkEypIoilCbOqA3DWsBt4iirjuxoAtcOyqE4PUouv5NWy+gCczEHE+/OcgQOrambeo3rzjRuAx7BUqtvTNEKr+SPb1cF1VCChEkXQ8nSWKwdWdtj0gSopEACgVTJV1jrBOc8wM3z4e4gDSKoUjOQDjXe/9wfgrGR/Aqlvepep+pAKjzkLDQYU0mUdbgwSKwWjePlvniNY3/0WVcGf5fgc11NdryW41le0NI8X19XIIfOTmR5gfU3bRKqXK93LeES8onrS3UVovuNuVPTlypxaILmSZPx3jh8AZ7Vas15TxY11LuM8Pp4qZU5toYHdyncGYrGYS/VHezuBLHowzx6E2PaPT1RHuzqUceh+gur9r60EB/XHbrr4IPHY0kGNPECWjHlZQmd6PMMLBNn7Xy3VNj9VGXXNHVRFt3oKD+yaDZ0xo68/AAAnRwbfLaYy/ju3GgAnhLFfLFQLgCvDwWIqc84oEUi7FIRGfaZ6GKYBQXIQhrTmzxOgwilFFgrEBQqukuEzIRdJBeZHM3xBmOqAHVTahAEV9ftXS7WnkVoMSjkDASdLsXzDzbAqAJwgHEdeofr4a+uKWu38QBUzykEELn4unIxx6nO2gttTNCBU19WvqVKm+FdUdUIKVfovToLiAJxD10Sf+WfD+E6ucoVz77bi2K3b109s+LoqACcQp6NGqhdt1RVxzR9QkbNVBAWc84DDhYiou3VgTA07eQIAzj2nTpvUqzYIuN49pI6pApRe16jwYVNhuXY+jxZEtBjNSZvryhaFnb29vZ2SE47vmNdUGetdaJx251KlT/MXVIMDOVghSfm9t0amCD94TzbVrakONA5TblLlHQsVVPdPSFt6YkB1rlIw4mUJ1Z8d7GjsOkRSGd+NFdSoYiqif/K/KgCc/FuA9OGuChqFZjEV4hLghOMxu5QKkTxc01YJck9dfRdd8SRgHJxnoTrQyE441ZcaGBA/7eqokXvOo2KptHd7sHS9kk91/3tX4fgvZiN5l8fKPc+92VQZG5uw1FuSRlX0dzUREUR97KwG8q7xPaR+0tOVxbFjAhU+bSuict8uD3KQcV5jsuguewCz52m6rLA6IivNjgxRy7eOBz9TfdrkwKaISKfSXu0nMsTcv8b6ybZv00qproxQsan6nqAixgWiQ/x3urc8U2h+RmqyLkDBpvAJRyQVIe6tayc6w6OtzWWZS7/zdAVjgdfhHwnSJkx3Ex3iu51dPWSYz/YMqoL49vwEH8umyj9WWwJQf7Gft/xqcBepk5cF8OP37TMqTOptJwH4JTGsGgAnq7wnZtLd7+jEjzLgEl3R1pZSgPhwWTsHkFW9TutoiPkPN+CZ220kNKUp08VACBvm7+sor5YaLDSWf6dyfMHIGCqCO71Ugit9lMEDZp+a6CKf7IOikH5Pa+Ddd5GRBvH2KHfBFR/ffeYDC0E03pwaoJJLVZa9oMubbM8f9MqjyzsaILiig6F+fxYxlC3NWFvbTiYFJVioCuPagRWbHsuhwpS+CuF1gAY/PmNDS+rBHg4AnPypMuMTUj+f4WcNn+F3aQiWbGsluMiuANUWxeYzIZYeGeTGgfwZGltKQ/BYbbU1wCOaBtH0bp4owPGrIzwQjOnvJn+4zUhozO9XgJXnvLDQEIyqbycGcAr9KZMJsTj2Gxe549Y/HqktkaHWarGlhAYxaVlNgR0qB8D359QSFoK4P0QUnW7YkCbR2XTZ4x2sBYM/02FSJ4FFVqDUjEq2MCCaXs4WRcj1QtsxIAeptdeCweoNfn9Hp4+oJ6xDFQB4DIp8Z2EguKscl2adunUVbvDcpzrbwAGERlmQ0DybXdV6zh0u0JkfzVILKpIC4PskMwPin+XUXrAnKpL9UGRkZOShyMhDkYyH9l3ONtoGAMdNRRakJBhVx856wG1HQkPwn0b2QjpEoQg6QggDwe3ltDz9rqRIuIU6M7ER7r3jkNqYOh8EOTjWRIP49qcaQoqsyGdEVCayWrKWlNPmWgmKV8qaHs2jIWja1FQYPtM/0Vle9xeBssr4q8huODOonNZXCuSI/TQ90r/pCgINvllChbo97QR0qLyGPz008aD7zl3OjIk30b1ZV0co7pP+o8P3P7sKJ7KMptevyQTZH0UEggSESxVX45AR6Y8HOwgF7LYy4H/d3YXTBcCjy1kTImEpeBZmD1KwXKpqTHuB1KaPC0DAQ6+W0H0+3V44HcBp+pMCZCSIBf9848NJACE/SNWAZwY63fZgIfnN+kCHBeG1hfJbnyYL7iOPr3f2dISKxVT6cpwUcQAhB5GeJPZUCwkax+jp8P4sB2FoDyxYl4s8poc3AFoxZe8NkSIA1x2fGVLW+4KgPYZcRyQ0eLGdvSBMb16+M/NwbUw9lUTc6+EoSb6T/kPG6KYaYXFOP+aZkTrv9xBBIEFEwvLp3CgnAI6m7Q2jOCzZF6a7giQPvKGjMyZNBcF3OvSZDo0R/koh8Jn7VzNgbXn2o0mv05er0+v0ZXU6vV6n1+t1Or1er9Pp9Tp9uTqdTq/X6fV6vTYpuidIsrrhDmT8uLqx8JwGJjHg04Ua4RHE9LVNHZlcWnTp0V2EX3Vo7C5N3js+MZivtQER+qxPZ8A7g90Fh9obKxoCMwfysubMdGS8PVkDnPA0gXtZCuN7Cy9mtD3IWw4mpRoYLItApCNultAR7YFOAJyQsnf38wRZywH0O2lB+qJ97cRSdeozKoL4cU8DYLeCIXl7KyUAJ2dA0z46D+kt8aEOYgHvvbk0ZdPDagvHkDTXTwVyN+SPbGRMnOsKolU0+wORUJlez3IQBEEsPjOiFshbDqD66lzCYIjwATEPeGJAWoJ4fbi3ENCcceRrkL1c/QWPEQnV55NtATgR+Y5OoSqb0M1OCBnrmgIne2qFpSPr3XYaELf/T6mIhEoXO0JhvethjVUgd5W1liYRJBQE8fYkZxB7ky1FyHqxlxfdEiaSd2OcOwAnd/znPEUkSGt5P8sJxN/9YgGLKaGHiqbGUibtnx09Qf6qeiQSZExf0gAk0LnPTRY0XB6hotBMJUgqIIjkxU8hGpC/qhGX9chYHNlQKQEcwA8vShkQL3f3qgh6f0Laknvh1UH+Kv17XELW4lNfA3DiAwDnaRlmFkNCL0VFzY/n0Vwc6ayUOxxArTmJOpbiW/1AMmsufM2Cposj7Crw6He5osy933iC/OVqLXtKkPX2WHfpAPddWgsDYuxXvuUBzHrwqUirK/iQvjEI5HC9sCRkNSQtUoKEKoPWmZmK733rDcCVcW67eP+5+L3ftvC25+QOB1B9QTphejvVnZMSgFY7M1kQE+bXhgrrdew/pIMPyGFNyOrHiITh3txqILEK/z06CwsmhzWoQDZz0O6PXGQ1vVkA0qtq+kspkyl9TyeZBf2iswlTyaLqEgTQ4tcMBoL48UBvdzlVc9LJPETCkLmrIUiy0v/XUgtVWW38YI1SLqm9Z6SakdVU8qu/SppA2eIXHRMpvLPQXw5xANBwR5oBmd8sClKBZDfdk8lAEPFpRKiL/AGoMnDnJ2S/t6A6SLjKf6fZQlWuMaqnk/xxnXQd2Q1v54K0K1qtK2bDL3FL6sudkB3/FTMQRHw5pZrEATTcmmRhQny5vrOvjOFqDDz4GdmL7yxyB8nnuO8zS9mw9OYwH/lSY9oz5FF7a6ySkz4A/6n3EJEwoPbx1u528oMDAPsxh14YWAhi8cl+7mAbHf8XU4A85kaPD9TIDQD3JtPijchuTo/8Gmxnn4taHtCQszVIJTccex8tMSGP75c0BBvq8tXal4iEBTHz1KrW8iJ0U1we8nlnVgOlDeEA6ixLKkE+P+7sWM9ZLrg1GRBVhHx+vjvJCYCzHWW9+ibyYtG//rWDTOD6R+dYLEwE0XCynTPYXrd+B3N5QMTMs8t7edi+KkO3xGcjn5bEVW01YJOb7X2s4wNRe3xCoIfSltn7Bn0Xi/wWxYf5gI1WeI+8xI/ZkHl5vKctC1qW8KmU8GLZF+rG2SoAzwHbXyAiYUHE4rvbp3XxtU3evZZGvbAgr+bbC9vaA3A2C6Dq4vs5ZuT3ddS3DTztbYzCxafBhFMG5Nf48dpksPVqhw7bP/JDDNrMhJVNbIym3/a7GToLDwQRX61uo7F5AIrW8y994aPcl3+uGNrIwVZ4dfz2l/MZyDNJiZ7SCGQgB6Do+neawcIPIiau6lPX3VkldWpnz8ZjDqYh3ybdg/VNAYCzfQDAOfpNiS1FRMKL7lPGpfBhVaSu+qi9CVmfDbwQRPy4vZevBmSk75CfbxQg76aXMZsnD2jpK1W+wSMX7LqajfynHP8hWA0yUzPy3Hujmaey+jtbxtRzdLZXcVLCqR1cnOqN3vMSrWgyvVkXDPKTc2s+JirbCkT78fX9qAW9/UBSA0auPnrvdXYJT6RM6qaudRxkCAA4h644m8lbufpH/2wMG9mlWXV78Wlqte09NmzHlddGtKb2WdT8piBfFR23pxaZCX/lZl3YMq2du8Zeo1YqOOFxCpVa42Dv3nbWH/9+QetaLNnXZtcBWetSO3RBPFrZ+CXr1YNbh1fN6BVYFUTo12rgzE0nbiW+/qS1WOl95PjgqnbyBgD8R+268tZijfLNbxKObl49a1ivDq0bB/h7OSqsY+/i6V+3aUi3/sNnrvnt1L0PaP3C58dWhDqAPG6/OVWPxEoVmp+cO7R58eRB7QNcFGqVSsmjSqXmPFuHDpy8cNupO2kEhUgsmBc3ozbIZuf63Wb//VYYqP/88W3ys8Q71y5fuHBg/ZrVaxhXr9155ML5K7fvJj5LzsgtMqEgzf/umdzOTy2fAMCt54pjj94ZBEBvyX6XxZr5rhgFXpB8/4+pre1BdnNVv9n70iQsRCQEEQlBJFguQWGTgvhlHd04kOVezfvM2vXAIixxf7qybkz7ACeQ7+rms6Pik3JKpU+b8eTSppEBIO85pcq55sRjKSapK767saeHg0oh88qtFjJgxoYTz/VSlXErMnxSjyauUIms0Xtp1O2k9NwSSTFrP6a8iFk/tYMrVC45lcbRvV7vH6JeWaTkc8KvU9pVcXGwU1QyyncJ6Dh0+sq95+++NYot/0Xc0a0LJvRv7a+Cyq06aNDMTWfuJ6dmZedrDURYppKi3A8Zb5Ju/rlyXFc/qAwr7JxcPX1rtR4ctu3ErdcGYeUkX90XPuObQG8fd2cHFVcZqtitdquvvh43e+HyXfv3n7929fqDtPS0tIw8C43lfUpaWnra3Zi4K//s37N5edi0sf1Dgqq7QWW+XnCb6csXh/8eGxcbezPZTGO8fzE2Nj5207zFYaPaBPmADARWUDggYhIAAPBhAJ0BKiwBLAE+bTCSRawjIZfqFSTABsSyN2yIF/zYdsLpFcQMQ8/kX4Aeb1ADEAMEzfFit/R/2/t0u7eC/J3+1+/fZ/7Z+Lee5UL7AfF39H+s/4j3hf8f+M+yX7jPcA/SL9WP792Yv636AP2A/cT3iP95+mfuZ/bj8gPkA/qH+m//HtSf9/2Ff3L9gD+bf5v//+zh/wf3U///yO/uN+5n/r+Rn9lP/3/ufcA/73qAf8X//+wB6i/X3/SfhT8R/Kz8b+BHvTxANJrZGwM9bxkeiJ+M+X/xCn1LXX+e/wCfx/ps/uH7AH6upExu6Dr52f8lqCSKWoJb79tkeUQZK44Ay9L/9N6TlGQ+XLNtEQiFqH1U9LvbO69ueXMvJRNN2Gld9q8Cqpg53giy2hc5d81GZpnN1wKpHfu9Rop3pDUJ5RP5+ea9OOwjXzW0XONmeD+1N9wKpfjoQ7lVZsP/nIDNs2nCErX/j+jw1+tY5XHH1MKwl1i88IXuVeo0RoYmowNnHAFYXoYNN1TNAmkUywXyfReyuhO1E/K0SKSpW+zd2oEwHN4UsFBO/KGn7MDQWChENjaxbDOD9roa7Hr05BSM+f/h/tix+RumaU1T6YoZcSTgVq22G8KFdBrtCWoI6k/iPBXIFiD5bHqW4XOmG4iQiwk9EDLjTEVH50xGGPyjbOF8c4LVEoUR5cKl2EP36UPkB1jR4frM5593xeMpel4mXLfMx9mXnc/Pq+7fIuj6NvJv/w/3TaUuhl3JqKdO5N+FFXk4PV8xH15WH5kO9GDNFYhSfZZhrNa8Q+2uVChyn8vuNr11MwNRm87PJDWekJe0nEYtv6KXUyY3Ol8wNGaN6w9qm+UtlD+iZnDdn8cS2obPNyE5TcekYUK1jR5WYp0iqJIHHOt4PGRxJVCbIvUuWUMQsCgPY/fUu2n+EQqmPwM9Q3hgnCqwb6eIch8QtOW3eO/+JAFUZEMPabCuHZfGSpcwB02fV5x6iCCbz0uE9VHbPsyjTHKp9Rl726eG4IcUzhf9f+DJiUWePtMe3O6wPtz8k1v3AAD83nhSrBgvfBdS8DPpHtfwgjwNaZ76Z+RlhATQZXLYtJBk+MlyBC5yBLBwCJHxeyRJYIfXLxX6c6SZRYN35JRha81z4SzAYaZ5x6p+rnvHAxVEp0DnOI1B52kGy5DIn3yq5FyTPxOpXMOyIlyBM7SkQGtph+DhGFOaLSJBeFFRMArHoIO2CZaw2Mp/F8JuOzONiqQZ52OpHaM8BWE4hzu3yA2rmX7aO48iMeCfoLPUag363BpbFyxjuyXMNZyrcUHZWt1oSJQCHRyEtChxEyLuQB7YHA5gbitmBjiB5MdqViRX7ifSqa0drp4MVs8IbPyCwhj8Zuqkq6NRgCng9IyEsbfN/jr/c4HTfEQUq1p5juje89kFYA0VO/0pSgT+sJmXqjFlgx9e26X44eJn3do3sFYpzE7bnWxpZFzTy13wxvY6VmjG+iOStsxrWjP/1gWgsS5gUtglqe1Ag3l54xdtWR2It5RAj7f9gusaTCk+GGFPFGC++IRTQARbl1Fr1RJbbuckL9Pl/dRVGFlaXkx90gjaKkwsTOEZq5AwqrEnXFCZ0Ag+oREB741Af5SAsB8b0TyAFIsm+Q71JSsSwQuHi34M4eu04qFkqgDvUgMK5X0Tk+/HhlMMoZowWYV7Q6IJYIu/6p1kypWnwR5j1CyT/NX6Kz1Q+Vqr5jvTtxumv+U8e5f3VBAT9Py0LnHPCXlUgLLHR0ZU+FVdXZAAXPf7Rhducm2ocy+zXTtpxspBZX4oPGAAAAlGBSVZll1jbHKsTdq6h/OsCKUPiwLxJrzX1NW7nuCb2SLiTwFCgsVnz03trJ07iOwdGBFzKJh9hjKfeLoroBbNt22zSkS3EgKHs5osW9+/iWyVghLer721wZMjqZkrMhCktG5yPucUGoTB1zTKRXddpNPyvYs0+ZSDlya9KemrwZD1vJ+lJnA8Bwb1QoWD7mf9ny6YEPFM7QRWTHbvp/6ouWs1ZJUTDkedm3Dp2yICRYSY1vs2X4C1vu2FOMOoAAUg84i9GzuflJzlxWbdF2LXXSDZ949EXvawQAhR5iXFsGHS20Egt+QYdbpCk4AOFqImQtchtQFVb9aJMt0qSfSNzuVCHJU8gAHVst/Tn8ICNpienveFObS2/vlWsgFWctD0tspR9cKWWAI5++csUHSEZJjO9DNeASg3g6d9Oph60W8vb5gD2nvu7vp7erB2Wfhjmeolrtm4bvDvkTFBOopGsuepy5uF8djCGIVJve/X61tK3BVTTslLIJyOS4Rk/meP+yrmmxMcwYRCiQO/WtM0QY5dlX693dYEmlm2bJj4EfOPfD6RV4Wcxi7HzPVH8QXirMxcMVTEsZ45HdiXDYUA9VNgmqhaxq6xPef9c6XKzg7Xztik3zQJF+kD3ktKRwzzoesw2ZhUNbfE89Xkozy0j37H1OCefAPR+zhL5+ROT6A09CXUvC4yPV38NKJGAO0KT1gUf7aHWcgjwDq6eQKQY+L3CX7scLjoZXpDYlVt07XyZ8gXs2FQuuXu0FdIUqMxRg/upwbG9n0CQ/zaUH1erz+m+BiIlXS4nK7rSY+rgkTYaJ/LTICZPr9xqtIJl+LCcQj8A+r0alcePXVKMefSAZ0d7OzlRTrRufjgXF10Usu5evVhFNWRpJz78sAA4iDckM3uW2G/Ql4DhL0vGCt0Edh2adermRgX1w0+kExicS8tfcglVFjcdy+3fhw68UQpr6nzqr4cApdSc8u1tnrZb8YE0ZV1BVTfkaAJom23N8nDz0tBYIlFB4az12HsN/MFsgC4gwZlDA1HQvCvdwbD8rP3TVO06y9hEzRrwM3bVwFOg0K+C947bMqb7cxAZJcuPJLE9g6/a5RYMkAGNqAAn4FeUKPgtWOBf5b6kPqiGyHTnwlAd4zh1bExcsLrSZ3D7nY8Wx1yWuIA/ZQ5+Lv2dfFJssAaxLfCVj//2fl/TbAErv0lXm6kQAsnmw2JgBdqIf4p2F95aCHNvy1nIkLGycamA3l8tASq+vcm/vf1N7HNWZt3IRFGmFTiRdT+jV/cJpsqMWVOFriD0qKFIubHHIyiI/Cc8T2xPeVVW2Kb8txn/w698XtNQTg64G73D0JvTaGj7/qEGEtWQFA1j8zg7YB2RsxDQzkytkkRljblpOnphk+jFyEmpQJ1eaAiEQBpsg0WJdBzrkyMrboxUhXJcirJj55EL9N+JaSL9lMHQ0AeYLrC1U88vLDFgf5m0PcSib9xFZ4SikVyJeIDhmsKKa88sALIkvhh+xnptCZgYU1NkXbskpjVZIXOqqO1wjizGrcc8An6w59Y9KBvEvuQ4VvPz1o3ukurgPECjBKAAakf8XCtXJzAtGncOjnzBZGG1dlpEKu3AlOAhVrPUIewcSIrm3cyW4jcu9jIgzDfw9qrosklIU/2T5bGT13ptn3blzuig32EH7CbOaQk8FMBfAVKgX/k+yXXnhxU/UdqV/PLh1zAyXcnZHMBwfQ/CsfEo1uhMU0W1Nos8HcB5xJ54sT7azc6nQs8M2B3YIZFCe0IcBA2YEAKO6f6/0X3c7yzmSbA9Of9naPTUAguIK3Pj6mCf+WzKZbUNLaaqsyHkTmMF8u42V4illBGSJH4sIbsTo6SgnQVYQteXQmq3SIDUZf5cHIUneFOGSHQQsEy3CKCbiBUNtim36fMH1HA2p/4l7iwcOTiarkjb8K8UYuTdNuZi2l++sDP/AAJTdk/E8ZiVyh6jHuVb1NXCkecA1ZYqKLtXYMgCPpWvl6AcA7XgoxGn6Lb8QT9YdH+I1jIugWInufHVkLV9eS4yW5L7tSD7ijzIFsQQYINXhN6vnJKFMyt6F3+9qpQRTYrA290YSNx7m7kQsvpJ7NwxWZjcMuUUWKCfh530Yk0eOhk+0mSYAZ3zkQqxZYC/e9gZQanR4q5wZ2YiqA+tJXcMiI8W3BpKN2bCaXeb/j3ggclTrNkLSHa7fpadvGJSJNrxoWuYhgoYY9fb72WcP5r4AIk3YfVmPF2o14BfnixUbvvvAfChCrW4anplrIjGy69u5LbKMO/GzqeLktBPkQDrrQRr0M8gBLqmtHNVKmN1WGmwYAmh6Z0TDgW4BaNJ06eBRhbO+jN0JLB/fGtGKy3ftG5lCbhBiPelWJNL/ITD3y83Czcztg69Jebr21bGe9mqHBt8JFiNR+eAKcwQ+bWyhZ29DP2ymNF3Ufg95LWaLYhQpMClxyqGr12xi9XY7LMN5ZHHicbRdi/MugyB+hTCgy2cv/7+9mkuiJAqRgzZr4LdEFSF15AgWZv/BVs+lbsZpUtjJ8YmbVxmii1x/cV0s5iMopaeEGGFcuOeYPGZQWeHfcwBDaCbPLq3K21Ptm8WRoT8o//E8yB7+QzubmW0MJvJ1Sun/rkABGH8raWFbElhV5jADNSTenlnhTN4CrZNEn4aN/lI6UOgl8TQsTQQ/g7d64V4CVn2yzxCk21tK+LkMkkU+63nO43PMHfzt8mejYGih0u22ewKYeTwQJaVm3RTAyC4fhd78MdAB7jSgDwEnOpOyuiQTqPYggECrz+622HX7ApihD+z/k6hCM6ECAVnab+U0Ax1xf5BhkHv+5B3xe5/HDg22nFzOsN0xr62n2KYaX/XZ36/DmkxDON9nwV6HQYebMfaeT8kFmFQIfe3oYKcuvnFIzNps6dGW7wKs2KFf4iga667zbpRyI0auWtYoLgjn/+2zY+CajS90gpTfhJlQ2h6JgMqZB7YRaHQfs+ryAIX/I+mv9ciO/1xsKqFytjYSIXn2OC7dAWSRX6TsDN9oVWSgX+vEm2VwCw9JpaWNupg/PNso76UAKeB/0jSYeBiFblAH27OyNgKeXcyCPUT4YD3zRMZ50SsWR8xdNvXh2bfb88eC+jsTvIgSe0po2QdDJFJW4XakYbhegRlS47QZOcoCMEVNUgnI5xflLvLAKYJLohAoCYQfoyBZ4aTVYhWqqnDRXSrgHCgZCU83wqaJNHUvc0XaHOeZw1C861PLzv/SLcoVCfNkPOW8n/55QWoG+z/wiQTaYa23fwtcHuc3QSEz53GO1p0fxDP6hhetmx1QHvF7dp5rHNC4mOZzGb9e50sUG/pgtA0Jy2/5yGi5P1Cx+ZXxR86OiCy7w/wgtEyDSI2DJZGiaebXWyxIDEy7pcxzsdNtnQVK5OGCYoAJt5WmXEfzrzpIPkHNccG1WnRxVG5sfka/SNZ796W9PzdP50/qyc9Ggd2Qhn//lSYtQgWirRPMlExSgm3PVGdlPgVRqj0C67AADbPU6wVtxCTYMhy+gXNqExY88jTSwNfVO89NbU8XMrkmdX+/qQbe/zXLrnflWWhH5OzbaHZ6hZ0AhgFmxrxPeECmGBHaPzamBmWb/X3MBz8h3gwyJ4CvNIuhDV/1POov+BKkWXgnTBceDGs7kaCffmFQiTHM2xJaznGbCWqCVJBaF6DwRX6iGIi3x2u7DtR1IYxaMzLsG9B9+/UWr+yfxeEF/pEJPun7uNn1v/7chBdlJz5+HtxMZqPT5CyTrZ7mAAhpRf//7bVR04mOS1Ok+HUfgtyw9VMmZZRQtIg85Wwclsrt1ticymasU+yhK0KtK1gLjFmALGIsnJaj97h7wIMp5mAnGLQJBuHRuDq8U4s8QXDo0NTfefnxQo1ypQcgAuZXL2sD6eSjIIKlIp7Y2pEsK88hyVRXPUEOiRMXERNgWHN3lprCo+o85tMHUnCp5j/O1kxp7BvqwvGvey5RP9qj2LLWsp5G1YJ0OW4Pwsj9kCV8VJf/OuF+rPGRq/aYsu+7ADAXIF2FokgBI3yfLZlEnCfKxKgSY5HDElHXpBNGnn8VvietDybBJPVyAQVbuQNkOG1EFKihm34L4m6b6DW/ULHhdTiasEAPBEGCiXAnmbEw6Q7snI9xSzo2QWMnp8iScOpODDehHUxeAuSZOLT0MGXAZHUj960QVGKbuZgR+y8JiD4EZBhrhfaQ4uKLDQlOnfPFsXgnEyYM/1eaRdCGr/qcggagAADsbfPMastYRrmY/ND4UPBXLmwO/MruS4GJIReRQRs5dWFrkBmqew1qlluYGJmbC9okPoIrqHcFA/FCC67h2TA/HbbGd45hhkapppnI6W71ps/L+HDUJefVTAtsKNTDntXLg8/ldn//12swQ4aD+qWO7r6xw97UMs1GI/oWINzFPB+83Qp1FuSJd6v5BtH/TfRJA6WImKeE/E5gadAAAARVhJRroAAABFeGlmAABJSSoACAAAAAYAEgEDAAEAAAABAAAAGgEFAAEAAABWAAAAGwEFAAEAAABeAAAAKAEDAAEAAAACAAAAEwIDAAEAAAABAAAAaYcEAAEAAABmAAAAAAAAAEgAAAABAAAASAAAAAEAAAAGAACQBwAEAAAAMDIxMAGRBwAEAAAAAQIDAACgBwAEAAAAMDEwMAGgAwABAAAA//8AAAKgBAABAAAALAEAAAOgBAABAAAALAEAAAAAAAA=;" parent="8" vertex="1">
                    <mxGeometry x="55" y="280" width="100" height="100" as="geometry"/>
                </mxCell>
                <mxCell id="33" value="NAT Gateway" style="text;html=1;align=center;verticalAlign=middle;resizable=0;points=[];autosize=1;strokeColor=none;fillColor=none;" parent="8" vertex="1">
                    <mxGeometry x="65" y="390" width="90" height="20" as="geometry"/>
                </mxCell>
                <mxCell id="34" value="&lt;font style=&quot;font-size: 14px&quot;&gt;Public Subnet&lt;/font&gt;" style="text;html=1;align=center;verticalAlign=middle;resizable=0;points=[];autosize=1;strokeColor=none;fillColor=none;" parent="8" vertex="1">
                    <mxGeometry x="95" y="30" width="100" height="20" as="geometry"/>
                </mxCell>
                <mxCell id="35" value="&lt;font style=&quot;font-size: 14px&quot;&gt;Private Subnet&lt;/font&gt;" style="text;html=1;align=center;verticalAlign=middle;resizable=0;points=[];autosize=1;strokeColor=none;fillColor=none;" parent="8" vertex="1">
                    <mxGeometry x="544" y="30" width="110" height="20" as="geometry"/>
                </mxCell>
                <mxCell id="51" value="" style="shape=image;verticalLabelPosition=bottom;labelBackgroundColor=#ffffff;verticalAlign=top;aspect=fixed;imageAspect=0;image=data:image/jpeg,/9j/4AAQSkZJRgABAQAAAQABAAD/2wCEAAkGBxMHEhMTBxISFhUXGRkYGBgYFRUZFhUVFRgWGRUXHhcYHSggGh0lHRUWITEhJSorLi4uFx8zODMtNygtLisBCgoKDg0OGhAQGjclICYtLS0rMDUtKy0vLzUtLS0tLS8tLS0tLystKy0tLi0tLS0tLi0tLS4tLSstLS0tLS0tLf/AABEIAOEA4QMBIgACEQEDEQH/xAAbAAEAAgMBAQAAAAAAAAAAAAAABgcCBAUDAf/EAEMQAAIBAwEFBAYFCAsBAQAAAAABAgMEEQUGBxIhMUFRYaETInGBkbEUMpLB0RdCUmJygtLwFTM0VGOTorLh4vFkI//EABoBAQADAQEBAAAAAAAAAAAAAAABAgMFBAb/xAAtEQEAAgECBQEHBAMAAAAAAAAAAQIDBBESITFBURMFFCJhgZGhMlLR8CMksf/aAAwDAQACEQMRAD8AjgAPsXpAAAAAAAAAAAAAAAAAAAAAAAAAAAAAAAAAAAAAAAAAAAAAAAAAAAAAAAAAAAAAAAAAAAAAAAAAAAAAAAAAAAAAAAAAAAAAAAAAAAAPqWegCMXN4isskGnbGXl+uKnSai+jk0vLOSdbC7Iw02mq+pJOpJZSkuUI9V17cc8+I1zePRsZuFhB1WnhvOI5Xc+vkc2+sve80wV327qTaeyGXWwV7QWVTUvZJZ82RuvQlbvhrxcX3NYLMsN6EKkkr6i4R74vix8cEg1zRLfa2ip0HFyazCouvTll93gVjWZcVojPXaJ7o4pjqo8HvfWkrGpKncrEovDR4HTid43hoAAkAAAAAAAAAAAAAAAAAAAAAAAAAAAOxsjaK+vKEJ9OLP2fW+4452tjrpWd5QlPpxY+0uH7zPNv6dtvEonosjedqctPtVC3eHUko8uTUUm/uwU6XBvS013ttGpQWXTlxP8AZaa+bRT54/ZvD6PLzzVp0Cwt0upyjUnbyfquPGl3NdfjlFelgbpdNlKtOu16sY8Cfe5dcezhNddw+hbdNujW3r2aoXUZ01jjhz8Wm+fmQgnG9i6VW5hCDzwQ5+DbfLyIOW0e/oV38FegAD0rAAAAAAAAAAAAAAD1t6ErqShbxcpPokst/As3ZndzCilPXPWl+gn6q9rXX3Mwz6mmGN7SiZiFcWGm1tR/sNKc8deGLaXta6Eit93l7WScowjnvks/AsPUtp7LZ9cClHPZGCz07G1nHvIvd70m/wCx0Ev2nn5NHijU6nLzx02j5qcVp6Q5f5Nrvvh9pfiaN/sLe2Sy6XEv1HxP4I663oXH51Kj8JfxHU0/ehCbSv6Lj3yi8pe7myePW15zWJN7KzubedrLhuYyjJdkk0/gzyL1p1bLayniPo6mezpNY7cdSB7V7AT07NTSuKpT5tx6yj8Opph19bTwXjhlMX8oMAD3rh39lNmauvzXosxpxfrTxyWOxeJ0tjdip6y1Vvk4UU/Y5+Cz2eJP9c1y32RoqNJR4sYhTXX2vw8Wc/U6yYn08XO3/FLW7Q7SUKEIUq8k8pQSk1meFz9rwmQnXN2sLqTnplT0eefC1le7pgr7V9cratVdW4m859VJ4Ue7B1dP28vLJKPHGaXJca7Pdgwpos+L4sdufeERWY6JBp269qWdQrer3Rjhv35ZK9W1S32Qt1GGFhYhTT9aTS/nmV3c7xbyusQdOHjGLz5tkXu7ud7JzupuUn2sv7pmzWic9uXiDhmerLUb2WoVJ1bl5lJ5ZrAHTiIiNoaAAJAAAAAAAAAAADOjSdaSjSTbbwku1mBYG6zQvpM5XNwvVhyhntl2v3Ya95jnyxipN5RM7Qk+xuzENnaXpb7h9K1mTbWIeGenv8CJ7Ybezvm6Wjtxp9HPpKfszzS+DNzeftI5P6LZvkv6xrt/V+eSuDw6XTzkn1svOZ6KVjfnL7KTk8ybb72fADqNAAAe1pdTs5KdrKUZLtTx/wClq7FbbrVcUdUaVTsl2T/5KkMoTdNp0201zTXVHn1GmpmrtPXyrNd1ibwtjvRZuNKi+b9eCWf3kvj5H3YrYPj4a+tLC6xp9/jL8CTbB7Qf07QxcNOpDCn4rsl78M5W8PayppT+j2KcZSjlz5ck8rC8eT8jl1y6if8AXjr5+Sm8/pbe122NPQo+i07hlVxyS+rBd77PcVJfXk7+bndycpPtf88jxqTdRt1G231b6sxOnptLTDHLr3leK7ABnTpuq8Uk2+5Jt+R6VmAO/R2Nvq6Tp28sPmvWgvmzxvtlruwjxXVCaXenGXlFsyjNjmduKPvCN4cYH1rHU+GqQAAAAAAAAAAAAB9S4uSLx0WnDZ/ToSfJRp8cv2pLL82UvpcPSVqSf6cfmi4t4tT0FhUUejxH+fgcz2h8VsePzLO/aFM3dzK8nKpXeZSbk/a+bPEA6URs0AASAAAAACR7A6o9NvKfN8M3wSWeXNrDx4c/iTTe1p/pqFOtBL1Hh97U8JfeVZQqujKModU8ovTabTpa3Zyp22OKSTWeSyjlazbHqMeT7/36s7cpiVDgmH5N73/B+3L+Efk4vf8AB+3L+E9vvWH90LcUIraW8rucYUFmUmkveXNs7s3Q2Ypcd1wueMzqSXR9qXcuw4exOxNbSbj0upKniKfDwtt8T5dqXY2ae9jWHKcLak2klxTXe39XyZ4c+SdTljDjnl3lWZ4p2h0tS3m0aLasKcp4bWXhRfiueTc0TeFb6lJQulKnJ/pY4G+7Oc+RToN59m4eHaPunghau3mx0LmnK40uKjOKblFdJpc+SXb1KrfLqXJu01WWpWrjcvMqb4cvq445Z8ysdrLJadd1qdL6qly96T+9lNFkvW1sN+e3QrPaXIAB0lwAAAAAAAAAAbeky4K9Jv8ATj80W/vKpelsZtdjT8mvvKXhLgacex5+BeNBR2h05Jvi46STx+kksr4o5mv+G+PJ2iWd+sSowGdWm6LcaqaaeGn1TXVGB02gAAAAAAADKnFzaUerL71rUv6CtXV4eLhS5Zxl+0p7YvT3qV5SiuifHL9mLWfmWDvWvvo1rGkutSXlDDfzOVrYjJmx4/v/AH6M7c5iHI/KpL+7L/M/6j8qkv7sv8z/AKlcg9PuGn/b+Z/lbghcOyW3H9P1nSq0lD1cp8ectdmMLsyRrexpro1411nhmsPuTikkvgmQ7S76Wm1YVaHWLz7V2r4ZLps7q22ytsSw0160fzoS7f8A08eXHGkyxkpHw9JVmOGd1FgsDUt2NWm29PqxlHLwpLDS7MvPP4G7oe7P0clLVqikl+ZFdvjLLyj2Tr8EV34luOHQ3VWEra2lUqrHpJcvGK6PzZXu2l1G8va8qLzHiwn7Eiy9s9paez9F0rJr0ri1FJ/UXTi8P+CmpS4m3LqzDRVte9s9o236Irznd8AB01wAAAAAAAAAACy91GtrErWu12yh8fWXn5FaHvY3c7GpGpbPEovKZhqMMZsc0RMbwmW8zZ52VX6RbL1Kj9b9WfV/Hn8CDF46Fq1Ha+3cbhRbaxUh3Pta7cFbbWbH1dCk5UVKdF9JdWl+tj5nk0ep2/w5OVo/KtbdpRcAHSXAAABlGLm0oJtvol1ZYuw2w7bjX1iOEucYP5v8DHPnphrxWRM7O1u12fel0XVuU1UqYeH+bFdPY+fkcvehoVe7kq9vmdOMcOKXOOG8y8c58jc2+2vWmx9Bpcv/ANX9ZrDUF3d2fwMtjduIaolR1ZqNTom/qzXyTOPX14t7zt9Pkz5/qVIC0NtdhFXzX0VYl1lDsl4rxKxqU3SbjUTTXJp9Uzr4NRTNXerSJ3Ym1YahV06XHZTlCXejVBtMRMbSlNaG8u7ppKUaMsdrjLL8eUjwv94l5dx4Yejp+ME8/wCpsiIMI0mGJ34YV4YelarKu3Ks22+rZ5gHoWAAAAAAAAAAAAAAAAbml6nV0qaqWMnGS+D9q7S2tndtbfXI8F9wwm+sZfVl34b5Y9pTIPLqNLTNHPlPlWaxK39b3eW+o+vYN0pPueYyfvzj3ESu93F3Q/qeCfseP92DlaVtbd6Xyt60mu6frfDizgk1vvRqRSVehFvvUnz92DyxTWYuVZ4oV2tDhx2Cvn1o4/eh+J1NP3Z16zX02pCEe3GXL5YN/wDKl/8AP/qNG/3m16yxZ04U/HPE/g1gni1tuW0QfEmWj7K2mzseOphyS5zqP7ui9yI/tZvCUE6WhvL5p1Mcl7E/wIFquuXGrNu+qyln83OI/ZXI5xbFod7ceaeKfwmKd5ZVJuq26jbb5tvm2z5F8POPJnwHRXWLsTt46WKGtNtZxGp3Z7H4ePid/a7Y+nr8PS6fwxq4ymvqzXc+z3lNkw2N20nozVO9cp0W/a4eKz2eBzc+ktW3q4OU+PKk17wi99ZTsJundRcZJ4w/55m3Y7P3N/ztaE2vZj/dgu640u31V061xThJpKUW0ujXLPesPozjazt1a6O/R08zlHliCWI47ObXkZ19oZL8sdN57o45npCsLnZa8tVmtbzS8MP5NnInFweJpp9zWGW5p28m2uZcNzGdPPa0uHyeTa2o2To7QU/SWKjGpjMZR5KWe/HX2l6669LRXNXb5p4p7qXB6XFGVtJwrLEovDXczzOkuAAkAAAAAAAAAAAAAAAAAAAAAAAAAAAOrstZq/uqMJ9HJN+Kjza8jlHc2JuVa3tCU/0sfaTivmZ5pmMdtvEonosveJqz0e0UbXk5tQWOxYbfksFMvn1La3sWLuLaFSmvqTzLwi0182ipDx+zYr6O8dd+atOgWTuo1mc5TtqzbSXFDP5qXVezmitid7pbKVS4nWS9WMHH3za/hNddFZwW3Tbo196dirW7U6ax6SOX4yTeX8iGE73t11O4pwXWMMv95v8AAghbRzM4K7+CvQAB6VgAAAAAAAAAAAAAAAAAAAAAAAAAADKnN02nDk0017V0MQBdWyO0FLaWh6K5x6RR4ZwfaunEu/s95Gtc3aT43LR5pxbzwS5cPhxZ+4r+2uZ2klO2k4yXRomWnbybm3WLqMKnjhqT9vPHkcu2lzYbzbBPKezPhmOjOw3Z3FSS+nThCPbj1n80TuUrbYy2xHEYpcllcU5Y82yEXW8+vNYtqVOL73l/eQ7VNVratLjv5uT8kvYR7vqM8x607R4g2mepq+oy1WtOrX6yecLovA0gDqRERG0NAAEgAAAAAAAAAAAAAAAAAAAAAAAAAAAAAAAAAAAAAAAAAAAAAAAAAAAAAAAAAAAAAAAAAAAAAAAAAAAAAAAAAAAAAAAAAAAAAAAAAAAAAAAAAAAAAAAAAAAAAAAAAAAAA//Z;rotation=90;" parent="8" vertex="1">
                    <mxGeometry x="300" y="245" width="110" height="110" as="geometry"/>
                </mxCell>
                <mxCell id="124" style="edgeStyle=orthogonalEdgeStyle;html=1;exitX=1;exitY=0.5;exitDx=0;exitDy=0;fontSize=14;entryX=0;entryY=0.5;entryDx=0;entryDy=0;" edge="1" parent="8" source="52" target="143">
                    <mxGeometry relative="1" as="geometry">
                        <mxPoint x="870" y="105.34500000000003" as="targetPoint"/>
                        <Array as="points">
                            <mxPoint x="454" y="115"/>
                            <mxPoint x="454" y="60"/>
                            <mxPoint x="824" y="60"/>
                            <mxPoint x="824" y="117"/>
                        </Array>
                    </mxGeometry>
                </mxCell>
                <mxCell id="52" value="" style="shape=image;verticalLabelPosition=bottom;labelBackgroundColor=#ffffff;verticalAlign=top;aspect=fixed;imageAspect=0;image=data:image/jpeg,/9j/4AAQSkZJRgABAQAAAQABAAD/2wCEAAkGBxASEhUSEhIVFRUVFRUVFRUVGBcVFRUXFRcXFxcVFRUYHSggGBolHRcXITEiJSkrLi4uGB8zODMtNygtLisBCgoKDg0OGhAQGi0lICUtLS0tLy8tLS0tLS0tLS8tLS0tLS0tLS0tLS0tLS0tLS0tLS0tLS0tLS0tLS0tLS0tLf/AABEIAOEA4QMBIgACEQEDEQH/xAAbAAEBAAMBAQEAAAAAAAAAAAAAAQIEBgUHA//EAD8QAAIBAgEFCwoFBAMAAAAAAAABAgMRBAYSFiExBTRBUVNykrHB0eEHEzIzYnFzgZHwImFjobIUQlKCIyTC/8QAGgEBAQEBAQEBAAAAAAAAAAAAAAEFBgQCA//EADcRAAIABAEICQIGAwEAAAAAAAABAgMEESESEzFBUaHB0QUUNVJhcXKB8LLCNJGisdLhQoLxMv/aAAwDAQACEQMRAD8A2imIOHOzMyApACmJkQFBCkBSmJSAFuAQGQuYooBkLkKQFuUxKQFABAAAAAAAAAAAAAAAAaYIU9IBkYggMyAEAMjEyIClMSkBSmJSAoBCAyKYlAMhchSApTEEBkACAAAAAAAAAAAAA0EZGJT1AyICkBSmIIDIAEAMjEEBmioxKQFPYwWTeJqwU1FJPWs55ra47HmYKKdSCetOcU0+FNo+l7uboOhSdRRUrNKz1bXY0aGklTYI5k1u0Ozyv5nhrKmZLigglpXi2nH6IYr2Ol4F0RxXsdLwNvTapyK6TGm8+RXSfcftk9Gd6L9XI/LKr9kO7mamiOK9jpeBdEsV7HS8Db02qcjHpPuGm0+Sj9WMnozbFv5DLr9kO7mamiWK9jpeA0SxXsdLwNvTapyMfq+4ums+Sj9WTJ6M70X6uQy6/ZDu5mpolifY6XgNE8T7HS8Dc00nyUfq+4aaT5KP1Yyei+9F+rkMuv7sO7maeieJ9jpeB4+IoTpycJxcZLamdluHlHPEVcx04xVm7pt7LHnZdRXnKbtrcHd8dnq62fFVR03V8/IbwdsdeKWtLQWRUz8/mpyWKvh/1o5kAGOaQAAAAABoIEB6wUyMSkBkEQpADIxBAZAAgMgYIpC2Nrc/1tPnw/kjvstN6y50es+d0qma1JbU01707nq7o5Q168HTqOGa2nqjbZ+dz3U1VLl082XFpiWH5WPFUU8cc6XGv8Xj+f8AR5RTFMtzOue0FImLgGRTEoIZAhSA9/IrfH+kuw3MvfWUubLrNPIrfH+kuw28vfTpc2XWbMPZcXq+5GZF+PXp4M5cAGIaYAAAAAB56KYlPYCgC5AUpiX76iAyBCkANjc/1lPnw/kiLB1eTn0Zdx2eS2TtNU1VqxvKWuMXqUFqauv8ro9NNSzJsxJK1scTz1FTBKgvE/A2stKEFhZNRinnR1pJPacfk0k8VRTs/wAWx+5n0fE+YqRzKjhKOp2bVtWzhNahgcFCSlCNKMlrTTV1+5t1NFFNqIZqaSVtzuY1PWQypDltO7vvVjxsvKUY06ebFL8b2JL+1nkZFQTxFmk1mT2q/Edvi4Yeqkqnm5pO6Ta1P6n54XCYSnLOpxpRla101ez+ZZlFFFVKemrK2HkJdZDDTOS07u+85jL2nGM6WakvwvYkuEZBU4ynVzkn+GO1X4XxnU4qhharTqKnNrUrtO37jC0MLSbdNU4N6nZpX/cnUout9YylbZ/rb+x1xdVzNne1t9zjMs4JYiySSzIbFbjPWyEpRlSqXin+NbUn/ae3isLhKks6oqUpWtdtX1fM/TCww9JNU/NwTd2k1rf1EuiigqnPbVnfDzEyshiplJSd8Nx8+yjiliqqSss7YtnAecjvt39wKdaMqsNVS2ddP8M7ca4dXCvyOJWCq8nPoy7jErqSZLnNtXUTbVvM1qOogmy1bSrJ/kfgUxKeA9Z0GRO+P9JG5l96ylzX1mpkTvh8yXYbeX3rKXNfWbEPZcXq+5GZH+Ph9PBnKmRiDFNMyABAAAAecAD2ApTG5UAUAIgKVmJbny9BT6Lh8rcIoxTlO6ik/wAPEj2P6mNWg6kb5soNq+p2s+A+awyfxjSaoys9a2d59A3Noyhg4wmrSjSaafA7M6WjqJ82JqbDZJYYNfuc7WU8iVDC5Tu77U/2Pl1i2IgcsoVbQdG27mVi2IVDJWwl2SwsAMlbBdmVi2IU+XCtguz6fuDNLC0m9ippv5GppdhP8pdE2Nxot4OmltdK37M4bR/GchL9u86ipqaiTBLUmG91jg3qVtGg5+RTyZsczOu1ntS27TTxc1Kc5LY5Sa9zba/Y/ISi02ntTaa/NEOZibbbZvrQdFkRvh8yXYbeX3rKXNl1o1MiN8PmS7Dby/8AWUua+s1l2ZF6vuRmR/j4fTwZywIUxjTKUxRSAoBCA88AHsAAABT944Kq0mqc2nrTUZNO/CtR6WR2DhVxMYzV0lKdnsbjsuuLXf5Hf7rbuUcO4qq5LOTatFvZ7j301FDMluZMiyVe3z3PDU1kUuYpcEGU7XPmH9DV5Kp0Jdx+VSnKOqScXxNNPX+TPo2mWD/yn0WcdlTujTr13UptuObFa1bWr31HxU00iCXeCYonsw4H1T1E6OO0ctw+OP8AR0NDLejGMY+anqSW2PArcZ0dLFKrh/OpNKdNySe1amcJTyPxTSazLNJr8fH8jtsFhpU8Kqc7Z0aTTtrWpPYa9HMqYonnlZWwwsZVZLpoYU5LxvtufKkUhTmFoR0T0gyMQCGZACAGRiCMH1DcGebhKT4qd/oeUstqXJT+se89TcWDeDppbXSsvmmcksj8V7HS8DpqiZVQQS8wr4Y4X1K3E5+TLp4pkzPPXhjbWzxa9TOnKS/uk39XcwJUg4txe1Np+9XQOYiu22zfWjA6LIjfD5kuw28v/Tpc2XWaWQ++P9JdhueUD1lLmy6zXh7Mi9X3IzYvx69PBnKlRiUxjTMgQpAZWILg+bA88AHsAAAB0WQO+l8OfYb/AJSPTo82XWjQyB30vhz7Df8AKR6dHmy60aq7PfqX1IzIu0IfTwZx4IUyXoNNHW0suZxio+ZjqSXpPg1HW4XFOrhlVas503Ky4LpnJUshqkoqXnoa0n6L4dZ1uFwrpYVUm03Cm43WpOyZ0lH1rKef0Ww0cOJz1Z1WyzNr31X4nydFMUU5iHQjonpMgiF++8pAZGIIDIAEYPqG4c83B05cVK/0TOd05qcjHpPuOi3DhnYOnHjpW+qZzmg1Tlo9F950lT1rIl9X2Y/+ditp9zAkdWy5mftpw0+N9HseFgKKxGIjCTsqkndrgvd6rnV6E0uUn9EcbnypVLxlaUJNKS402ro3FlBjOWl+3cZNPOpoFEp8Did/Dw8Vruac+VPiacqNJW+ajs9yMm4Yep5yNSUnZqzStr9x4WXlWLqwindxg85cWc1Y8rSDF8tP7+R5s5Nttttt3bett8bfCfpU1smKRmZMDSbvx8fnmflIpJsM7OzYrtK3zQCkQMk0TIpiUAv3wFJ9/esHzYGiAD1gAAA6LIHfS+HPsN/ykenR5sutGhkDvpfDn2G/5SPTo82XWjVXZ79S+pGbF2hD6eDOOAIzJNM6Knlji0klmWSSX4OL5nb4LEyqYRVJ2zpUm3bUr2exHg0ch6Moxl52prSeyPCrnR0sKqWH80m2oU3FN7XZM6Wkl1MMTzzurYYnO1kymihSkrG+yx8kQRFsKcwtCOji0gyMSlIZAlynyAZGBSMH1HcSbWCptbVSuvkmcisssV7HR8Tr9wIZ2EpR46dvqjyFkPS5Wf0idLPl1McEvMO2GONtStxOekzKeCZMzy14YX1s4qpNybk9rbb97dzEzxMM2corXmykvfZ2PyOaiTvZ/PjOgWjAzBC3PkFKYlIAUXIQFAABpgA9IAAAOiyB30vhz7Df8pHp0ebLrRoZA76Xw59hv+Uj06PNl1o1V2e/UvqRmxdoQ+ngzjgAZRpHpRyixiSSrTstS+7HZ5L7vwr0lTqyXnVeLUtWeuBrgeravy2Hzo/fc71tP4kP5I9lNVzYJixbvhZts8lRRy5kFrW8UkfUJ7h4JK7o00uNqyMI7j4BuypUW+JW7zVy73pLnw6zislbf1dHn9jNWfPglT4ZWbTvbHDW7bDLp5EybJc3ONWvuV9p9CqbiYKO2jSXvsjGG4+BepUqTfErPtPJ8ovqqfxH/FniZBr/ALS+HLsLHPghqVIzaxtjhr8LcSS5MyOnc7OPXh5e/A7KpuLgY+lRpL32Qp7jYGXo0qT91mc15RfWUebLrQ8nS/5K3Nj1nz1iDrWYza88Nl9FuJcxH1bP5x6NGO22m/A6We4+BTs6VJPidkWnuLgpejRpP3WZxuXe+n8OPae35PF/xVPiL+KLBPgiqXIzawvjhq8LcSTJMyGnU7OPVh5+56W7O6lHC0XGDipWzacFrs9mtLYle+s4fSLGctP9u4mU2+63P7jyzKrKyZFNahbhUN1ZNrQ/nkaVJSS4JabV27O7S1/PcznJttvW27v82yAGce4GRiZEBQQtyApUYlIC/PqBPvYCA1AAekAAAHRZA76Xw59hv+Uj06PNl1o0Mgd9L4c+w3/KR6dHmy60aq7PfqX1IzYu0IfTwZxwAMo0gEwAD9amKqSVpTm1xOTa+jZ+UJtO6bTWxrU17mQpW28WxZH61MROXpTlLnSb+l2SnUlF3i3F8adn9UfmUjbbvf5+4sj0MNgcViFnQjOoou173s9ttbPwkqtGTg3KElqkk2n7nY7byd+on8T/AMo5XKnfdXndiPZNp1BTwTru7fP31bTxy57inxymlZLkefOpKTvJtvjbbf7mVLETj6MpR4fwtrqPxKeJN3v85nssjOU23dtt8Lbu382REKfIBkYFIDIAEAMjEEBmgQqIACAA1gAfuAAADosgd9L4c+w6LK/cOtiZU3TzbRUk8522tfkfP8LiZ05xqQebKLun97UdTDLyrZXoxb4Xdq/y4DTpp8hyHJnXWN8L+epYWZm1Mifn1OlWeFsffga2hOL/AE+l4DQnF/p9LwNvT2ryEek+4ae1eQj0n3Fyej+89/8AEZVf3Yd3M1NCcX+n0vAaE4v9PpeBt6e1eQj0n3DT2ryEek+4ZPR/ee/+Iyq/uw7uZqaE4v8AT6XgNCcX+n0vA29PavIR6T7hp7V5CPSfcMno/vPf/EZVf3Yd3M1NCcX+n0vAaE4v9PpeBt6e1eQj0n3DT2ryEek+4ZPR/ee/kTKr+7Du5nv5Jbl1MNTnGpm3lO6zXfVZI4fKl/8Abrc/uPUrZdVnFqNKEW9krt2/OzOYnNybk3dtttva29bbPisnyXKhkyr2T1++3zPqkkTlNimzbJtavngQAGaaJSmJSAyICkAMjEEBmQFICGRiCAyAILA1wAfsAAAAQoABCgAgKACAoAIUAAC4ABSmJUAW4CBAUpiUgMiApAUpiCAzIgCAoAIDXAB+wAAAAAAAAAAAAAAAAAAAAAAAAKUxKAUAEBSmJUQGQIikAMjEEBbgtynyDXAB+wAAAAAAAAAAAAAAAAAAAAAAAAAQAAMu8AAF4fv8yAjBUXwAPkFKvv8AYAgKAD5B/9k=;" parent="8" vertex="1">
                    <mxGeometry x="300" y="60" width="110" height="110" as="geometry"/>
                </mxCell>
                <mxCell id="63" value="Database" style="text;html=1;align=center;verticalAlign=middle;resizable=0;points=[];autosize=1;strokeColor=none;fillColor=none;" parent="8" vertex="1">
                    <mxGeometry x="879.9" y="170" width="70" height="20" as="geometry"/>
                </mxCell>
                <mxCell id="64" value="" style="rounded=0;whiteSpace=wrap;html=1;glass=0;strokeWidth=1;fillColor=none;align=left;" vertex="1" parent="8">
                    <mxGeometry x="570" y="190" width="340" height="220" as="geometry"/>
                </mxCell>
                <mxCell id="65" value="" style="points=[[0,0,0],[0.25,0,0],[0.5,0,0],[0.75,0,0],[1,0,0],[0,1,0],[0.25,1,0],[0.5,1,0],[0.75,1,0],[1,1,0],[0,0.25,0],[0,0.5,0],[0,0.75,0],[1,0.25,0],[1,0.5,0],[1,0.75,0]];outlineConnect=0;fontColor=#232F3E;gradientColor=#F78E04;gradientDirection=north;fillColor=#D05C17;strokeColor=#ffffff;dashed=0;verticalLabelPosition=bottom;verticalAlign=top;align=center;html=1;fontSize=12;fontStyle=0;aspect=fixed;shape=mxgraph.aws4.resourceIcon;resIcon=mxgraph.aws4.ecs;rounded=0;glass=0;" vertex="1" parent="8">
                    <mxGeometry x="571" y="190" width="30" height="30" as="geometry"/>
                </mxCell>
                <mxCell id="66" value="" style="group;fontStyle=1" vertex="1" connectable="0" parent="8">
                    <mxGeometry x="600" y="220" width="270.62" height="170" as="geometry"/>
                </mxCell>
                <mxCell id="67" value="" style="rounded=0;whiteSpace=wrap;html=1;glass=0;strokeColor=#000000;strokeWidth=1;fillColor=none;align=left;" vertex="1" parent="66">
                    <mxGeometry width="270.62" height="170" as="geometry"/>
                </mxCell>
                <mxCell id="68" value="" style="points=[[0,0,0],[0.25,0,0],[0.5,0,0],[0.75,0,0],[1,0,0],[0,1,0],[0.25,1,0],[0.5,1,0],[0.75,1,0],[1,1,0],[0,0.25,0],[0,0.5,0],[0,0.75,0],[1,0.25,0],[1,0.5,0],[1,0.75,0]];outlineConnect=0;fontColor=#232F3E;gradientColor=#F78E04;gradientDirection=north;fillColor=#D05C17;strokeColor=#ffffff;dashed=0;verticalLabelPosition=bottom;verticalAlign=top;align=center;html=1;fontSize=12;fontStyle=0;aspect=fixed;shape=mxgraph.aws4.resourceIcon;resIcon=mxgraph.aws4.fargate;rounded=0;glass=0;" vertex="1" parent="66">
                    <mxGeometry width="30.209162011173188" height="30.209162011173188" as="geometry"/>
                </mxCell>
                <mxCell id="69" value="" style="rounded=0;whiteSpace=wrap;html=1;glass=0;strokeColor=#000000;strokeWidth=1;fillColor=none;align=left;" vertex="1" parent="66">
                    <mxGeometry x="20" y="40" width="232.23" height="110" as="geometry"/>
                </mxCell>
                <mxCell id="70" value="" style="outlineConnect=0;fontColor=#232F3E;gradientColor=none;fillColor=#D05C17;strokeColor=none;dashed=0;verticalLabelPosition=bottom;verticalAlign=top;align=center;html=1;fontSize=12;fontStyle=0;aspect=fixed;pointerEvents=1;shape=mxgraph.aws4.ecs_service;rounded=0;glass=0;" vertex="1" parent="66">
                    <mxGeometry x="24.02201411388753" y="40" width="24.62" height="30" as="geometry"/>
                </mxCell>
                <mxCell id="71" value="" style="rounded=0;whiteSpace=wrap;html=1;glass=0;strokeColor=#000000;strokeWidth=1;fillColor=none;align=left;" vertex="1" parent="66">
                    <mxGeometry x="60" y="60" width="168.21" height="70" as="geometry"/>
                </mxCell>
                <mxCell id="72" value="" style="outlineConnect=0;fontColor=#232F3E;gradientColor=none;fillColor=#D05C17;strokeColor=none;dashed=0;verticalLabelPosition=bottom;verticalAlign=top;align=center;html=1;fontSize=12;fontStyle=0;aspect=fixed;pointerEvents=1;shape=mxgraph.aws4.container_1;rounded=0;glass=0;" vertex="1" parent="66">
                    <mxGeometry x="161.86033109937418" y="90" width="46.8" height="30" as="geometry"/>
                </mxCell>
                <mxCell id="73" value="" style="outlineConnect=0;fontColor=#232F3E;gradientColor=none;fillColor=#D05C17;strokeColor=none;dashed=0;verticalLabelPosition=bottom;verticalAlign=top;align=center;html=1;fontSize=12;fontStyle=0;aspect=fixed;pointerEvents=1;shape=mxgraph.aws4.ecs_task;rounded=0;glass=0;" vertex="1" parent="66">
                    <mxGeometry x="65.73624162265322" y="60" width="15.13" height="20" as="geometry"/>
                </mxCell>
                <mxCell id="74" value="ECS service" style="text;html=1;strokeColor=none;fillColor=none;align=center;verticalAlign=middle;whiteSpace=wrap;rounded=0;glass=0;fontStyle=0" vertex="1" parent="66">
                    <mxGeometry x="4.267166906737346e-14" y="20" width="168.15409879721273" height="20" as="geometry"/>
                </mxCell>
                <mxCell id="75" value="ECS task definition" style="text;html=1;strokeColor=none;fillColor=none;align=center;verticalAlign=middle;whiteSpace=wrap;rounded=0;glass=0;fontStyle=0" vertex="1" parent="66">
                    <mxGeometry x="49.91774532865829" y="40" width="168.15409879721273" height="20" as="geometry"/>
                </mxCell>
                <mxCell id="78" value="" style="outlineConnect=0;fontColor=#232F3E;gradientColor=none;fillColor=#D05C17;strokeColor=none;dashed=0;verticalLabelPosition=bottom;verticalAlign=top;align=center;html=1;fontSize=12;fontStyle=0;aspect=fixed;pointerEvents=1;shape=mxgraph.aws4.container_1;rounded=0;glass=0;" vertex="1" parent="66">
                    <mxGeometry x="92.4" y="92" width="43.68" height="28" as="geometry"/>
                </mxCell>
                <mxCell id="101" value="APP" style="text;html=1;align=center;verticalAlign=middle;resizable=0;points=[];autosize=1;strokeColor=none;fillColor=none;fontSize=14;" vertex="1" parent="66">
                    <mxGeometry x="95.79999999999995" y="70" width="40" height="20" as="geometry"/>
                </mxCell>
                <mxCell id="102" value="Proxy" style="text;html=1;align=center;verticalAlign=middle;resizable=0;points=[];autosize=1;strokeColor=none;fillColor=none;fontSize=14;" vertex="1" parent="66">
                    <mxGeometry x="158.65999999999997" y="70" width="50" height="20" as="geometry"/>
                </mxCell>
                <mxCell id="76" value="ECS" style="text;html=1;strokeColor=none;fillColor=none;align=center;verticalAlign=middle;whiteSpace=wrap;rounded=0;glass=0;fontStyle=0" vertex="1" parent="8">
                    <mxGeometry x="600" y="170" width="40" height="20" as="geometry"/>
                </mxCell>
                <mxCell id="77" value="ECS cluster (fargate)" style="text;html=1;strokeColor=none;fillColor=none;align=center;verticalAlign=middle;whiteSpace=wrap;rounded=0;glass=0;fontStyle=0" vertex="1" parent="8">
                    <mxGeometry x="640" y="200" width="140" height="20" as="geometry"/>
                </mxCell>
                <mxCell id="82" value="&lt;font style=&quot;font-size: 18px&quot;&gt;Inbound&lt;br&gt;&amp;nbsp;/&lt;br&gt;outbound&lt;br&gt;&lt;/font&gt;" style="text;html=1;align=center;verticalAlign=middle;resizable=0;points=[];autosize=1;strokeColor=none;fillColor=none;fontSize=7;" vertex="1" parent="8">
                    <mxGeometry x="126" y="171" width="90" height="40" as="geometry"/>
                </mxCell>
                <mxCell id="83" value="&lt;font style=&quot;font-size: 18px&quot;&gt;Outbound&lt;br&gt;&lt;/font&gt;" style="text;html=1;align=center;verticalAlign=middle;resizable=0;points=[];autosize=1;strokeColor=none;fillColor=none;fontSize=7;" vertex="1" parent="8">
                    <mxGeometry x="130" y="270" width="90" height="20" as="geometry"/>
                </mxCell>
                <mxCell id="84" value="Bastion" style="text;html=1;align=center;verticalAlign=middle;resizable=0;points=[];autosize=1;strokeColor=none;fillColor=none;fontSize=18;" vertex="1" parent="8">
                    <mxGeometry x="315" y="170" width="80" height="30" as="geometry"/>
                </mxCell>
                <mxCell id="85" value="ALB" style="text;html=1;align=center;verticalAlign=middle;resizable=0;points=[];autosize=1;strokeColor=none;fillColor=none;fontSize=18;" vertex="1" parent="8">
                    <mxGeometry x="330" y="360" width="50" height="30" as="geometry"/>
                </mxCell>
                <mxCell id="93" value="SSH" style="text;html=1;align=center;verticalAlign=middle;resizable=0;points=[];autosize=1;strokeColor=none;fillColor=none;fontSize=14;" vertex="1" parent="8">
                    <mxGeometry x="199" y="95.35000000000002" width="40" height="20" as="geometry"/>
                </mxCell>
                <mxCell id="105" style="edgeStyle=orthogonalEdgeStyle;html=1;exitX=0.5;exitY=1;exitDx=0;exitDy=0;entryX=1;entryY=0.75;entryDx=0;entryDy=0;dashed=1;fontSize=14;" edge="1" parent="8" source="71" target="32">
                    <mxGeometry relative="1" as="geometry">
                        <Array as="points">
                            <mxPoint x="744" y="420"/>
                            <mxPoint x="204" y="420"/>
                            <mxPoint x="204" y="355"/>
                        </Array>
                    </mxGeometry>
                </mxCell>
                <mxCell id="106" value="HTTPS / TCP" style="text;html=1;align=center;verticalAlign=middle;resizable=0;points=[];autosize=1;strokeColor=none;fillColor=none;fontSize=14;" vertex="1" parent="8">
                    <mxGeometry x="414" y="400" width="100" height="20" as="geometry"/>
                </mxCell>
                <mxCell id="107" value="" style="shape=image;verticalLabelPosition=bottom;labelBackgroundColor=#ffffff;verticalAlign=top;aspect=fixed;imageAspect=0;image=data:image/png,iVBORw0KGgoAAAANSUhEUgAAAgAAAAIACAYAAAD0eNT6AAAACXBIWXMAAAsTAAALEwEAmpwYAAAgAElEQVR4nO2dWbRV1Znv6+U+1FPdh/tYTzVSo55u1Rg3ozw2qDGdSSqxSaKJWqbSlInpu0pb6VP0CCigII0gjaKI2DcodnSKIIoNqAgICgiCImf3e6+7vnkA4bDXN9dae8615uH8fmP8R42KnLlms/Zc/9l982/+BgAAAAAAAAAAAAAAAAAAAAAAAAAAAAAAAAAAAAAAAAAAAAAAAAAAAAAAAAAAAAAAAAAAAAAAAAAAAAAAAAAAAAAAAAAAAAAAAAAAAAAAAAAAAAAAAAAAAAAAAAAAAAAAAAAAAAAAAAAAAAAAAAAAAAAAAAAAAAAAAAAAAAAAAAAAAAAAAAAAAAAAAAAAAAAAAAAAAAAAAAAAAAAAAAAAAAAAAAAAAAAAAAAAAAAAAAAAAAAAAAAAAAAAAAAAAAAAAAAAAAAAAAAAAAAAAAAAAAAAAAAAAAAAAAAAAAAAAAAAAAAAAAAAAAAAAAAAAAAAAAAAAAAAAAAAAAAAAAAAAAAAAAAAAAAAAAAAAAAAAAAAAAAAAAAAAAAAAAAAAAAAAAAAAAAAAAAAAAAAAAAAAAAAAAAAAAAAAAAAAAAAAAAAAAAAAAAAAAAAAAAAAAAAAAAAAAAAAAAAAAAAAAAAAAAAAAAAAAAAAAAAAAAAAAAAAAAAAAAAAAAAAAAAAAAAAACGDgf/+C//+/Do0/4FIYSQO0nfWnb/DqDywV//9Yr+kadFCCGE3En61rL7dwAVDABCCLkXBgCCBwOAEELuhQGA4MEAIISQe2EAIHgwAAgh5F4YAAgeDABCCLkXBgCCBwOAEELuhQGA4MEAIISQe2EAIHgwAAgh5F4YAAgeDABCCLkXBgCCBwOAEELuhQGA4MEAIISQe2EAIHgwAAgh5F4YAAgeDABCCLkXBgCCBwOAEELuhQGA4AnRADSevDFqbrjzBDXW3Fx6vgrVqNOj6oxLo/pdf4gaT8yIms/ePlAX65dEjZWzo/rD10S1O/87qlz/xfLz2qNqd/z6pPYWVa79XCHPr06/JKot+13UeGpW1Hzm1oHnr1s8UM/LJ0a1BVdHlfEfK72esqgy7aKovuz38W9p5km/o/r9o6Lq7K+Zd6zsfGZTX1S98atR/d6/Ro1VN51YrpVzovo9fzG/mfLzOSAMAARPeAagL+p8sC8aTOfQOz2l23p5eaxHClX/6DMz51M+6PIR6lYHSXQO7jIfq6I+mK7VfP6eruWq3niZt2dWrvmEMVadd3ekrOR21N650Riy/jEjSq+zrhpzVlR/cFzUfmdruiIdPmAMQWXyZ8rPu9ZWE86LGo9Pjzrv7075e3grajw2Leoff26p+cYAQPCEZgCqc77e/UfdowGQDrxosnwoZIQpo/ye8tmsmY9a/+gzSm/H1Irz2uk/0LU4vgyAjCA7lfdyV3Pnvd1Rdf7V5dfd8b+bm74RdQ7szFee2uGoft+o0svQTbXbf2GMSq5yxSa6dutPSss7BgCCJzQDIFOvXX/Mp7ABqEy9MPWoLQ3tHevNCLfstkyj2uKfJpbDuQGIzUbSbENm4vep/sjk0uvP1OEdv4qiVr3nIsnMU9llOV6NR6+Tiu69nR6aUEr+MQAQPCEZAFm/i9rN7r/jU9QAyPRr3pGbRnvn87mWIArVmLOi9v5tiWVwagBGnR41N93vuJY7Zh9GmXVYW/i9+OPfcFYi2TNQ+nsxUmZp/sdZmaSdzNJNwWXAAEDwhGIAZMTa3v1K8k/4lDQAfVHrjae9Pb+xam7p7aqVXTY0arg0AAOjSR+VXIlN3Pnl/GYmfTrTXpFUxL8T2fRY5rthBgLNmtty1SuFb5jFAEDwhGAAKlMviNpvvaj3S6egAZCd5zZkk1r9ofFRdeblxiTJjEF13lUD+wXaLcsft83fld2+J2ncOVHzuTutZXdlACQd2yi5/fZL8Sjxj+ZdlM1j8n9lFCobymw01i4opR5tBurYa3D4XfP7ks2i1ndG6mLftlL3kbS2PZOmVFHn/T0D5Tq0N0qzVNB6bWWh5cAAQPCUaQAqkz9rdveKO7f+3IeaAWg3rVPw7T1b1CRkylqmyZP+vjr3m2YDl5rGxrtL68hP0tgR5iObdsnDlQGQjl9DTlDIjETXd9TMTG1W/75T7y98uUVGs7aPeWvziqgy7eIT/27Cx81GUdvfypG6Mt6R2qIfqPkSZJ/Q4JMLcgKmuWGp9W+rN19VWFkwABA83g1APAqWM8cimVqs3/0nc4a3vWND4np/N3o1AI3Vc2PNcyptdGh24yv5qc76d7W8cuQszTltOUOv0qwXviFQzmqbNp93VVRb+tuosWJq1Hr1yahTPZS6vQUXBiDpVMmx6nn2dmsaAx9b/V2tzvvPQuu4sWaBXi4xjwmmRiS/Qw0xp0WW56jkPdGQAYNaL6vmqn8vx4GLKgsGAILHtwGQgCQu6NUAuJYcA0uaVWi//bJ1CrW5dqFa3ursK1PnRds7IRR9FCr12XoLLgyAtutf1s/7x6U7Ky4fDg1z7ryoOjZHJw8mlys2WmkCF7W2rtbrX4IFFfjeyIygNlMnJ2Wspjj+7+oMU2zkKhM/WUh5MAAQPBiAHGWKR9SJQUniEXeaaGSy5pzYR8Uf9Cz5aTxyrVp3A1PcxdVPMAZg3Dlx4avJ9fLUrNRpSewAjTQzCa5UW/BdNS9po2baptslul6R741EKNSQPRmp0nlovJ7O3X8qpDwYAAgeDEB2NTc9kJhP+Rhb04hHcNou56wdr6xrarReebTQ+gnFAEgQmUTikWZlyhfSpyXH7bQ6LnBqWTYdqvU24ysp0+o7soGuO0UvA6jT/626MXRp0pF9DtpMQlFthQGA4MEAZJOc+06i/c7rqdbtpYPWkA9Xpjq+7vNqeq1t6wqto1AMQHP9HYlpy8a+THU8+Xx1P4jMEBRVv+1dmxLLJUsD2tr/YLVeeji5AcQkTTivoHL1qdEZ229uzFZHe5I3bpqlnwLKhAGA4MEAZChLPLLoHN6fmMfaoh+mSkf+nYZsEMyUr2s+oaaX9WPXq0IxANoyi+wkL/t9yqUxI9Qjja3Nj2VKT+4O0JBlgiLKJRcyacgm3izpSVRDDXPc03OZMAAQPN5PAcQjYnN+PYW0ji0EA9B8+pbkjjfDGWPbzn3ZDJUlXzaTZaICFlhPMmpM096trWvUfPdkAEafafZjJFFGZDgXkrgOGln2NZh3ccHVanpFhTs24Yy1fGRsr/r9o9X0aot/5r1MGAAInhACAR1VyAZAjrYlHgVrt8x/T905WTaUZZ12rc79lppe0QFQ0qr12lNqvnsxANVZV+ppz/1m6eXPI20JSki7Ue6o5B4KjeZzywopl4lNoLXXvGzn92u3/EhNTyJD+i4TBgCCBwOQRn0DcQuSOsmMO8DliJ+cjU9S1qAytoiCA2fCy2/fwfJpAKwma4henWwCZylknrKXDalKUCC5WKqIctnuaZB9LlnSsy0pSCRK32XCAEDwYADsqi39TXJPEuc5a+fkWs2Nd6mdnTEVAbTvYPk0AHL0MfllaqfarBmitI2Nps5SnwD4UPLbSqyqAzuLeRe2rVNK1cneXuPOVeup9foq72XCAEDwYAAsijseiY2eRFFTpFr+JCa6RlEbubLKpwFQTVGjcvLfjDnLnL6QcLImvvx7u82udLmtUGZ/JPJedf53SjcOtkh5eWY2tPdbjqsWUa72/u2JWZBw13nS1KI3tve+6r1MGAAIHgyALoldn5ypduE3jA1Wbckvk/MntOrm9ELZbdtNPg2AFv9fPuwf/ts+s1ygjYJP+Nt3d0S1235eWp21d72g5i9NBMCT0rRcxCWXI/kul3YEUGIV5Evz/eQ0CzgKiAGA4MEAKBp9phpWtPnigyXXWZ961E1obXm89HZNkk8DkOpq6bEjTJCkPJhgMtbrnt1LRq7JBWtHWWIAHGsHy5XURVx3rEVsbO97I1eanffeTq6q6iHvZcIAQPBgAJJVv2+k0i12nN5Xny9/euhUQY5Xld2uSfJpAGSEl9hyB3eZqXwxR71gAiylvEvAlbQYC+ZWwjztsHmFWk7/Z+b7Iu06X5mhyJNue+/rSuPVvbcVBgCCBwOQIFlbV0YQre3F7I5Okhzfkg5fw4ycAt7s5tMAaFdMS73Ul09Sn52WoveAaPs9ZMo7Vzto0QBjqtMv9VuusWerzzc3Y+ZI13aNs+/fBgYAggcD0F22wCRyHrusepI1fQk7bEMCDpXdppq8GgDtXRLjpBiErGQN3dyL1FsADx/IlaZ2t4WQ5WbKXO/zxE+qz897FLHsvQ0YAAgeDEBC5/Hmc8l56T9QyvqvkaxbW9ZshZDX/o/KnwHQp5RVmrWB5QPlMpnByEmBPGvveSQnGJLIu7Gt+cK9avmyBuHJqsp1/6Y+P+9dFhIBU6Myye/eBgwABA8G4GTZosg11swvp47Gnh1//NeqeTN1FX8IKpM/U3p72uTNAEi8/Ax0Dr8bNR6dcuIRutFnxiP7/1IvlTme2i0/LqTONGMiywN50mxuvFsvm+djpHKSRkPe+TzpaiZe8L23AQMAwYMB6NIhqiOiTlS54UuF142Jnb99vdqhGeIRbHXO10tvyzTyZQDkKFxaZPSufghkxsVy9l7IeglPXmln2yV2Qa73fcOdatlqC77r99223GXR2ro63/u1/Vk1XZl58FkuDAAEDwZgUGc0+XyzQzgJGVUUXS8SaTDNmr9cflPEJSeu5M0AWG5H/LAxW6luXpT0bMGWBjbg+V8GkKA4iXnIPQOgR5L0fW+CXH6lkXsGQAnfLcjeA5/lwgBA8GAATlR9+US105DrU4usE7lkyPbxMTSqqa8jDkVlzwDITE/q9+KhCdb08oThzSpZrkjC2x6AmZd7LZNsatVobXsmV7q2PQAyu+OzXBgACB4MwKBOQwkgYyL/FXiJjEy9dmofqJ2YyVY8Kqze/O3S2y+r/O0BOMtaZ0KWqW25oVGbfhfqd//Ze511Dr6V/B54OgXgfclLrm5W8HIKIGfQpCzCAEDwYAA+lIzg9I5oQ2F1YS4gUpYijtVLPOqrzv5a6W2XR6WeApBAMLFRyJKubURZxBWzEsMg8V04IcRxhnawxAEo4rIr9UbCNz3EAWhUvZcJAwDBgwH4UI1Vc9WOsP7Q+ELqwUQgTHEMrb1nS+k3EfaisuIAmLrb/UrmNJvP3Kqm2Vg913udqSGOc16a03rFEgnQ81q5SAtqlT8S4GvJddV/0HuZMAAQPBiAIzK36u1O7gULmv4399in+Pi3tjxRyCUtPuU1FLCyWc7UX/zRy9w2D1+jpim76X3XmbqxLe9dAFvXqOUqIuaFFrq5/c7WfGlqyyU5T0xkEQYAggcDMCAJdqLRfvtl7+WXyH1pPv7NZ28POsRvWnk1AMolTsfqME/7aGk+598A2Kbr85hC7YbBvMsKmfOgxFvIe7pBu2GwvWuT9zJhACB4MAADaqy6Se1YZXnA5/Ml3KoW5e1YPlbPK72dXMnrbYBvbnRej7Vbf6KnuWaB9zprrl2o5iHPLJWMsJOQafSy3wXZCJsnTa0/kVsgfZcJAwDBgwE40glaIr75jIYma6zW++g7bTMFXXYbuZRPA2C75rexcnbmNOXUgJrmEzO815ntmGqei3u0Y6at11YW8i401y9JLpQsbWSd8RqrR4NsPr3Ie5kwABA8GIDTzKhJ3TXerJswvN46P8sxLEHOoZfdPq7l0wA0192mpt1YOSdzmrVbfqS3Ufxx9l1nEnJYo7bwe9nSjD+s2u+usdb/rIbItr8i68yGLbxw/f5R3suEAYDgwQDEnc89f1E7i7yBSNKodtvP1WcLjTU3l942PuTTANiu+5Ud/Znbaskv1TRrS37lvc4qUy5Q8yDvcqb0rvu8nt69/1PIuyAzbBpZoxHWFn5fT6+AuBkYAAgeDED8IXr5EbWzaDw2zc+z49GXLcSvCT18Cmz461rvHg2AdPAaspkua5oSBVJDRp3+661PvRK48eTMjPWkb36Vi7GKeBcqEz8VabNwWa/fFuOSiJzomXCe9zJhACB4MAB6eFXT+cSjCR/PlU5NpVExI76y28WXfBoA2Q2vnaiQGApZ05RNfonUK4UZNe1yotbLyzOlZWJOJCBn84s0n3IxUxKNp2Y5a6s8bZ9HGAAInuFuAGxTqub2P0+BUNpvv6Q+OWunN9Tk1QCM1He3y7smdwZkSm9H8m2M7Z35otXlUf2Ryclva8b7ALR7AFqvryr0fWhuWJqcl23rsrXVrk2JaeVZ/skjDAAEz3A3ALaz3Z333vbyXNsmpU71UKGBfmyby/Kcm7fJtwForr9DTT/Tmv24c81m0CQaj0+3piHr2BpplyVs706WpQgtXkLajXK2PTSNJ29M9w5qxywldG/a0M1jz1b7ktqCqwv5TWEAIHiGuwGQDXYarc3ZI8aleu5j16vPlY9XkXV/KhoA28ay1htPp05LmyqXWaLq9EusabgyACItzn3aD251zteTM9NuRpXJn0lXN44MgEQc1IL3pN0HoOWnc3h/1D/6jEJ+UxgACJ7hbgBa25/VO68UI7s8ks19GjI121gx1Zlsnd6paABMeOf33lafkSq+w9gRUXv/9sQ00p4ScWkA6veNSkxH9rSkuepW2/yaZS+BMwMw0rJ2n+pOgL6ovffV5LwUuKyGAYDgGd4GoM8aM16O6Tl/rnyYlMtPfGCLY3BKGoCR9vPl8rGsTLtYfUe0tWmTz5RHylwagP5x56jx8yVioNreZro9add9J6re9I30dezQAJg9OcpSS/3+0fnbWzbVFnidNwYAgmc4GwCZ4rTh4iM0WDJdXDTD1QCYaeV331SfI9POZnp50CxJZeqF1tj7rRcfSt/uLg3ASMtRt5jmusVRZcLHT/y7uIzmwqlG1V0+HBoAkbos12kPzGgNnuGI32+ZrdNOfhS9qRYDAMEznA2AjHJsnNSBOpBt46EPhq0BkHae/x31vvmjyIha9gXITYHmhIblbzoHd2U6IeLaAMjsRGvrar1Q8YdeyiKhkVvb10ed/gN6mQ7vj43x+Zny4doAyOxGe98bej5rH0Ttnc+bpQq5zMg2k2eO/hVwq+HxwgBA8AxnA2A9AZDzEhJrh3n/aPW5PhjOBsDU+QNjIzXcc0bkfazc8KVMeXBvAE6LKpPOV8/PZyI2CxIYKHPdujYAUlfTL7WalbSIsSsmSNOJwgBA8AxnA9B45Fq145AofT7K2Xh0ipOOLQvD3QCIzIdKWV9Oi2xGq0z5Qubn+zAAIlnXbu9+pacySXTBvMfjfBgAU18zL7du4rSW68DOqDrjUi+/Y5swABA8w9kAyBqphq9AKHIRTdFgAAZUnfEVM82fh87hAwM3MuaMjufLABiNHTFwpXUOgyNLHnkMzVH5MgAiCRHcfG6Zurbflfjfyw2DPpbw0goDAMETkgGQm8zkWFY3+bi8Qz4wSc8zz7zxq17KWbnhy+pzfcj20ZKOVq2LHNfMWut/1r/refYYCKk65z/MkTMTLVBZ6zf7AuIPs9kk2OONkPIxUut4Zu+GpzL5s1FjxTSzPq6VS5YNJCJedeYVvT/z2s+p5dJPWaR8xvVfjA3OXLOWn2gG4v9d4iPIVc+VaRd5e3fSCgMAwROSAUCoFI05y8wMyKZQ8yGef7X5MFau+UT5eetFo880+xSq8/7zw3LJrEqBESa9aOyIgfaKBwUDg4OrBqb5C97kZxMGAIIHA4AQQu6FAYDgwQAghJB7YQAgeDAACCHkXhgACB4MAEIIuRcGAIIHA4AQQu6FAYDgwQAghJB7YQAgeDAACCHkXhgACB4MAEIIuRcGAIIHA4AQQu6FAYDgwQAghJB7YQAgeDAACCHkXhgACB4MAEIIuRcGAIIHA4AQQu6FAYDgwQAghJB7YQAgeF755Ue//MpP/+VZhBBCDhX3rWX37wAqsy7+yBWzL/rHCCGEkDtJ31p2/w6gggFACCH3wgBA8GAAEELIvTAAEDwYAIQQci8MAAQPBgAhhNwLAwDBgwFACCH3wgBA8GAAEELIvTAAEDwYAIQQci8MAAQPBgAhhNwLAwDBgwFACCH3wgBA8GAAEELIvTAAEDwYAIQQci8MAAQPBgAhhNwLAwDBc9slf/+3N178kb9HCCHkTtK3lt2/AwAAAAAAAAAAAAAAAAAAAAAAAAAAAAAAAAAAAAAAAAAAAAAAAAAAAAAAAAAAAAAAAAAAAAAAAAAAAAAAAAAAAEBGDv3xo/+nMvKjZyGEEHIn6VvL7t8BVD74679e0T/ytAghhJA7Sd9adv8OoIIBQAgh98IAQPBgABBCyL0wABA8GACEEHIvDAAEDwYAIYTcCwMAwYMBQAgh98IAQPBgABBCyL0wABA8GACEEHIvDAAEDwYAIYTcCwMAwYMBQAgh98IAQPBgABBCyL0wABA8GACEEHIvDAAEDwYAIYTcCwMAwYMBQAgh98IAQPBgABBCyL0wABA8IRqAxpM3Rs0Nd56gxpqbS89X0apMuziqLf1N1Hj0OlN+UxfP3Bo1npgR1R8YG9Vu+3lUue7zpeezV0kZB7e3qHLt54qp5ykXRLUlv4waK6ZGjdXzjr1vjceuj+t5TFSd+82of+yI0uuppzq+9Sfd6/j6L5aet0xtFee3tux35jfQXLtwoK3WLogaj98Q1e7876gy9cLS83hUGAAInhANQOfQO9Fg5H/rJc3mhqVdO0Cf6h99RvYObuoF5uPTeW/3SXWQRHvfG3EHOD2qTDq/9LbL1TbP39O1XNUbv+rvuePPjRqPXBu1976WspKbUeuNp6PaHb/K1a5lSz6SXev45qtKz5tV4wbaqvPujtS/h/rD18Sm7exS840BgOAJzQBUZ3+t64+6VwMQddrpOnqH9I/JMGocd44Z0ciHJjeNihnF9o86vfR2TK04r53DB7oWx5cBqC/7ffzM/bmruXNg58CsQNl1l0Gdd9/sXseBGwCZueg2IEjVTrGJri38Xml5xwBA8IRmAJpPL+r+Yz6FDYBM47f3vursuTJSrYz/WOltmUbSwSfh3ADEZqO5fombSm63ovqD40qvvzQSs5JYxwEbgPpDE3r/3cZ/X79vVCn5xwBA8IRkACo3fDn+etW7/45PUQNQmfTpqL1/u/Nnt3dsCH+qevSZZro2CbcGoC9qPrfMbSXH75TsHSi9HjXFpqe9a1NyHQdqAOp3/VEq2F07Lf1N4WXAAEDwhGIAKhPOi9pvvZj8Gz4lDUBf1Hp9lbfnN56aVXq7amquW6zm36UBkDVhH3Tq/cbElV2XSZJ3QK3jAA2AGQg0Km7bqXY4qky7qNByYAAgeEIwAGYKfNcL+g/4FDQAMiqxIevN9eUTo+rsK6PK5PPNzvjagqvj0eyd9jLF/71642Wld+gnaeyIqPns7dayuzIA1emXRlGz+8zSUdp7Nkf1e/5idplXrvmE+b/1+0en2owpJwdKr9PBGn2myZe1jgM0AK2ta6z5FmTvSHvPlqjT330PyWBaWx4vtBwYAAieMg1AZeKnosajU4w7t/7Yh5oBaDdNJ6zlqb17s5pE66WHVRMhnXdU10dKMu1ddod+TGPOMke10u7mdmUApOPXMB/whI2TlYmfNB8ZjU7tg3CWW+J81G7/RerTDaEZADG3Nszxxev+7cR2mnJB1HzhXnt5C9y8iQGA4PFuAOIOSc6zV2deFv/4vhWPen9rzvC23libuN7fjV4NQGP1XNPRu1Tn4K7E/DaenKnmR+pDQ9Zt0+zmlw+qSrMWVSZ8vNBOvDLlC1F1xqVRdc7XTayC+vJJUevl5fFI7WDq9hZcGIDqrCv16pHjmrY0pl9iNv2peS34VIB8AGVmozrnP6La4p+ZDXPNTQ9kPt0QmgFobX5Mza9tWSvpuOOx9n7xwcLKggGA4PFtAGTdzQW9GgDXqt787cRZhfbuV6yj/8YavaOSjj1dXvrM9LVG7ZYfF1o3SUfOsuLCAGgb/+RjKfEA0qTTeuVRNa/m+GWBddx++yU3dRyQAZAlLs1otfdts5vi+HfXOfhWcoFbDbPEU0R5MAAQPBiAHGWKR9Sd995O6GDqqT5c2oZH+aBnyY9ECtQoejNgMAZg7NnqEklj5ezUadXvG6nmVfY0FFnHp6IBsNVx/f50x/lkz4yazl1/KKQ8GAAIHgxAdjU33Z+YT/kYW9OIRzFRo5qcxqqbMuXHzEYotF5+pND6CcUAyPJDIp22WTdOndbC7+t1LPs1CqzjU9EAtLY8oVRww0QETJOOjPC1PT+tFx8qpDwYAAgeDEA2aTv35Ux7ms1gsj6ukfVsuay5a7S2PVNoHYViALSTBllnWSqTP6PuB6nf+9dC6/jUMwB96m7+9s7ns9WPsnGzc2hvIWXCAEDwYAAylGXCeVHng32JeUy71l5b9EO1rLJxLVO+ZMSjIKcNiqynUAyAtsxS9JS9a51qBqByw5fUfGY9ammLMSGm2XeZMAAQPN5PAYw6feBcdQrJNF8SIRgAE6s/gdbW1anTkQtl1M5p8mezdZ4WkyUxFoqsJ9kjkaa9zUkQhZ4MwOgzzAmIJCTSXNnvU091PP5j6er45eV6HQdiAGpL9N9E1nV7ieGgUVv8U+9lwgBA8IQQCOioQjYA1RlfSb6oJ2PAHZku1pCZhkx5U2K9C63XVpbett0k+dLoxQBUZ16hpz3ELvPJK22/iqmHQAyA3GbpMp8yG6chtwv6LhMGAIIHA5BOre3PJuatuf6OTGlJVD9z93yCbEcIT+rslv1O7ezkfHjZbdu1Tj0aAInqpzE4kMypqqFiAJov3Ke3V8YpexP9USFN/IdehQGA4MEA2KVO2bebmXaT+5DtkpvGY9NKb9tu8mkA5Ihf8svUHlpXJvfybgwRAyAbVZUGy95e485Vy13ErBgGAIIHA2CR3Kb2ztbEfDU33l1yvfVFnff1ePW1W35Uett2k4pb/LwAACAASURBVE8DoJqiRuXkv5EQurf8OGo+c6uZ7ZE7GCSgjITUlQub5Ghm9aZvmPouu94y1cMQMQDt/dsS8ygXLuVJUw0qtGeL9zJhACB4MAC66st+n9x7ylnyG75cap3Vbv8vtYMvMvJZVvk0AFrancp7J7WxGj3uOMQMFh1ZsRcNFQOghYnO+9vvVA8lp/nBPu9lwgBA8GAAFMWjQu3imqKDv3STdtTN5PHVJ0vPY5J8GgAJx2x9l8aMMLHh8yAfVrncqOw6tGmoGAAtMJaJr5EjzcRonfIOxObAd5kwABA8GIBk2TaSVWdeXmp91e/9HzV/ggQuKrtdk+TTAMj7kvguHdwVyVS+REjsBTnG2D/unNLrUdPQMAB9auQ+Mbl50m3vfV1pvLr3cmEAIHgwAAkadbp62197x4ZS66oy9QJzDa2GrKuGvNnNpwHQ7gCQEWX9ofHqs9OS9QRI0RoSBmDsCDWP7Z0bc6Vru27b928DAwDBgwHoLrlTXaOoC0W6SeIEtPe+quZPkKuCy25TTV4NgPYu1Q5bzVN6OuY63rLrMklDwQBYI1nuWJ8rXdvyWNqbIPMKAwDBgwHortb29cl5kU1k8aillHoaM8IaQU8Iee3/WB17MwB90krWOupecQ3TvlkYWKMO83TAkDAA135Ob5Jt63KlKxEwNSqTzvdaLgwABA8G4GTZoshJSOBS6ig2HXIkzYbccy+datntaZM3AzBGn1I+qb76D0aNx643yyrHPuRjzzb7J9R15OOoLfpB6fXZTUPCAFz/RTWPZq9FjnTbbz6npus7fgcGAIIHA9Cl03z+HqXb6ETV6ZcU30lOOM8SLOUIzfqQCXPrywBInPy0yMVFlWkXJ6c37pxUpqv1yorS67PruzwUDIDlLoss92yc8H4p0TuFynWf91ouDAAEDwZgUGc06dPmI5pE3g1JPeUpHs2nWfOX+pO9C2W3Y1p5MwCWNeUPG7NlwjKnSU87VSDILEKIywBDwgBM/qyax9wzADs2qOlWJn7Sa7kwABA8GIATVX/4GrXTkP9eZJ3IJUS2SH8DvWQ9qt3289LbMIvKngEwZ/nTvhfLJ1rTk/jzZdfpYA0JAzDh42oeZeYrT7rtnc+r6frex4MBgODBAAzqNLR71iXyX4GXyFRv/rYazewY9UpUW3B16e2XVf72AJxlr7OY2sLvp07TfKSU0LKmGe7+U+l1OlhDwQDY2svPKYBO5HvGBgMAwYMB+FC2G8TabxY3/W+OISpLEcfq5fC7R2LUl99+WVXqKYD4Xcsayc+2q7yIK2azakgYgJGWuP05f3daNEiJPOi7TBgACB4MwIdqrJyjdpZFTf+bCIRKZLRjHePe14/sXC+/7fKorDgApu52b86cplwUpNFYPbf0Oj0pz0PEAMiFP4ltlTsS4GuJaQ6+D8KHMAAQPBiAo+pTY4cXNf0v08hpPv6yM13Wustus17kNRRw7bBefzl27dv2ARRxx3xWDRkDcHh/Yh7b77yeL00lkmfnvd3ey4QBgODBAAyoOvdbakeZZ8SYVbUlv0z18W8+d2fQIX7TyqsBOLBTr8P1S7K3zx2/trdLAPV6vIaKAZDreZOQTbC53gHlhsG8swpZhAGA4MEADKixcrbaUTZWz/P6/OqsK8099TZkGjrE42Z55PU2wJ0bnbdn7daf6GmuWVB6nQ7WUDEA6vXNOW/u0/qTIuI2YAAgeDAAA1I3DEUS6e2H3p5tzpm/v0d9vmxqC3GTWS/yaQCkg9cQw5c1zdqC7+ppPjGj9DodrKFiAORSpUQ67ewzXpYLhppP3+K9TBgACB4MgAQi+Uyk7hqXq0M9XvvafOE+tbMS6ssnld4+ruXTADSfvV1Nu7HqpsxpignU22hi6XV6Uj0MEQNgi78hwYKypCfRHdW2emCM9zJhACB4MACy8e7PamchIUV9Pds2rSyUdveAZ/k0APVHJut1apZSMraV7NFQkD0CZdfpYA0VA2AzV1mPutYWfk9Pb77/uBkYAAgeDED8IXrpYbWzaDx+g6dn96lHlQSJZtY/+ozS28ZLvXs0ANX531HTbr34UOY06w+OU9Os3PCl0ut0sIaKAZCb+bRZuNrS32Zrq3v/mlxoOdEz4ePey4QBgODBAOhHkEzn4+mmN9uucglWUpl6Yent4ks+DYAJB6ycqGjvyX6qo7FmfnJm65UgT2YMFQMg6ry7I/mn8OSNGdvq5uS2j013EeXBAEDwDHcDUJnyBbWDFCoTP+Xl2e1dm9Tn5tmoNpTk0wCY+t33RnLisq9j/LnZ8qvcLmdmagKo08EaSgZAjlEmNtcbT2dre+UegOa6xYWUBwMAwTPcDUBtya/UDtJXwJCBK1CTpzw7tQ8KDfRTu+XHaj3IpjrXz/RtAJoblqrpZ7o5cdw5cSXUEtNKcwJArmnWkKUo13VchAEwkSsV0o7ea4t/qiRSifpHn5kuT2PPNgYviSx3QPQiDAAEz3A3AHIeXKO15XE/z10xTX1u0VHlTkUDYNtY1tq6JnVato9cdcal1jQwABaNHaFefpV2k2X9rj8mptE5fCC9kehRGAAInuFuAFrb1umdl6ez3ba7yuVoYGPFVGeybSQ8FQ2AlFlmcDTkbL81nTEj1OWE1vZ0t9VhAFLk9+lFiemkXWaR/R2JeVlV3H0NGAAInuFtAPrMVLtG7bafu3/uqNOtsepdI9OiWp5OSQMw0n4csPPBvqgyRbtQqc+sGWukvYoZA2CXWRpT+gF5lpoX7aRGs1bodd4YAAie4WwAKpPPVzsu00HOvMz9c2/4svW5rhmuBsBMK1vuBZArleWM/+Bd/JVrP2f9gLZefiR1XjAAKfO8dmFyYu3mwK2cg6fxx4yIGo9ep578KHL0L8IAQPAMZwNQnfN1teMSJEyv6+fW7tA3Hvpg2BqAkUeCwqS4ZKlzaG+cp6fMR9PcJWC5Ulhuj6xM+nT69w0DkE7jzlWPBJq67z9olu+kfHI6Q6731Wi/s9X6G3AtDAAEz3A2ALYPsUzT+yhn/f5R6nN9MJwNgKlzE2pWCfecEYkdkWbj3/HCAGSoq5mXxR/19zO3Szdk4191+iVefsuaMAAQPMPZANjWh82owUM5zVRlwQx3A2Da+/7R6vGwtMjFUXkCNGEAMtbX7K+ZWZlekE2gPpbx0ggDAMEznA2AxIPXaL2+yks5Gyvn9NSp5QEDMKDqzMutJzCSkGlmMW95j5FhALJL9uk0Nz0QZZ696bSj5vP3eAvilUYYAAiekAyATMnXlv6muxb/zPnz5IKRxOfFynoBSernzrxCfa4P2cLUym1ral3MvtJ9PcQfH+2ZlQnneXvXqnO/ZQygWWtW9geYtebNj5mz5bI23csz5WOk1nFsEIp+x7PsYUgs19QL9XLN+Erv5YjTkCOC7f3b1O++HNdsrFlQypT/YGEAIHhCMgAIlaJx55iZAbkhrnbLj8zdD/LhlNFn6XlDJ0ku8pHlAWknieZo2is2qD4NYx5hACB4MAAIIeReGAAIHgwAQgi5FwYAggcDgBBC7oUBgODBACCEkHthACB4MAAIIeReGAAIHgwAQgi5FwYAggcDgBBC7oUBgODBACCEkHthACB4MAAIIeReGAAIHgwAQgi5FwYAggcDgBBC7oUBgODBACCEkHthACB4MAAIIeReGAAIHgwAQgi5FwYAgmfTj/75Sxt+9M9rEEIIuZP0rWX37wAqsy7+yBWzL/rHCCGEkDtJ31p2/w6gggFACCH3wgBA8GAAEELIvTAAEDwYAIQQci8MAAQPBgAhhNwLAwDBgwFACCH3wgBA8GAAEELIvTAAEDwYAIQQci8MAAQPBgAhhNwLAwDBgwFACCH3wgBA8GAAEELIvTAAEDwYAIQQci8MAAQPBgAhhNwLAwDBM+PbH/1fMy75h79DCCHkUHHfWnb/DgAAAAAAAAAAAAAAAAAAAAAAAAAAAAAAAAAAAAAAAAAAAAAAAAAAAAAAAAAA5RFdc/rf9o857e8RQgi5k/StZffvACof/PVfr+gfeVqEEELInaRvLbt/B1DBACCEkHthACB4MAAIIeReGAAIHgwAQgi5FwYAggcDgBBC7oUBgODBACCEkHthACB4MAAIIeReGAAIHgwAQgi5FwYAggcDgBBC7oUBgODBACCEkHthACB4MAAIIeReGAAIHgwAQgi5FwYAggcDgBBC7oUBgODBACCEkHthACB4MAAIIeReGAAInhANQG3pb6L6/aNO1F1/KD1fhWvU6VF1+qVR7dafRPV7/zpQD/eNjGq3/yKq3nxVVLn+i/G/6ys/nz2qOvdbJ7d3rMo1nyisnis3fDmu1/+K6nf/aeD5d//5SD1/O6pM+HjpdZRZo8+IqjdeFtUW/8y8M6ZM8TtUu+3nUXVe/O5Mu6j8POYt18zLTdsc/65I20l5pS1Lz+MRYQAgeEI0AJ0DO6PBdA6901OajUenRI0VUwtVrs5ozAjzEWq9viqK6pWT6uGkeqkeilovP2I6xJA6vyxqrr+ja9mqN37V43P7jLFqvfhQ1KkdtlRyO2rv2xY1n7k1qs64tPT6StT4c83HsLXtmShq1uzvTv+BqLnp/qi26IdR6EaydsuPo9bmFVGn3q+XKW5L83tY9IPS84wBgOAJzQDIqLbrD7tHAyCdeNHIxzx9HvvMCK1zeH/u53XefdOM+Mpuw6zqHNzVtTy+DEB1ztej9q5NeWs5ar22Mqpc92+l19sxxcavvnxi1Km8n/vdae/ZYmY7Si/L4LaKDVf7zY25ytTa/uyRWbJy8o4BgOAJzQA0Hr+he7d7KhuAeOTW2vK4s+c21y0eMrMB1Zu+kVgOHwag/uC4+MvQ6LmO5WMro9Ky668y8VPmQ+eE+DfSeGJG6WU6KpmhsY34rUWqHopqC79XSv4xABA8IRmAyqTzzQ+26w/5VDUAY0e468CPo/nCvaW3ZxppZXdtABqPXOu2khtVM5tQ2u9lwsej9u7NbsskxVo9t/T3ojr/6vglrjsqUMXsMym6DBgACJ5gDEA8YpU1viROVQOQtP7tAllSKL1dFZnRuIJLA1Bb8stIpu9dY97LceeUUn/a76XHUpnRd1nvhRkIfLDPbYne31PcptIjwgBA8ARhAOJRsGxGUn/Ap6ABkDVXK81a1Nx4l9kYKKMi2bAlH872rhfsf1uvRJXrPl9u2yao/sBYa5u4MgCVyZ+NOpX31GfJf2+sXTCwm3zeVWa3fHPdbWb0aENmFoquv9odv7LmS6bPpQz1u/5oTo2Y0yTLJ5n1fuvfHj4QVSacV8q70Xz+Hmv+jpFhOUfMdpHlwABA8JRqAOJRv3RK7f3b7R3SKWgAzG5thfbbL0WVaz+X+Pey49tWrhCmc4+XfNRlE10aXBmA5oal6nNk/0XSUT/ZhCbvnoaMVoveRd/e+7pepvjdShzxxr+7xmPTrPVff/ia4t+PmZdb3+n2jvXGCFcmfdr8jcwYyH6M9s7n9QK1W+a4Z1FlwQBA8BRqAMadG3eoXzHTsc2nFyXu/u5Grwag9cbTztU5/G5ifmUUo+WnMvUCtaOTo5CyOdBWLjneqNZbPLKVGZaiO3KjMWdFlWkXmyNZsrnM2kEPwoUBkPPu0vEn0dq6xpwt19KQ0bM1rzMvK6xeq7OvVPPS3v1KXKYzrenIb1DDvIMFGxuZ7dJobnogeYNr3I62ZRGZESmqLBgACB7fBsB0wA7o1QA4L1c8kkiaHu68v9saPKbx+HS1vKnXYOOO3makqvO/U2jdyHFEF7gwAI01NyemL1Pk2gzL8RLDp1HkaFniEaj1Nvtr6d7h8R+zHh2s3PClwsol+ZGNlYntJTMtlv0WsmzR6T+YnEbtcGyIzy6kPBgACB4MQA7FH12Znk/IaVRb+H1rGjKNmVjW+IOeZeTVeGqWWneNFdMKrZ9gDEA8IpRgN0k0n709dVr1h8areTVHLwuq3/a+NxLzIfENsqTVfO5OtVwSEbGoctWW/lbNS9r32PZ7kP0dRZQHAwDBgwHILq2DSTfF2BePRD5ITuPpW7J1nIt+oNadRLsrsn5CMQDmKJmWfoZpe1lj1mi++GAx9RuPgLWlo6xmTzYIquVau7Cw90am9xOJy3x0zd8mCdKknfhoPreskPJgACB4MADZVJ33n4kdsJmiTLFub6uT2rLfZavjqReq6bXeWFtoHYViABpr5iemLRtPs9XxBSbEbJJkU10h758SOEnIGvSmOvebanpFxpOQpbPE9tqzJeM7uCMxLflvRZQHAwDBgwHIIJn6f2drYh7r9/wlVTqyRKCRNbhMZeIn1fTab79caD2FYgC0ZRbbJs1QVbvzv9U6q0y5IFN6silXo/Xqk4WUS46ramRdYmluvFtJrWNODvguEwYAgsf7KYCxZ5sp6jTSdmuHYADqj0xOzF97z+bU4XcHgtIkk/XsfmXKF9T02m+9WGg9ySxJmvaWfGn0ZADittAu+ZEb8sp+n3K9g3L0M5GOOXmRqa1is6nR2vJEIeWqLf6pmo+05vpYPVn2bBRxWRAGAIIniEBAR6QF9SjbAFQmf0Zdt0+z8e9Y5xR3ZhpZI5ZZO/Gtq0tv226yxQPoxQCYUxpa2gFefJNGajjjVj1zerIhTqOomZLGo9ep+agt+K7TcolB8F0mDAAEDwYgnbQNSq3Nj2XrnG75kbqenO0WwdPMVcAarZceLr1tu8mnAbBOlU+9sPTy5yrXHb9OfG8kmmbW9OoPjFHrKeuG1Lyynf+XeBJZ0pMNnmq5MpwAySsMAAQPBiBFZzJPAsEk7SruxJ3NFaXWm+1cuJxaKLttu8mnAWg8eWNywp12qkA5w0FiDjXEIBSSj61r1HxkXdqQOBwaRSxtYAAgeDAAdmmbyYraJKXmTzkXLkh8+7Lz2E0+DYB6yVKj2vVvZKe/rLE31y8xszoS/EdmfmQUXF/2+8Ivk/Eu2SehBM0xbXDTNwrJixrauFHJkWafelyyiI2xGAAIHgyALuuO/bnfLLXOBmYnFOT8dMpod0XLpwGQEV5ilVQPnViHs792ZARquS2w3TRT7ZXrv1h63blQbYnlQiExSgWFkZbLhxLby9y1kCNNZc+O3A7ou0wYAAgeDIAu7dY9uXCl7DprvfaU2oe3d2woPY/JefdnALQTBsd/UBqPXZ/9oqj4PW2smFp6/fUqGQWrxSxw74jcXJlE1pgNRyUf+cR3oPK+9zJhACB4MADJknj8GlmDrjjP36IfRrZRa/3+0aW3a5J8GoDOe8lBZToH3zL/prFqrvp8G+Zsesqjn6HJFgFQKCpkrsjHdL0Ws0Ou2fZdJgwABA8GQOlAEuP9R2bNssy6kk1O2gjH1Nnh/YVdfJJHXg1AvT+57fZts56cSEtREQCdvjvXfs4sg2jIvpLCzM2YEXpedm7Mla7E5kim4718GAAIHgxAd8k5cY0izhEnKu64bB9Pk8cS7nPPIp8GQM7EJ75Lhw/E79Nea/2lIn5n5XresusytWJDqC1rHUUu5ikqT7K5UiPvMpZm4AXbzYK9CgMAwYMB6K7WK8q94o1qqTvC1R3uRzvNlHfClymvBsC2oc8h7TefK70uU0mMo/ZeH2EgcFT62yh7lcxIqPnZti5XujajU5n4Ka/lwgBA8GAAunRIUy9QwxKXF0e+z3rmfyCDtd6v0i1A3gzAmLPsdXQ8srv/xYfMno/q9EtM1EcZ1UssAdsxuWN5DX0WYPQZpow2ZHOc3KZXZN4kyI+GHMfMk64YMw0Joe2zXBgACB4MwMnSbpETijobfYLi0Vtzw1I1X0dqqtDp217kzQCMPzdFPR2preohNSyw3MvQ3vuqNZ2gLxcaMyIe+T9qr4zYCGUNuetCVgOQM5R1a/uzaroYABj2YAAGady56gap9jslbP4be3bU2vK43nkfQWKql92OaeXLANjWlI9HRv3W9OIPlHamXCjiXHneutACWX1YgHZUv/vP5eTRtgSwdU2udG3lrkz6tNdyYQAgeDAAJ8p2PKrx+PRiO8eJn4zab25U83SkhqL68omlt2EWeTMAE85LUV/x6/b6qtRpNlbOsaaX9Spe7+9O/GFNM3sx8PH/U3n5tBi2vPE25PSABpsAYdiDAThRst6oUZ1+aXEdo4w8392h5megctpD8npbf3sA9GNlR5FIeKnbwoxS9Y2FcgFR2XV6VNWZl5vfjJX4NyfXU5eaX0t7tbavz5Wuft00xwABMADHyXTyWkCSva8VVhfVWf9uzvFbadWj2rLfld52eeTvFECfvd7kQqBx52ZKV9pfo758Uul1at6d+VdblyxMFdT7zc2UZedXpP7ucp6ykJMwiTSzX52cVRgACB4MwIdS71qPipv+l01pqTrw/gPmLoCy2y2vvB4DbDfVtE2gm4xp2jZhyjJB2XUqFz/Jx8367ry321yZW3Z+j7VXQwkFvGtTrjTbe7Ykl59QwAAYgBM6DMt6qRwR852H6s1XqXHRj3WK72yNKtMuKr3NepFXA2CpwzzXwTYenaKmKbcIllmfErpX+w0de3fiD6ocdSy7/Y+XmNnE/Oaceesc2JmYpgSC8l0mDAAEDwZgQPKxUTvNnBeSZMrDnP9QQ9geRdZEJRRw2e3Vq8q6C0Bobrgzc5qyxq+mufGu0uqytugHqT7+rc0rCrvhL4vkdE0SnffezvcOKDcMmkBZnsuEAYDgwQAMSG53Uzv3Z2/3+nwTnz1FeNrWq08GHd8/i7zeBhiPcjUk1kPWNGuLf6a/I2sXllKPsjHVFtvf5O+F+0xAoLLbveu78MbaxHznna7XlkLyzABlFQYAggcDcKQD2q6fGfa6U3rMWfqGpaMduASbGaK3z3Wtc48GQDp4jTzr9XL7o5rmkzMLr0M58qhNdR/L2+p5UZHhfbOqufHu5My3W9nTtESD9G3oRRgACB4MwJFz49qmsU7ba+z/xsrZtv77yJR1uB14Hvk0ALb7EqTOs6Zpptm1NB+5tvA6bD63zPruNJ6aVXpb22TbXyHxMLKkJ1H+NIq4KAsDAMGDATjNnAfXkPPEvp5dnf019d4BwUxXnkIj/6PyaQDkml6N5tOLsr8nssNeoX7XHwqtPznCZ4tN0Hwu+16HMmQ2MGrvQsa7Fmy3eYqZ810mDAAEDwbgNLN5S6Oxaq63Z0uUMw2Z3pUZirLbxkvZPRqAgY9jMmY9PGOaEmxJzW+Rx+piQ9jem7xxTmi//bKZCi+7ndNIoihqZF2Cs0X0LOIUBAYAggcDcFrUObhL73wW/8zLc6vzv6M+V5YeSrl4qCD5NABy1auGXBWbNU01HHCrXuj1y3Lhk4pcWX39F0tv4yzSNsHKEkGmtnpqVmJaYqqLKA8GAIJnuBsAuRDEhq/rUSUWvYZsjCq7TXzKpwEQdQ6+lZx4vZJ5dNx67anE5Np7Nhdad/I8jRCCEmV+H5TrirPu2tdCehd1cyMGAIJnuBsAuQ1OQ84S+3huZdL5+tp/PKKUo4FF1X117rfMSYQkNVZMc/5M3waguekBNf3awu+nT2/U6Wp0xsaaBfY6nnmZXscpl5qqMy7V39nK+1Fl/McKe3dk/V4rV/2+UenSWfY7tUyp98GMPkONp1G7/ReF1AsGAIJnuBuAxhMz1M40713kNtUfGKs/95VHC6372i0/VvPj49iUbwNQu+PXeplig5A6LcsGwOrcb1rTkH+j0Xrp4XTvrDK9bcr1zK2Fvjv1e/6i5qfx5I2p0pHgVtrZ/dqCq9O1lWbqZebH8y2AR4UBgOAZ7gbA9hHytQFQjIX63JWzzU5lV7KNnk5FAyAdvYwcE2m34tH0V1Kk1Re1d2xITiZlqFpXBkCLcS/ItdDO3p0UH11XBkDUfOHe5PqRIFhp3itt+n/9HV5+z92EAYDgGe4GQAsXKtSW/sbPc5XY5z6wRQ88JQ1ALDFwGrKTvn+8fiugnBnXSHsNsBMDMHaE9aIjl3Rqh615cmkAqrOujBKPNnbasSH5rv4em9F/8t+nM3xuhAGA4BnOBkCC+9jIev441XMtQUp8MFwNgASQ6fQfVJ8jl0BJON2T/n70mQMhorWrandujNIGaHJhAKpzvq6m4ZqiDYCo+eKDyfmpHkrcuyEff8lvEkVt/jsqDAAEz3A2ANWZV1g7QNms5/q5tqAnPhiuBkBkOxNuiD/yra1rosbquSaIkEwV2+5mkE2BWY7auTAAsqGuSMowAOZeDMsMmRiv5rrF5nhgc91t1rsfOh/s8/Jb1oQBgOAZzgbA+iFuVCMf4XdtAWV8MJwNgEg+Ek5p1s3dAFny4MIANB6f7rYcFsowAOZ9XPTDVLcbpiJuq+r8dBsIXQoDAMEznA1A/aEJar/ReXeHl3JKzPiiGe4GQIyc7I53Qefwu1F13lWZ8+DEAKyZ76QMaSnLAJh3cskvjQnviXolqi3+qZffsU0YAAie4WwAGmsXqH2H7Cb2UU7bMS4fYACOlHPJr8x0cC46bbOOLMGj8jzbhQGQS6GKpEwDYOps5hWpbsrshtzhUeSmv8HCAEDwhGQAZGQsm666qf7gOPcfg8U/S3yeSJYIfJRTpo615/qQ7R74yrSL9LpY9EP39XDHr9Vn5v3QWjVmhFmGMfcwpNhR396/3VynW7nhyz09V9a2e33f5N8U+d7IkUJbniTAkZZGntmSEzTqdPOuyB4NCZCl0qybCJsDwX7KvT0TAwDBE5IBQKhwjTvX3MgoUejqD4wZ+Og9fI0Z1cqRsyIujUFZ2uscE7VSNnbWl086ZlLk/zfBmCwzXUUKAwDBgwFACCH3wgBA8GAAEELIvTAAEDwYAIQQci8MAAQPBgAhhNwLAwDBgwFACCH3wgBA8GAAEELIvTAAEDwYAIQQci8MAAQPBgAhhNwLAwDBgwFACCH3wgBA8GAAEELIvTAAEDwYAIQQci8MAAQPBgAhhNwLAwDBgwFACCH3wgBA8GAAEELI1wSg1AAAAkRJREFUvTAAEDw7fv3RS9741f97CSGEkDtJ31p2/w6gMuvij1wx+6J/jBBCCLmT9K1l9+8AKhgAhBByLwwABA8GACGE3AsDAMGDAUAIIffCAEDwYAAQQsi9MAAQPBgAhBByLwwABA8GACGE3AsDAMGDAUAIIffCAEDwYAAQQsi9MAAQPBgAhBByLwwABA8GACGE3AsDAMGDAUAIIffCAEDwYAAQQsi9MAAQPDMu+Ye/m3PhP/1fhBBC7iR9a9n9OwAAAAAAAAAAAAAAAAAAAAAAAAAAAAAAAAAAAAAAAAAAAAAAAAAAAAAAAAAAAAAAAAAAAAAAAAAAAAAAAAAAAAAAAAAAAAAAAAAAAAAAAAAAAAAAAAAAAAAAAAAAAAAAAAAAAAAAAAAAAAAAAAAAAAAAAAAAAAAAAAAAAAAAAAAAAAAAAAAAAAAAAAAAAAAAAAAAAAAAAAAAAAAAAAAAAAAAAAAAAAAAAAAAAAAAAAAAAAAAAAAAAAAAAAAAAAAAAAAAAAAAAAAAAAAAAAAAAAAAAAAAAAAAAAAAAAAAAAAAAAAAAAAAAAAAAAAAAAAAAAAAAAAAAAAAAAAAAAAAAAAAAAAAAAAAAAAAAAAAAAAAAAAAAAAAAAAAAAAAAAAAAAAAAAAAAAAAAAAAAAAAAAAAAAAAAAAAAAAAAAAAAAAAAAAAAAAAAAAAAAAAAAAAAAAAAAAAAAAAAAAAAAAAAAAAAAAAAAAAAAAAAAAAAAAAAAAAAAAAAAAAAAAAAAAAAABk4P8DmdSTtLDNiKkAAAAASUVORK5CYII=;" vertex="1" parent="8">
                    <mxGeometry x="454" y="43" width="144" height="144" as="geometry"/>
                </mxCell>
                <mxCell id="108" value="Route Table" style="text;html=1;align=center;verticalAlign=middle;resizable=0;points=[];autosize=1;strokeColor=none;fillColor=none;fontSize=14;" vertex="1" parent="8">
                    <mxGeometry x="488" y="160.69" width="90" height="20" as="geometry"/>
                </mxCell>
                <mxCell id="125" value="TCP Postgres" style="text;html=1;align=center;verticalAlign=middle;resizable=0;points=[];autosize=1;strokeColor=none;fillColor=none;fontSize=14;" vertex="1" parent="8">
                    <mxGeometry x="685.31" y="70" width="100" height="20" as="geometry"/>
                </mxCell>
                <mxCell id="128" value="Retrieve SSL" style="text;html=1;align=center;verticalAlign=middle;resizable=0;points=[];autosize=1;strokeColor=none;fillColor=none;fontSize=14;" vertex="1" parent="8">
                    <mxGeometry x="344" y="210" width="100" height="20" as="geometry"/>
                </mxCell>
                <mxCell id="143" value="" style="image;html=1;image=img/lib/clip_art/computers/Database_128x128.png;fontSize=14;" vertex="1" parent="8">
                    <mxGeometry x="864" y="70" width="95" height="93" as="geometry"/>
                </mxCell>
                <mxCell id="11" value="" style="shape=image;verticalLabelPosition=bottom;labelBackgroundColor=#ffffff;verticalAlign=top;aspect=fixed;imageAspect=0;image=data:image/svg+xml,PHN2ZyB4bWxuczpkYz0iaHR0cDovL3B1cmwub3JnL2RjL2VsZW1lbnRzLzEuMS8iIHhtbG5zOmNjPSJodHRwOi8vY3JlYXRpdmVjb21tb25zLm9yZy9ucyMiIHhtbG5zOnJkZj0iaHR0cDovL3d3dy53My5vcmcvMTk5OS8wMi8yMi1yZGYtc3ludGF4LW5zIyIgeG1sbnM6c3ZnPSJodHRwOi8vd3d3LnczLm9yZy8yMDAwL3N2ZyIgeG1sbnM9Imh0dHA6Ly93d3cudzMub3JnLzIwMDAvc3ZnIiB4bWxuczpzb2RpcG9kaT0iaHR0cDovL3NvZGlwb2RpLnNvdXJjZWZvcmdlLm5ldC9EVEQvc29kaXBvZGktMC5kdGQiIHhtbG5zOmlua3NjYXBlPSJodHRwOi8vd3d3Lmlua3NjYXBlLm9yZy9uYW1lc3BhY2VzL2lua3NjYXBlIiB2ZXJzaW9uPSIxLjEiIHdpZHRoPSIxMDI0IiBoZWlnaHQ9IjEwMjQiIHZpZXdCb3g9IjAgMCAxMDI0IDEwMjQiIGlkPSJzdmc3IiBzb2RpcG9kaTpkb2NuYW1lPSJhd3MtczMtYnVja2V0LnN2ZyIgaW5rc2NhcGU6dmVyc2lvbj0iMC45Mi4xIHIxNTM3MSI+CiAgCiAgPGRlZnMgaWQ9ImRlZnMxMSIvPgogIDxzb2RpcG9kaTpuYW1lZHZpZXcgcGFnZWNvbG9yPSIjZmZmZmZmIiBib3JkZXJjb2xvcj0iIzY2NjY2NiIgYm9yZGVyb3BhY2l0eT0iMSIgb2JqZWN0dG9sZXJhbmNlPSIxMCIgZ3JpZHRvbGVyYW5jZT0iMTAiIGd1aWRldG9sZXJhbmNlPSIxMCIgaW5rc2NhcGU6cGFnZW9wYWNpdHk9IjAiIGlua3NjYXBlOnBhZ2VzaGFkb3c9IjIiIGlua3NjYXBlOndpbmRvdy13aWR0aD0iMzg0MCIgaW5rc2NhcGU6d2luZG93LWhlaWdodD0iMjA1MCIgaWQ9Im5hbWVkdmlldzkiIHNob3dncmlkPSJmYWxzZSIgaW5rc2NhcGU6em9vbT0iMC4yMzA0Njg3NSIgaW5rc2NhcGU6Y3g9IjUxMiIgaW5rc2NhcGU6Y3k9IjEyMDYuMjM3MyIgaW5rc2NhcGU6d2luZG93LXg9Ii0xMiIgaW5rc2NhcGU6d2luZG93LXk9Ii0xMiIgaW5rc2NhcGU6d2luZG93LW1heGltaXplZD0iMSIgaW5rc2NhcGU6Y3VycmVudC1sYXllcj0ic3ZnNyIvPgogIDx0aXRsZSBpZD0idGl0bGUyIi8+CiAgPGcgaWQ9Imljb21vb24taWdub3JlIi8+CiAgPGcgaWQ9Imc0NDk2IiB0cmFuc2Zvcm09InRyYW5zbGF0ZSgtMC4yOTQ5ODIxNSwtMC4yNjU0OTY5MykiPgogICAgPHBhdGggaW5rc2NhcGU6Y29ubmVjdG9yLWN1cnZhdHVyZT0iMCIgaWQ9InBhdGg0NDkwIiBkPSJNIDQwOS4xNjYxLDI0OC43NTg0MiBDIDIyOC4yNDkxMSwyMzcuNTk3MjQgNzIuNTk0Nzc5LDE5OC44ODY0IDM2LjU5MjcxLDE1Ni4xMDAzNyAyMS43ODk4MDMsMTM4LjUwODEyIDIyLjE1MjMzNCwxMjUuMjI1OTggMzcuOTI1NzYyLDEwNy4yNjEwNCA4OS4yNDM4NjEsNDguODEyOTUyIDMxNS4wMDEyOSw4LjIxMjU1NDMgNTU0LjUyMjAzLDE0LjM1NTk0OCBjIDIwOS4zNTQ1LDUuMzY5NjcgMzY3LjczNjg0LDM3LjQ1NjM2OSA0MjIuNTgxODUsODUuNjEwOTA3IDIyLjE3NjU0LDE5LjQ3MTI3NSAyNi40ODY4MiwzMS43MjY2OTUgMTYuODc4OTEsNDcuOTkxNjI1IC0yNy43NjM3Myw0Ny4wMDAyNyAtMTc1LjY1MDc2LDg2LjQyMDM4IC0zNzIuMTMyNDUsOTkuMTk0IC02My43OTE4Miw0LjE0NzIxIC0xNTkuNzQ3MTMsNC44NzE3NSAtMjEyLjY4NDI0LDEuNjA1OTQgeiIgc3R5bGU9ImZpbGw6IzhjMzEyMztmaWxsLW9wYWNpdHk6MTtzdHJva2U6bm9uZTtzdHJva2Utd2lkdGg6MDtzdHJva2UtbGluZWNhcDpyb3VuZDtzdHJva2UtbWl0ZXJsaW1pdDoxMDtzdHJva2UtZGFzaGFycmF5Om5vbmU7c3Ryb2tlLWRhc2hvZmZzZXQ6MDtzdHJva2Utb3BhY2l0eToxO3BhaW50LW9yZGVyOnN0cm9rZSBmaWxsIG1hcmtlcnMiLz4KICAgIDxwYXRoIGlua3NjYXBlOmNvbm5lY3Rvci1jdXJ2YXR1cmU9IjAiIGlkPSJwYXRoNDQ5MiIgZD0iTSAzOTkuNjI2NTcsMTAwNi4zNTcyIEMgMzEwLjM3OTcyLDk5Ny43MTg1MiAyMjYuNjI1NzcsOTc0Ljc1MDE2IDIwNS4xMTUyMiw5NTMuMDE1MjQgMTg5Ljc3ODMsOTM3LjUxODMgMTgyLjc1MDEsOTExLjMwMDM0IDEzMS42NzQwOSw2NzkuMDUwODUgMTE1LjkyOTQsNjA3LjQ1NzYzIDg2LjgyMTU4LDQ3NS4xMTcyNCA2Ni45OTAwMzcsMzg0Ljk2MTEgNDcuMTU4NDkzLDI5NC44MDQ5NSAzMi4wNzU4ODEsMjIxLjU4NDYyIDMzLjQ3MzEyMiwyMjIuMjQ5MjMgYyAxLjM5NzI0MSwwLjY2NDYyIDE5LjEzNzA0Nyw5LjU0ODE3IDM5LjQyMTc5MywxOS43NDEyMyAzOC40MDI1MDUsMTkuMjk3MiAxMDMuNTQ1NTk1LDM3LjgwMDA1IDE3Ny44OTgzMDUsNTAuNTI5MTcgOTEuMTQ4MDIsMTUuNjA0NDYgMzQ5LjY5MjE4LDE5LjIxMzkgNDcyLjg1ODg2LDYuNjAxNDIgOTAuODg2MzgsLTkuMzA2OTIgMjA0Ljc3NjA5LC0zOS41OTU4OSAyNDUuMTQyODIsLTY1LjE5NTcxIDExLjM0NTEsLTcuMTk0ODQgMjEuMjYzMzYsLTEyLjQ0NTYxIDIyLjA0MDYsLTExLjY2ODM3IDEuNzU5NDYsMS43NTk0NCAtMTI3LjYyMDQyLDU5Mi4wNzQ2OSAtMTQzLjI0NjY2LDY1My41ODQ4MSAtMTYuNTIwNDYsNjUuMDI5NzcgLTI1LjY2OTUxLDgyLjM1ODU0IC00OC45MTA4NCw5Mi42MzkyOCAtNzUuNjY3NDQsMzMuNDcxMzQgLTI2MS45MjE1NCw1MS4xNDk3NCAtMzk5LjA1MTQzLDM3Ljg3NjE0IHogbSAwLjI2OTU4LC0yMzEuODAwNTYgQyA0NzUuNDY3MjgsNzU4LjU0NTU3IDUxNS40MTczNCw3MDQuMjA1OCA0OTcuOTI0Myw2NDEuMjE5NDkgNDg3LjcwODc3LDYwNC40MzY4NCA0NjAuNjY3MDUsNTg3LjYxMzg4IDM3OS45MTY1Myw1NjcuODA1NSBjIC0yOS4yNTUxMSwtNy4xNzYzOCAtNTYuNjk0MDEsLTE2LjIxNDkyIC02MC45NzUzMywtMjAuMDg1NjMgLTE4LjcyNjk4LC0xNi45MzA5NSAzLjk4NDI5LC00MC4yOTk3MSA0Mi4yNDk4NCwtNDMuNDcyOTkgMjkuMDAxOTYsLTIuNDA1MDYgNTYuOTE3NTEsNC4xMDI3NyA5MC40MDk5MiwyMS4wNzY4OSAzNy43NDg0MiwxOS4xMzExIDM3LjgzNjMzLDE5LjA3MDMxIDM3LjgzNjMzLC0yNi4xNzI2MiB2IC0zOC44ODI3NiBsIC0yMi43Nzk2NiwtNi43ODU3OSBjIC02MS4xMTg3NiwtMTguMjA2NTcgLTEyOC43MDc4NSwtMTkuMDQyNjYgLTE3My44NTU4OCwtMi4xNTA2MSAtOTcuNDYzMDksMzYuNDY1NjEgLTk2LjE4Mzk1LDE1NC4xOTExNiAyLjAxNzExLDE4NS42NDM4MiAxNS4xNjIxNyw0Ljg1NjI2IDQyLjU2ODcxLDEyLjAyMDYxIDYwLjkwMzQyLDE1LjkyMDc4IDUzLjI4MDE3LDExLjMzMzcyIDY4Ljk5MTk2LDMxLjA3MzAyIDQxLjE5MzQ0LDUxLjc1MjgzIC05Ljk1MTUsNy40MDMxMyAtMTguNTAxMDksOS4xMTMyOSAtNDUuNTU5MzIsOS4xMTMyOSAtMzcuODk4MzcsMCAtNzAuNTgzMTUsLTkuMjQ3MTUgLTEwMC45NDMwNCwtMjguNTU4NzkgLTEwLjk0NzkxLC02Ljk2Mzg1IC0yMi4yNDU3NCwtMTIuNjYxNTUgLTI1LjEwNjI4LC0xMi42NjE1NSAtMy43Njk1LDAgLTQuODU5MTgsMTEuNTY3NzMgLTMuOTU5MTIsNDIuMDI4ODcgbCAxLjI0MTg3LDQyLjAyODgyIDIyLjk4NTIzLDcuOTM0NzQgYyA0OC4xNjQ0MywxNi42MjY4NSAxMDUuNTU0OCwyMC4zNTM4NyAxNTQuMzIxMDksMTAuMDIxODQgeiBtIDM0MS4yMDIxNiwtNy4xOTI2IGMgMzIuMTMzMTYsLTE0Ljg0MDg5IDUwLjgzNzg2LC0zNS4wMTc5NCA1OS4yMzI3MSwtNjMuODk1MTcgMTIuMDY1NjcsLTQxLjUwNDUgLTAuMzY3MDgsLTc4LjA4NTk0IC0zMi4wMTE1NCwtOTQuMTg4MDMgLTkuMDA1NTYsLTQuNTgyNDMgLTE3LjI0MTI1LC04Ljg3MzggLTE4LjMwMTU3LC05LjUzNjM3IC0xLjA2MDMyLC0wLjY2MjU4IDUuNTM3NjMsLTcuMzU4MzUgMTQuNjYyMDcsLTE0Ljg3OTUgMTguOTkyMjUsLTE1LjY1NTAxIDMyLjU5MTA2LC00Mi4yMDU0MSAzMi43Mjk4MiwtNjMuOTAxODMgMC4xMzE5MSwtMjAuNjIwODkgLTE0LjM3NDc5LC00OC4zMTk2NiAtMzEuMjk3OTUsLTU5Ljc1OTgxIC0zNS41NTM2MywtMjQuMDM0NDIgLTExNS41MjAxMywtMjkuMzQ4MDIgLTE4Mi4zMDE2OCwtMTIuMTEzNTYgbCAtMjkuMjg4MTQsNy41NTg0NiB2IDM4LjUyMzM0IGMgMCwyMS4xODc4NCAxLjcwOTYxLDM4LjUyMzM1IDMuNzk5MDksMzguNTIzMzUgMi4wODk0OCwwIDE1LjI2OTE0LC01LjI4NzcyIDI5LjI4ODEzLC0xMS43NTA0OCAyMS42NjkwMSwtOS45ODk0NCAzMS40MzQxNiwtMTEuNzc3NyA2NS4xNTc2NCwtMTEuOTMyMiA0My40Mjg1OCwtMC4xOTg5NiA1Ny45NTg1Myw2LjMzMDE2IDU3Ljk1ODUzLDI2LjA0Mzk3IDAsMTkuMDI2OTkgLTEzLjAyMTg5LDI4LjMwNDUxIC00NS42MjAxMSwzMi41MDIyNiAtMTYuNjcxNjcsMi4xNDY4NSAtMzMuNzI5MDQsMy45NjcyNSAtMzcuOTA1MzEsNC4wNDUzMyAtNi40OTQ5NCwwLjEyMTQzIC03LjU5MzIyLDQuNTM1MDMgLTcuNTkzMjIsMzAuNTE0ODQgdiAzMC4zNzI4OSBoIDI5LjcyNTQyIGMgNDguOTQ0MiwwIDY1LjczMjIxLDkuNzQ5NiA2NS43MzIyMSwzOC4xNzM4OSAwLDE2LjM5NjMyIC0xNy44Nzk1MiwzNC40Nzk4MiAtMzcuNzgyNjUsMzguMjEzNjkgLTI2LjA5NjMsNC44OTU2NyAtNjguMjQwNjIsLTAuODY2NDYgLTk0LjU5OTc3LC0xMi45MzQwOCAtMzcuMjAyNDQsLTE3LjAzMTg1IC0zNi44Mzc5MiwtMTcuMzAwODMgLTM2LjgzNzkyLDI3LjE4MzMgdiAzOC41NjkwNCBsIDI3LjExODY0LDYuODk0NDMgYyAxNC45MTUyNiwzLjc5MTkyIDMxLjAyMzczLDcuODAwOCAzNS43OTY2MSw4LjkwODU0IDQuNzcyODgsMS4xMDc3OCAzMS4xMzIyMSwxLjUzNTIyIDU4LjU3NjI3LDAuOTQ5ODkgNDIuOTA5NiwtMC45MTUxOCA1My4yNDA3NiwtMi42MDc5OSA3My43NjI3MiwtMTIuMDg2MTkgeiIgc3R5bGU9ImZpbGw6I2UwNTI0MztmaWxsLW9wYWNpdHk6MTtzdHJva2U6bm9uZTtzdHJva2Utd2lkdGg6MDtzdHJva2UtbGluZWNhcDpyb3VuZDtzdHJva2UtbWl0ZXJsaW1pdDoxMDtzdHJva2UtZGFzaGFycmF5Om5vbmU7c3Ryb2tlLWRhc2hvZmZzZXQ6MDtzdHJva2Utb3BhY2l0eToxO3BhaW50LW9yZGVyOnN0cm9rZSBmaWxsIG1hcmtlcnMiLz4KICA8L2c+Cjwvc3ZnPg==;" parent="7" vertex="1">
                    <mxGeometry x="48" y="340" width="90" height="90" as="geometry"/>
                </mxCell>
                <mxCell id="12" value="" style="shape=image;verticalLabelPosition=bottom;labelBackgroundColor=#ffffff;verticalAlign=top;aspect=fixed;imageAspect=0;image=data:image/webp,UklGRhASAABXRUJQVlA4WAoAAAAIAAAA4AAA4AAAVlA4IGwRAAAwTACdASrhAOEAPm02mEgkIyKhJJOJoIANiU3cGRJbWEiLgu4WZMnoPy39oux/5j8df2Dogab8ybnb/h+uP/G/9T2Ifoz/Re4R+rn60+tn+unup/cn1MfzL/N/tN71X43e9T+7eoB/Xv7l//+xq9A7y2/3e+Ff+1f8X9oPas//+sdsg/wfTMe4plxyf8n/DOfXsL+P+oX+MfzH/Ub2PqPmEe3n2H0g5pX4HqAcDtQA8UjQh9Wewv0rR6raXAwQtmD801zi+jOSfXMw/6KylVQVcuLJKewLPd9j/h0pPLNPEph+PbAV3K/rVSNCzr6SI7ZjDQnNU9o4trHR6Ok7g2b6fSQPavpW5H7mPaNIb/uP958ZD+HO7PJWfu/4k+k5+gxPItbc1IoMDlKvPaxGYkdAdcZ5eZ+ctZmXxdG4y4y/+oL7f87e1+77mfenlXdsNV0jtPKL/4dNCRSZzc7vptpU87ZWDnB5IUuxSFub+4dl6vEpJjWocKsN7MUkm6kILZogkw99x9SkZMr1fomQkG0WSmQt285WWChGtyve92FqVmKE7laXh2TSoUnlfPj/nV8vKXA3zeslKtmJwCJgsDFw5OW7W8wav7lrsfoyXb8Ic3m2RL9djg1XrTga9fPPMsjPloVe/pjR6khA1LvdqTZoewsPcNpjk9gAiv/nEMh6f7hJSliiXrwSyOH5VtA/1MHjfWyAGGXsL37XctaUz4zN1+41JAO4ts/m0gHVDUyEc4ZNkh8TCwf9FI2XaELnPKJbk+19KAKHi168zRbYNjMH7QwNvrAD/nHsJb+ZTgjqPllNxRKfc1mbnAAA/q/+v//1V3+Vd/lXdF3/of5YnTHQ5f00EHZspwEsFH9nvf3yHLKYJXcZovBUrd5rea5pJClYTJeGmGACd1bfgQQgjCVdJOYCuWbEWIdkpi2BZKY+lPDGnun8NKERvufkE0oWDIJUTB4He/2CeKvoslJJpvTrSXH/X8o/7xfjv6Ai9xHB0qkj6omyXVERKR7V33Cwx/LQUQRdQEUiaIKqZhBabH5Ccc2iZfpgoQ/XTM7YtPpnaK0kyEZkSghePOwtdAVyV2MEvy/TdQQAVBmmkLcSOBC5TN72knyMHZlTVoVBkrzqKUJ6a5MgEup/VYXwDERuFHh0q6x5aWluzzrhvWN4/FIo02YHB8vapAalH/SvW0r9+eEyjvN39rxkAK8os4ehCkSUiX8a5suCej8uM2LxrG87erBJssXHnC+8uNKhZPpXuHTpoK/f343I7T65e/p7LiiMhO/pR32cajJ99eOZiEWFyLC9cy08/HJaPQgzRZQ3dGVe7Fq7J6q8X1pwOvv1zdHV/Ql7WhSBFqGqLn4hYGm6v/00crLi4PYC30fyfZFq8zv1TNnckmoRwV4HgMGMJAnedmWj9jHDlYRbFJNr1nNGSzwf3j7vREK5yDi/Zc2RqzR1H/iLGlEH6exCcfF0H2bZczbtEONn6uhgEg6Qa88UNgb6tNc6eB9x0KSYs1MI6aKebFR2cpGDru8wkAzwb+LRvebNr0Zvuvs6sC6ZMKalkUTFWGiNXSYTpQ8dF4xV2QEWT2EBXXd/K/ldWgIrhEktq/qad485x1NIJp7Hjf+zQMA+TYq87yS+hWKPLVPM/9FlXd3puD+gs7OQAWNPyGjS+gtODTUcistwrDmSiO2Pgwx+ihBND/PdJdvhYRGVwgw/dSauQuJnRjrZPQprToXrF7u8SFA5a2bRMA3sGyZ+9Ps1f7nKpJPP2jkcSPILb9zyPIsinrTDQxe42yJ6kXwp/rh4QMLprr+TCVRIPW0+8BvO2z/SmtGXmia6HyfWjPg9R5nQae/sU3gsJJO47x6XhBjTxsNDnPneBEUi7A3QhL6Q5U55ATRVsmPR6kRATT1Fj51RyXz66Wr6JftWPdZ0u4CZ+SL1iicSlmIV7YZhx/E4kofTi5uMYIYgOPN54zzcglFjWKmeqXMN5dkT3ZlKM/6UhUK2HgmzwvcreoNYehQdsNaCISqYLRQPpbDKd09xJIgpMkmD1uSvz5Baz3T2qZ2ywMYVLe5XjuSWqcY0e9fuqZ0BWQXThN0eRtw9IEdRIaCmEz5ZqwUBdkEAa0j99kDOhgeh4e5GrXGZXo7+tj1t7SqMVJ70gsXcmEDWjzI2D9/5RvALhvYxMnvbzg6aDJgiOBYLQ2U3LFcpPoei5UzkjE1+7gPOGSov9/z+LfLyzw2KguEzBmpkW/TfTt1VtuUsIT3bEFfWr2BqUDHiVssRise0fiZA+Y5ZqNhwBXUaPiK04nfKEdLA/c/8HH3GXjp4XcxKIbKWy5awdlAhDJvo9BZZVGdw/Cdisw6MJTxKZGaFF6mcM86z+ZhytrjEips7hc6AgJsFaQp5qOfPa9XBo4grIFdHMh7Ueb9JRu1tYgOMflX+S9HqhoWFYZgrQITxUUK1AzCAcbVziJsin5DjH8tcm92g7yhBDMFnnLcyP3buzP2HFvFs/K/VONnc0afa3CIJyBnolTp+r/ofDfgg+9T7xpcCi5bKGYji7Mwq/Pg+JIY8mqbrslszIe9F/jjH2ZvHxWmg81ZvJFzpkTPfd+LXmKb+H8QqOhckic5S12ojgsEraDG8VS5nqup4OsRm+F1EuBuUeEWPVEBuag1Ixl/2sw9KtrOl2CKrwaHE8XggQiWKdQX5/bRj+f16ha7Ltz5PzWlQAS2iQIrQFaZquT4DAc/UKQFvSwpUVEYggyOiYo6kEUkoxqaaSa8Y7v0OUtuC/hrlHzlX1u8qi/I4uIqdecdKf1sj/D1S0gXwyn9JKoONw0SfOjiFvbzdfAsbGNaTlZUayqWRqvWjTzvt5C8EirCvdYE2x/wYepHuDB55R+2d+iCjjvJxGNBWjZx2LEz8rWzCj7WZWsbP5sTYzv92kTf5Cl3kYMcSiYcWOHzIyhckSsS/KddbJbiweo4RRO7YzsM2+o/1udotuUfvlEKZWXNDoUE/NQhP1yT3jU78IHuazx72qctUjDVhhBU3SSwvsIiV2RD0v/heYreKEe0fXbZFoYqzwm//Ma+2gf94Mq74UXqKyew3+O1Qmg0kYhxs4eWvzzkroDHodpOtOf/zdC/xsGHRrufojuyZnZwfVjp0yuehUJcCK7uDStl5ovSSNrL687tommD5fhqqrfyrg9qdEZi5X2G5dUnAZo0t/AwPCarbOCIK/+dw/kgft0zbqJdXIQCnus43iwIV5SzPhjGmteBQ9KJ/Sg6VtI+5eO4qA/jLFP6uRi0Bq2wlXAOhFRjRZugFzD60r74r1fvihEGQ32OUnggeKYW/MyCV7xjE4ei02JcZYKssl+o6Ci8Fak7lVVHt1tSVfeUcieXfLnZSMJYoxhp43uYypprWUPxTnMFxrLjbxkxmQbwZZ2mOCJsAbnXGrPuHqo/m99F3Mb8M/SP6oVB/vSUYRUADHfyvFvxEc4+6u3hdOjwjPX/7vPPR/ZHjHJ6Ygv8u8Qf5zhMshRd8Btj4YVCMl3ulAxAoyw7AEpQgolIDyC1vP2UlxnUFLbALIlBNe8xCR2SG4AfCpos8Tm10rNJ4t+J4TF/v8mOulzK32AchpJc8J/PBOwDYyV7WWM/Zw4PPB4bWA9omXyDZKPEdp8w26+tKkpuTEAYqZInYyAfFYqHJT9plszul5IJsMI/0aH+yjy/gxkVjhX2yc/vPLaSiHrGIIwCSyR0syHm8ev7ogXSiiGcraNRVvXOKEZVAYRYugIPCZbGs1Jmgr5C7vWtLH9KioDEPy5qEveqYcUh3keXvfPZgGDGlfhzCbgPq0OwzJL5yb47u2FJqmv4R+pZNy7YMZzliwJbTUqJ1Bno9HbGxMIynEesOOvSZh2r+dcJBz0DjlWRFMqXkWgmBut6SzNFaXftcpu7mI3sv4PQ4qn+TFjPDhfISudYIMQ/zAbVvggGgOhT9MiXDrcf7ncaVUnBL4W6D+2JZ3dj+Xm+LHiiO3/eeLx6RnExiSZCcZ5ARFBDYgQITGcEH6aJXiKNgBTZ46/z2N5O+KZdR89GgIMBmAWxe1DfLGGad1fvMxZiymI5q3L/3ek29tXUOpeJQV2PP24Ot7wr+MFetQcbdxc6wSDGNC3lPN1BiPm76tZKCE7PbrWk88ZJ54Z9IxL7fSuD7O4Z7yVgY4xaTXHfX3hVpxR1iVVlL9q4Y48ULfY2nmdn7mdJWAgXtldQLQ96/mioUsWMZGdfns+je2nl+ZBpdirqbtC5quTv6jhKYp1oKd/S7CzyfvmUHB/t7nciQb/DIyqsPyBU7SauNTDEAnBa4V9u3x0AlYaQaAzDu3ZQvyBQ5DoevILtrjp27p6Tlw0x8CNrBj/AISrgBlPgookqp1jD2EI/u2KfowzA8YytAzD1igMsV+vmr9cgKWluRYui/OuQ/ohFFvQGSKAjs72RTWv+PTeLzK0ZK7O6ZCRMzFds58mjVv/gXmiIOeTXLeM+DiaErjXypsNpmN/kUGSSB5W+itsiATu5CyNmsIAjTPCTxzG5RBdrd58kVnQHUvbWEoJnQK1MkfSW9d4xwZn2/2A0BoWQzVDPVoeNp+rirtDboD3aZSRCYVrXLnWKgfMNJeTpnTkCo30Btrv/cZZ4t3ElonI/FZyfzFIrUZnF/rhvQQrNwk3u+zFh41/iOVAiS3WluQkTDZk3OX133dZm2P3bc1Ev+lVrtMtQ38dhnXBWyl1ZFWdqtW5ZfCjCx1HspyX9om2T+FkhxdZUQVyyCzhqF0hNnqgYoKs0s9eMLbSom3LLVCq48L3Nv1faupzmWVDUlZhCHJuyqiTtY/TnnbuCvfI367GszvnCdsID3LA0mQW0TV+cQ2fkgJy1tCBla3xw0wFiMgYIpVoXDBvSnQjjaZu1Wq9mq+zLzQQY8ERW9tVUY13v+PuivpExjRqfytIZYHQwDRCR9CDRloOP2uzI+AeQsS7kIX0Pt2nhlOvUYE8FiMDR5Mihqvx3y1tF0NcWLpmKgmLNU88i4OPEVNNvDh7v288DB8VELv0n3xtwUmEtGgmgmglsOQeJXg/niUflxarfHeokVHIAb+tleQHo7LxYfUJ/czKIm3xontzG46aI8oBrXH8CVozSrIvtyfCnYoTAWmUgPd88DcWOjOJe4/TH5iaBAOrDngMpYyKPIK6Y+/AFdQrb3+/XzeTqsUfrLOl63FjmGXU1kttfrS63A8Qx6CTqaMmQ3gmEXLsEIttK6UkQ+7UuKEjOHLhWVXyaXZtLuSzjX3GudQhWdf+Bylhx4fqciXwi94h88spZovIf6zNCm9N4JEUDwNbMUgaP/mgzSKAxejNEfNdXzxr9yInab28MEDt9Rmcl97TGzxyzKTxz3A72TAyoFRMnKQSJnm0oGFHwlajrKsio8ZYNI+hEDOknCzj0KgZEi1kGpphRYKRhh8HoRmLFefahkiTHoeWf7F0mqrVgwMErZpq+GYGCnBCsN5XriruSAAtgsPvYAJQT7bbOSJJYEEYvvY7z9gB8hW46+O5P1ovcFuY+ORfstlyVczGcfSTUc4yd+JNcrA4aYz16rrCear3kiQAbA03uY+uCi2NyutSEWaJ9xdaA7RyX+UZFUAUXZU+2vOxnZZqE9IfaM/JGPFniV5xvU1ljhP64DQ3ydz6nYexqMI1d0HQLrCd6nhSqaYQWtwVFsYI3uHvjZLFrI3nMPsikvVIYV04LaH+hh3t06IVRoRxWcYZj4xMjT14O5DF0sEUPn94o7hTHo87VA6SjgJFvNh2vkm0AdtFCun1B+/HuHJjlS+fNxf+Rwh2jLEukw+iIZj5xqEs2+euDJfC3CAUTpp+aOC5BAQ3j1cierm0MGQKt6uikMh/s8Gq94JvI8G9nSeeZYCYDm5s+fsytIFYCL7fL3SU81GyShCQMkNm6w2vFhzUx7ztt6DmRwGRbnBrXzQSsboOg+NhWh3+aLiQcIgjrAAEVYSUZ+AAAARXhpZgAATU0AKgAAAAgABQESAAMAAAABAAEAAAEaAAUAAAABAAAASgEbAAUAAAABAAAAUgEoAAMAAAABAAIAAIdpAAQAAAABAAAAWgAAAAAAAABIAAAAAQAAAEgAAAABAAKgAgAEAAAAAQAAAOGgAwAEAAAAAQAAAOEAAAAA;" parent="7" vertex="1">
                    <mxGeometry x="40" y="572" width="93" height="93" as="geometry"/>
                </mxCell>
                <mxCell id="13" value="" style="shape=image;verticalLabelPosition=bottom;labelBackgroundColor=#ffffff;verticalAlign=top;aspect=fixed;imageAspect=0;image=data:image/webp,UklGRkALAABXRUJQVlA4WAoAAAAIAAAA4AAA4AAAVlA4IJwKAACQNQCdASrhAOEAPm02mEgkIyKhJPS5YIANiWVu4XPeABm7gInvlK2LsxBkvnbDN/oPVH+Q/WR6D/9D9CvnF6ePvUWQ9S5N536v+k9UH8JlZ0675/yL1Avw3b7wAfm39y9G/27zO/m/7b6pfCq8MqgJ+h/Rj0gXOZ5T8IGQn5DAyE/HZUVlPu+O1UXrXkiASMZUdlAekH/0cF+w/itVzoMa5BvAye/hPxiWDbpjdYvESylpfxQ5nP/dPc6Qn81mr1rUC8yIZDql3OSp878PHSLSkUD2Iek+4uymrb+Ug/lEiqu2SlhNXlagXkbtuBy+kCty4+QTmJc9t9Bfrot8L+6b6i11W392zgcCpeQC6HOviHV4MLM5phY79VzFnPFJcRaLgcE+8ArNbav9i72z/0m8u6RqMqUo2U6AqQJprbJa+uWt0x91spemxx+crf50u1qd4+6vGjRifgyVxET6C86rZHVMjc9ZlvgrHW3/N4eMC1j4PktliPGs+WugQYQLuCePb7b9XdhJqX12sqca37/vNya6h814fs9PyTCUVlPyyU8gdutTDsqKyn4QMhPx2VFZT8H9gAD+32O//+KF/fF/ULqq//3W9q/jaHQSwgJDLgAQ2CFAJB/fC+M5tQRqVdvAOcmcC6Mfi01iyMAN9xce6YcYTIo5PJ7vGSBSaLOSKRYsI/OoYR/oUv3eNYJ8RYRbgpuVU0+ypaC6Hc6LMwRHHi2AFU/b9ScssFyLWxhUmhnSs7Ex405F734ar++WJJg+kApQFlTuqk9ETNhRtrn0Zr0VaUJOf7vgs6QYLI8AkrMrv6jvNRjTSNh9WoNfAVQ1QKZqsgZFeePdOVlkmK24CbDIHmZlmTjpbLnnxoo2AkFFIHm5jGLfhUxrHQRZMff5HYlqRLFmmQZ8DHfJr/LhC8XhSYnUX6LBrNmakHXjXjrd6v5M4BHQn6t9eiX/K2DjWlWdWqPk+saeS9WZSSdngz/Qhf+UwORK+98OAKsCjoff9N6FvTrkjDX118oGiIHEiZvv+IXHA7fKdnxNZSJQxRva18Ak7ntC/nCSrZQhxyI2l9CITs3o1r5hejVisq0/nf839N0J20ecguaynya65rJORIufxwd1YziN3zX1EVDXrqSieDgmPoYAAACOAPdgYTA/vFjxa4pO6cxEs0ywal8k/nlco3GMno2bUJIcd8AdUhOCoavAxfLF/2GwkY2JbkpqtX6qaZ6Tu+NbRO0AAFNXIowiBaq/YHO+jI7s3mAbmbXQj451Ox3QF2RlGuXixC8WUPt1fCJGdMNSTIGbkoz7qftwvdT5y5hAQu//gJcYp+2LXLKy/u5lUf+tbwVGvvIwSDmhdbD8Ri5X1+O8QfYB/ruNMgJxsNr9j3jG6XqUSf2IFAk5zin6zYdp/rns0ZTmduo880ZgT6x170WWcm0WLyvcVvzltEtA0mU88T62f5WoVJCfO+KUt0/4tjmAIHdCwAx5TubMnC4QlI/GNCKxDnRn4uNq1mMg7jj2Q9wyuXmHpXtaUOQxtmF6xQLfKWemxIguX37/CWExvKi8v0gvCpgdbg6c4JE8asSwA9L2FEwabLo/jjz1qisP2BLP1eHp+1uPWRFdCTta1WGeS3GgmkLN7kMAsCVGh+CvRTKkH97VyiFEnaP6PBA05TzYuJxeDFWboiw/+MFOTwkCJo58uItFndzCQ1d/GAYP9retEGDb4PuqsgdAvG+G0nexWfDgxJNGZvQ7+hG9o3WaAD53WMyZHCe3TiXBcURuuHDSNHQ4mk52x/Rw1n7xmb7oFHg5UZhk5vUUkXnLAKnoDTEZxS/cajw6gHpM/MMtNkKqbz97pSF1A3yTXgMAmoivNMd2iqsPEUvCcAwOrgql+mucES1+rOJ3aKko+aViB0I5lCcSDsTX2G9DAVrnTQr3EIl2bGWaCvJ6OnGcKne/1MOIHFCRryVkDUyiQVmyYgNeHLmrHPlww3f6CfMYZgncwqUDI2DH69tJxkAgbkcpvRtvSeFs/4srBkJJgyuMaPSaxRdWUyvn7fz9pIT4783N0CFwoTsvy/WpuX5TBbSJdwuKz78QyDZC8oeJqBtZU6hb4yFqmRx+bJOvARzkbFXkozB4baUkO2syquKOp8P/SsV+Eh/6g3kXPywtnAA3toUhN399rfsb7YFXgj0mpsTLIuJ6+bkcCLKdMjPzjNBEzbcJL6U3Ao4qDSAnNFs5cYIkwjDDHA6WLT3mXDcjoxNK+CmVg0MjtoAKJN9L0tDxPazGRDEx7smz3RBg8Jnv7PO1/an1CqgzR/OantQZhKMI1TqU3+FLfbqKCsuo86xE65Y+OiOobKIhnx/+hOC46IcsHhegHEfcsf7EkR9Ac4oTAjK6vPrVV22uMKIt3HsPLmU24Im5OphYuuEO6AiBX/XPORiGDptzJ6tERPHx1HFEJ3anhbzbNxDGIUiDgudYptsfaEm8AXxo/nmnOJ0SQuHkj2AMEXuu7iqgtqOQUtnv4daY2a46NguA2RNW0RS4Dct0x2Ffz0cylRFY/J1cZ+ILlh0ZMmthOSyCC54LwO2wLS3xvrmy3tMNjb/185msUMUSFa3se7Jns639eX+bGqDQPyVAGZArF2w3P2shw1nj6KJ1zHBNI3CR04RJTuJ/hgrw39w8Xe6rENlOm2gb66RgwCO9Fr/mRfaHHTvTW9R2zt7Ud8zOc3q6Wzy+CvgD1XeVb2XHrzHu4NO/uOU1c5u9qcHYe3P9+yrlf7j7lKYl57vWgw+4toGiuqfpq1BQfCIWaU1el2sAtSxuxK8pivsD0r2Js/hIzqLR8M7lUVZIWeZ5HncHpGVrY8gpST0L5NGnI/JLKmxQQnJrupfyZNrakR4VHSXLiJcZpXOMIDlXJcmeDzF3IBBDliQ7/GlgS8DCQNM+c3Z4C4Hy0xJnQQzYCfLZpU+KRsn9FT4GNCAtMxOs9gMMEJlvKV5KYu5BvSo0fUlsuKBK1XZ850kj1grHCLcsBuA8LZ942MfzOj9wOLsEY8+YIAykzG7LnUMaLGH/u/OK4ESH2ZhLJrKtp+5g7rMmEf3LV49GzlJEs9Sd39vDrPNE4QFlpnevuZ7Pxd2o3xmZGaG/LXwKUTuVR7X/xlAgJXft1Vpgz5Gtpi0d8RcSInEUbbj13prfQJDyLPex78kGM59u1OHg4bkrh3JcIXdWb+ZhzGgPvJGy7p4xD+jPV0eUIPYk8vKJiBV+O3KBwC6dnp4eFYQH+6jg3xIB4Ce6EQLvDULOzSiZHiTAdRWwLzbqFBAOpw/bbkZyvTFCrHyjfkpvwX8ddtZgKEKLTZ+CkBkPnVNZaW4OhiTJXcsf7n1WqAk2gpcFDxRb5Nm4hG+Zgek7gRV1uxhVvvCN0d89/jhqC7l+cB26mVaeVSnTY8Q8B7jmd5P2c0DYZa67dlCxALTyTjCDhwJlfVp1wakicfjN1U38RM74YMYaGXAJM6PwFr0nSNpt0ZtKwCrG9+TPXlmMqVPRLCIfZwYeQa3ADzeDy+YuPhHLdPVW3xKjs5hJSehCfIMalKHFNOVeUBJr/fw5mZVDhvsfw9Izr1cAvUBLytmXDXz2E69dvMxAOo8GyQjHNGzDsr4Sj5hQAAAAAAAAAAAARVhJRn4AAABFeGlmAABNTQAqAAAACAAFARIAAwAAAAEAAQAAARoABQAAAAEAAABKARsABQAAAAEAAABSASgAAwAAAAEAAgAAh2kABAAAAAEAAABaAAAAAAAAAEgAAAABAAAASAAAAAEAAqACAAQAAAABAAAA4aADAAQAAAABAAAA4QAAAAA=;" parent="7" vertex="1">
                    <mxGeometry x="41" y="717" width="90" height="90" as="geometry"/>
                </mxCell>
                <mxCell id="14" value="&lt;br&gt;Dynamo DB:&amp;nbsp;&lt;br&gt;TF Lock" style="text;html=1;align=center;verticalAlign=middle;resizable=0;points=[];autosize=1;strokeColor=none;fillColor=none;" parent="7" vertex="1">
                    <mxGeometry x="41" y="652" width="90" height="50" as="geometry"/>
                </mxCell>
                <mxCell id="18" value="&lt;br&gt;GoDaddy&lt;br&gt;Custom DNS" style="text;html=1;align=center;verticalAlign=middle;resizable=0;points=[];autosize=1;strokeColor=none;fillColor=none;" parent="7" vertex="1">
                    <mxGeometry x="51.33" y="255" width="90" height="50" as="geometry"/>
                </mxCell>
                <mxCell id="19" value="Static&amp;nbsp;" style="text;html=1;align=center;verticalAlign=middle;resizable=0;points=[];autosize=1;strokeColor=none;fillColor=none;" parent="7" vertex="1">
                    <mxGeometry x="66.66" y="436" width="50" height="20" as="geometry"/>
                </mxCell>
                <mxCell id="20" value="" style="shape=image;verticalLabelPosition=bottom;labelBackgroundColor=#ffffff;verticalAlign=top;aspect=fixed;imageAspect=0;image=data:image/webp,UklGRooKAABXRUJQVlA4WAoAAAAIAAAA4AAA4AAAVlA4IOYJAACQNgCdASrhAOEAPm02mEgkIyKhIjRKeIANiU3Xp9W2i0DlzDFox/Y9i+7R+SH5JdiPyH4a+YfK26p5Z/1H3L/QT+6f6L7APo3+iPYI/VH/Rf0/rTeYn9fP1o97j8APfP9gHwAf0D/Zda36B/7b+m/+wvw3ftp+33tI///WO2ef4ivg/ynsh7M5WNij0PZoKrkat5VH2o6yNydtYl/5Y4mpE6VVr4WualstCmIqigBv+/dkxWVixMwXoSHahlGUn60IQrLKZs9kjWVjHG+duVf2hlAAV58weLLBaAMZz1HjW90iWyXbI5etS0aBt5hgyEUyx+aaDDRFhfKpB3bsskXKRpGRsl+sXQxv3fYZxtxhF2jPSXl1ib5Tqy0ov3OnaHnBCqbMA7EyUjawrOLevstuXf17Om5m3yl3g+keiMuZZ1Z4XZpotOfzP5zhLCmy7xtI2W6l9ei3b/tFtYgucCP5RYDL5OzMlARV7PYQQZ3VOKtZQU/Q/GWhJbk+6OJGs27UYZhxGhKQt/vsXr8bqIWjWLBlKeYXybRNVv+nmzB+LK1eyUz5RtkS6yTRZSDEfUIX+E3+C45qxInroFiwAP7tYVPmh72m8N//2+z0S98Durn8dzQozf/d2Lhdt/TKqInuz2FuvmYQTrtrJnYAp3J0LD+k6WGNrKhcLkeSItl/KOuT6cFLUCHjvj+tTp0TO5V2HM8bhGbfhsI3x3wAnHQm0T6hrnZ6LVF4ruVsdtcOPlI8PfIG5D/RBrlWHRncygYtgwA9kuLPSyiDYjl7yfg8C/ZWYHjmk6KchExMpVZd5sSbycvLBJrmjnCQP7Qdy1uZghAQwf/vy7UFkvFrFu02YnOficuMIVnw2M2xPsKnqp8Ppq8tcs8sd6c5RLWLAO2jfJv4mdvwGwICBCpZYaijenEHfdL5EwdTLPk66FHQqYgKbtyzqyvwlEkbLNfdtigvpk8t+8TkeQ4vOuov5wB9Zm63Z6gd05ch/oBRQVyf5oHBKV5vZLwPQBuX8a9PvoTYqnmtvCJf9dPo364hgmX9GTG8kpEq+BUxxeaNLdlw+CV8ERF4QR+A8Xj1qQuKdQFJRUZel1tIk+4BqYh9mWSCXCYH7l8RZfkAwYSuJzMSatB9JFHvMTxVYFf562fJlPSSLZ4PTL1R/Y9G6PecB5eqCReI07AUa36MGCwQZFECNkjMrSO1vSB/32LzzLE4lPVwQsNVPUqPDkqDbgpqliE8raoyQBcV3NXJVRD5Xty0L2VnpURwShrrmd1sEderHiPI9zUmeyve7bWzngw388DTpMRgv5qNY80+aIqrPIXOWE4F18txXedehpvsI4BNdE/m3v2IovRbCDL/t/Uppzd2JQ4lQRDJAwNKtA/eRrUdKFi2PlDwlbqLh8tx8P4d5Cf0wIHIm/rmo6bQS16hRPfma4L+hYPApwRjXxymkCNN2AF+YdiwCw/sFjrlUEAVAj7M02lH3NozI9hTbYcchfFoXe+tLsHedpQLVzRdeDcFBKZscxsUmatz4sJjucDVol3NNHWmB5Hk5p/eLLAuKMHDZSeFQFWoeOXDuwxdh7xMID1HPMKSCAO+v2/v1Vg8N8qCp+px7J+hTDSYVuR3+v0jTQv3kO4nAc7ilqcXSZtqR3ZIHuTU1Dadv6FwkA/Q0X2F43pm5aQSsq6M8o+8m6cGzSehexOGHx2HHzrwdJrXN2A8zbAYddC/S88ztRLpaYEMaP88xeberBVn0suiBHBp8I15OlzzSbS/tTT8zLxsrNi89y/u/Y4oWniGZHmrOv83Sqs2sMphPgOp3VrcjtcHMYoiAmMzEapEmbDo2ejjJS9Zc9/tQpXiEc9RgzptFaRPaSDJs6i9+91ExhufqZqE6J7YrXReB5rjyz3ECRN9w36dEGocz8xQv9tFbxjMHK/OtbISTjLCJlK4Hf0TFQc0i8BQVpAAeibcjeAFliGKrGi1Cz/P2ER0XK82lWUowzdvAEY4bWM/HSF1zYAciw7xZpYPbY2T+a+Ujm7KzVx+It7pXegGVIaQXv+YaeXcrgUgIR4HzlT//tLS+FsE9HdE/BY65uRoGO7baX4IS/uCL2GTjjLQRsX7s/TZoWpfWbT+npIdMoQEcDNMHSlomWjvvQXd0+ROD9Mbtlal1IAcSIQYfDFI6qoJkLUODU/cWQkCxYYelj2WJEiLMU4+l69rN3aUFiwWQNTM+N/MX5+FClXElWk2Nz9cHuSLhRWzTlExXY1gHnxT/Uo4nFd3WjmS3nAZgi1Qdd1nFQHtNpNWtH+LtEvLy+wVG6w4+GGrHjKTZ3w6geXnM/i1hqWvFsVaF6ku7DwYmooCf8vZbOAiJJ/Ax9Q5ywyfseb78w7vwfE4uCuylZTXah+ATE/83u6/5NEThaM4F/STSaHMA4/open6Ve12ZyLzB4vDG2MPPdfZKtcDGfZU/aau+zSjeQbiTltC2Vs4II8PpHKnOenrXCtL55FL/oU5eNbJspgWCzYM+sS3j7pL3bK8xkzQDxipRv2zHKmfsFQ+QkqWIZjSQ0Xgsf0nJHjgmujW3Aq5ntMPjdGj8hriFAPBMnqG3h0J5c9N98hgiNoAywK48c9qGgYjfRstWIAHkfuzv3dAtDFLQCpMhJ6OHyztsVO7Y5+FnuIOWn37sZjF7cn+t7ACJprAdd3ylLmKh/5tcEGbs6WRrcTJrtW3Mr5mukqa+imYwYQCkQDG6PH3sJaZSrMpu/239nZDt29Lu8JYOpCX/107D3F4AxvgoQmJm6Mn0tTE5npdEdnWLfPIT+3F9bycnDmsuO8yQfnDkJZlnYtlIDw2Mn89gD2ZiEb1eB/cb5Huuy7kl3T4NS47+Tp7FJyE/LJMS6tyfgkVt/pZk4RLjywLfMsHyW4YesWnhrGWzHUCNIGXQh4bvw6GegEDxq7DWEYWks39Gn6+J1h+Yx38FQ9pgFU3oIcBbsOiU5zGzwhlsGrayc5b09/madnzO1hMaR0QfwARcaGdm1F6Fju5aPOsW/gnTAmyukFLj8KOnROU5X4cONugxYjHTgVyymGnQeNmVhRm9S/JUKJVwGWqjVKi583k3m/RktEBgJtqf1BkY9MifYbyRKnzihFihQDEWzYYl9e9DKQSqcS+GLYFPwm6hBCLiBXTbn4m+A5sao83QA9RgwA/oERoJOQskbLWIgIwmGCM+EsyAH8RgUSJGhMxK9u9Ai3eMVXD5DIA4H9o67C7wmvwxqw31tJIltuvqVKQOvZFeXUo72ph98Cx4MPhxbizLSQ8wrpYbukziXIEKHyLrw5fYdBD1WCfzEzBNDjh2zjBi0GQTNYCRu3XpJ3uGaEc/0MBjUcXUCUAxmuLYdSoG1mePoARSQHY6k4dFNQBVAAAAEVYSUZ+AAAARXhpZgAATU0AKgAAAAgABQESAAMAAAABAAEAAAEaAAUAAAABAAAASgEbAAUAAAABAAAAUgEoAAMAAAABAAIAAIdpAAQAAAABAAAAWgAAAAAAAABIAAAAAQAAAEgAAAABAAKgAgAEAAAAAQAAAOGgAwAEAAAAAQAAAOEAAAAA;" parent="7" vertex="1">
                    <mxGeometry x="567.5" y="40" width="95" height="95" as="geometry"/>
                </mxCell>
                <mxCell id="21" value="&lt;font style=&quot;font-size: 14px&quot;&gt;ACM SSL&lt;/font&gt;" style="text;html=1;align=center;verticalAlign=middle;resizable=0;points=[];autosize=1;strokeColor=none;fillColor=none;" parent="7" vertex="1">
                    <mxGeometry x="575" y="20" width="80" height="20" as="geometry"/>
                </mxCell>
                <mxCell id="15" value="S3: tfstate" style="text;html=1;align=center;verticalAlign=middle;resizable=0;points=[];autosize=1;strokeColor=none;fillColor=none;" parent="7" vertex="1">
                    <mxGeometry x="49.66" y="817" width="70" height="20" as="geometry"/>
                </mxCell>
                <mxCell id="39" value="" style="rounded=0;whiteSpace=wrap;html=1;labelBackgroundColor=none;strokeColor=#d6b656;fillColor=#fff2cc;" parent="7" vertex="1">
                    <mxGeometry x="375" y="770" width="375" height="190" as="geometry"/>
                </mxCell>
                <mxCell id="40" value="" style="shape=image;verticalLabelPosition=bottom;labelBackgroundColor=#ffffff;verticalAlign=top;aspect=fixed;imageAspect=0;image=data:image/webp,UklGRk4NAABXRUJQVlA4WAoAAAAIAAAA4AAA4AAAVlA4IKoMAABQPQCdASrhAOEAPm02l0ikIyUhI/XpoKANiU3cHpLcZk1/qv3bF5v2r+mfrnzUe/fh/+me4bSWPG/0v0aehf9EewB/CP4R/fP5v/bPZJ/Wb3D/zv/I+oD+If4793vd69Cv/U9QD/Lf83rQ/279gD9qusp/s/+y/ef4Df0U//nZmfwD//9YPyR7fP8Ty+h/95Q4h94T/A/73vSoAPqJ6oMzX+0o5Mo/bdqD/az2yHDfc0507eqBXJWAIXm6JtGk+9MjvmuP8xEsx3Muh1bD7XyLh5RSOXXDsCh1rS+qZpkm+Ayaz+WHHvXS2mq6hA27XKJCxXk0g4zDXVsQGrZrDE7+mX2d0ldvbiNVruGrXqMDDv/H78FULW3o8VYTETpGAEr8uV3GH2yIf8WBpJxHsUTIRK+inj8oyppiF3hgHk0Asl8//FUNBCAEfodGlpwoA+zn7Gfvse486GOxwWRZ3zOBj25qZ4Qq3mY0J8myqUXQeb2+M+6yuSMj0FtfulJlnJR2lZNcE5tJxWQX2srgaapl0PoOQe39O5dK/qiG8SO4f7ew434N/ujYi99tZ8SVz7d/eywdxF4ZUo7WQJW4d2p9k4IH8eB/b5xs1e530/4V+1WuuwE8LBIRroScLb1y2poH+2dBef4AbieeIEnWjX1X/IgAAP5Cpf/7o7/blf2jvcQ//2x39Y7+sd16ichiVfOwgDWR0ueB8/qcZZOwJOL0t9YzCKDwdTOg8MSOlzS0IGwaO1aTQMsTylADfOrsKVhotQZe3cYeupL9hOgcvV7saPz0Cx5LLhWRakYTobii/bQTc6YrTJVFctCclMEiihmxXWEOfPMq6lp40oT6wBsJLbSvP3TUx8yWz7AGHL68XQFWtEB6ME4rn/RXeIgooUlzKq9NqhkcY3UDd4q2YH7HPy8X8UU+ZRnc0gS+XfOGsRpglbPQt1cD6nklz7Sb/WIilL9qRg7IotNdpSgfXOiVUKy7Bq2HUXHH2fR2UG7qZAJBiao0dvAJcD2Hzh/n5f5bSx+Am7AbipfgCm5AkeiU3PnsU6c6983y0bLI54wNebxCqXhBkK52SkuSXK/tJbitFV5ambwG+8qHP8ESpxQZbtJReiKErn9scTEidKaMprssEMwzWAo9oW5PJrHaDw3xtnIWwVn7I1g7RXZtQ5dKxZEdHRKymFy8CGEauA7CsT2H4QoNVpQudLPISw3+QqDQkDaWRNjG+hm94K8unusw+wjj2l7eQsAMYGxFdMw03fGa98t2uiSrv1hRmuZe7enfK14Mea59/viqjHH8pnI4fdGk5yj4PwrECg8C+QFUjZ8PtC+UUBVyEuEyLBjLivNb997vFnUsBfmx0IpM4886LzuxQZtS3Q9oR97dtUIglWV/+0hq03QwW0xfMaOqR016P4arJPr1RrLMhcrnDcSAgt0URx4FVYy9LAAxeBapQ7o9NKGy3mPGEWTPXrsfISBy8cVnIlOkc/5tt3QAdqi1Z4JSMNeJl+uNFaQZa/ELOcCwfxcE8qb4/Hjk/MrWQw2Lcti2Bd0BoMoZ7fP/FooW+eP6NtlpSKtezhuxvrW9uGfLd7XbTODyMJD85691BcRXjY2gzmWdJvzA7z7T5eDoI73+we7IGzhULHD7QKYPy/7SK1b1nVivIFvU629jyWCQ9dwfTJcl5Vqa1yUn0cye5T+CxMp//QfoRw8tUlUMpzI0mEsaEeIo8GK3SWoDzYVR/EdnabXPmSrRX2x+vG+CWml4Ga/osC5W2EcsZzfiXXKZG1qoTOCH6Is+AnW7jzKSYMmpwZUeMjzODqneHhYjsD92NlQpobHM2bno6Wm9u+HKFtAEme/c4xlxhaxzd8wfMFDUUXcKP0gKjeuU6QPvgCVfwT/yHFwDPk0DBxwd8aQPWaVJUmfBBnO7KMSvibCViMVwclBqN/kFNnFckx6z/nOVt1YCMHnjnDAxaKPsmmZIBWfw/xBndUmIh8o6V5BchX4QUTye1F1f3autNpVdJhqi28r4cbOC9An/vVELHDPnEN/WfEBxD8hqmTXNJ+lLhmdwW+kvIHXWLSVPz8cBs9U6KvhmKXuXwxpw1TjjggDk0PUlOWY/PDrZrevJVeSLbgLEMTDfUItw59z/lrSAEg7ezeuw0oFCoRqCAjYnIk/pnim4kiuM4eHlz33p65czOsSsdwuwKyxsmWyev+b72r9WiRI4rxd5vYLZsTHCKGKoZC4InZ3FRK0sBy4XhdI5dCJbzxEwZUgC85G2B0yAztTfckO0JFikMldJWwqIxXrBPOMi+vQi8vRlKrKS7KOBNycvhZpGB/Bw3kxPDvXX4LkVNi6+fYtw7EjnexK5h+Uoi8WqyrLIE2KGq86lbJ87m2uw42qz5dWRgr1q0NXaa5Uzo2cSI0CawloMwA2EoGrhmcU0Dieglv6XEdj7rTN7XJ1iVjDH8voismDzeG+cwgklOpH7CIkS6N3kOtOCbs5XS6VP1QIeGnOoh3vgxtH4rofweDGzZEaYJUwrfVa41K7NwrZkS79syCl7Ye3ZcuyyaN2uCZ3izJN7JPK3pvDlE8tVXSM8RrrkiL8SPs7D2HJlKoqd1fmEalNachz6DlWp1/qDz4sjQb/0nev01kjJdOhpnm5CjWad22DWaI1t5MPXEtvIo2qWJlSOL8cqxiaTDE+HH64ScRk6+GST0rjF4y18v4zoKbAU7HmXOH0BOb1tINPAUa+rwG+DzoIGyvlhaH1aO3oYXGidsjyE7+wKSIn3DLJwiqJ4txSx6pWuAi8cnMtxAtCX4FqfNSuKtanxxfuSAI1/SjtQ+kSF1PqvMPezdWn2TRSFwobjjeLsssP2YkpImsr/D4ddpiHWg9xX4Ae5056kAKHvmBaMD1xyAFdqXReIlldBH2qv5k1Z1PPBLNCCF9h9BmZXb4DtEzEcCaZA1JZ0t5icn+k17NEd+EixuPHNMYrwK6jlD63jyf5alhNRzTX+GHZl39eDVfyKpKNBbV2QgdUQ9Tcw6aYxEgLFcVzUI5dFLZ043YYJlIRHZQvE2t4BkEk7y8DSgP95Js+4YolruX+MYtzFH4Jr3Xgoz7F+W91I4dOo0rxvyso8XEEDgt0+NBuAH0rN7i2woidfHbeALovaa+6l3vf4ZZFGyBggjIe3WuynMF8LeA4Q47VwHi7MzghWmyLIU98wHsT1ZYT/IioZ5D3gbabuo1zGxRiKyDxpA37bBoH2wy669QLhQaBo+F8LwOOBDM1YAXzmIQHdyJuWDHyHVoWJWfjAE+BWC+95mvzjFPCahk6SVbgAuZngH4iFY4A0GCD5UtRsu3//cmMEWJLGdbQ+d//ujBCF9pVv1oXKBepUJHmcyTcbIAqWM+EhAO/TdTej/GsBJx0gr6SxUBE1XvqTXaar2EV/+hpuCTqc8jRfp1hqP/wpqUyIL3l75AXFpNuZBGqS6Pd46sN6BldXx3DwbiBq4szApIc+eltvta9+/jXDbl98QQuDd+gGChj+6t7Rdr6maMLRDIkInFk1w0QxiBY9Og7Vb2pik7RSRECc/bCrD5UIF2oj5Cd42ndiJ//UW13G8t+VmVblSkARFcMAtul+IH8eeJp+hyAVP351+Zjz/3RM69BnRtCBON9K7InWpiVfvDOPQbv6J5ERxIR3+C9cRjpvqL9gtUHDySpPg14Wa8TZVCjhb4L0C51C6GWi+vgGICo/Zjw3eNDAyJWCkNVDP/AhlCWMllDU6R/gI5KsIsq+2etzi7ULSHVSLmX7TRGknx/lfTWADrQmPTsMfDY5X1jbcjdXyEdWQHnvzCKpy/2ZrlcuN58vYt/27QmDcGA1P9qyXO/PVhhvIG16d4bTILTpcuMyJQklXB1C0GYnriS8tEt56lNSR1lQu/LO4wfmyr2jWAbKbcyrP0fsHaCEBsniRqVTr50YOnlPcjJxCjQ6kG5hXPSbMxXVavbbSDC25dmAFNo6mKkK8sFANQ6XvCJxm765SNkS59NM8CDWM2KtVsPGYq4WoWLZm3YbA1BLRMx/rkmekj/8hQuCTIRXFw8aF98YdwYt4VQjPa+8sXAESGrNVUtq27h/eETqrAbEBCH2mLT7cu6bm4hAKSegCBbMPUizAFuKkzqO31wKhPV0kglveEzZVYBf3rWFWeiyuCKmg7ouPSqscRg2lEgvuX/7akxcgps1jvU5MmhlxRcxWmGDHqfsHdYVKfzuyJ+3NuOHmc/3grOtLxsytvrCHUMXTlIPf1UhcMX0o+c5yrTP6QsLmxkh3QTMVU6Ewrv8bviyDlGw5o6Bm1abGzWUcwFMCZYheiY+DdwIZ9H9Vk/AslIAAEVYSUZ+AAAARXhpZgAATU0AKgAAAAgABQESAAMAAAABAAEAAAEaAAUAAAABAAAASgEbAAUAAAABAAAAUgEoAAMAAAABAAIAAIdpAAQAAAABAAAAWgAAAAAAAABIAAAAAQAAAEgAAAABAAKgAgAEAAAAAQAAAOGgAwAEAAAAAQAAAOEAAAAA;" parent="7" vertex="1">
                    <mxGeometry x="430" y="807" width="90" height="90" as="geometry"/>
                </mxCell>
                <mxCell id="41" value="App" style="text;html=1;align=center;verticalAlign=middle;resizable=0;points=[];autosize=1;strokeColor=none;fillColor=none;" parent="7" vertex="1">
                    <mxGeometry x="450" y="780" width="40" height="20" as="geometry"/>
                </mxCell>
                <mxCell id="42" value="Proxy" style="text;html=1;align=center;verticalAlign=middle;resizable=0;points=[];autosize=1;strokeColor=none;fillColor=none;" parent="7" vertex="1">
                    <mxGeometry x="600" y="780" width="50" height="20" as="geometry"/>
                </mxCell>
                <mxCell id="43" value="" style="shape=image;verticalLabelPosition=bottom;labelBackgroundColor=#ffffff;verticalAlign=top;aspect=fixed;imageAspect=0;image=data:image/webp,UklGRk4NAABXRUJQVlA4WAoAAAAIAAAA4AAA4AAAVlA4IKoMAABQPQCdASrhAOEAPm02l0ikIyUhI/XpoKANiU3cHpLcZk1/qv3bF5v2r+mfrnzUe/fh/+me4bSWPG/0v0aehf9EewB/CP4R/fP5v/bPZJ/Wb3D/zv/I+oD+If4793vd69Cv/U9QD/Lf83rQ/279gD9qusp/s/+y/ef4Df0U//nZmfwD//9YPyR7fP8Ty+h/95Q4h94T/A/73vSoAPqJ6oMzX+0o5Mo/bdqD/az2yHDfc0507eqBXJWAIXm6JtGk+9MjvmuP8xEsx3Muh1bD7XyLh5RSOXXDsCh1rS+qZpkm+Ayaz+WHHvXS2mq6hA27XKJCxXk0g4zDXVsQGrZrDE7+mX2d0ldvbiNVruGrXqMDDv/H78FULW3o8VYTETpGAEr8uV3GH2yIf8WBpJxHsUTIRK+inj8oyppiF3hgHk0Asl8//FUNBCAEfodGlpwoA+zn7Gfvse486GOxwWRZ3zOBj25qZ4Qq3mY0J8myqUXQeb2+M+6yuSMj0FtfulJlnJR2lZNcE5tJxWQX2srgaapl0PoOQe39O5dK/qiG8SO4f7ew434N/ujYi99tZ8SVz7d/eywdxF4ZUo7WQJW4d2p9k4IH8eB/b5xs1e530/4V+1WuuwE8LBIRroScLb1y2poH+2dBef4AbieeIEnWjX1X/IgAAP5Cpf/7o7/blf2jvcQ//2x39Y7+sd16ichiVfOwgDWR0ueB8/qcZZOwJOL0t9YzCKDwdTOg8MSOlzS0IGwaO1aTQMsTylADfOrsKVhotQZe3cYeupL9hOgcvV7saPz0Cx5LLhWRakYTobii/bQTc6YrTJVFctCclMEiihmxXWEOfPMq6lp40oT6wBsJLbSvP3TUx8yWz7AGHL68XQFWtEB6ME4rn/RXeIgooUlzKq9NqhkcY3UDd4q2YH7HPy8X8UU+ZRnc0gS+XfOGsRpglbPQt1cD6nklz7Sb/WIilL9qRg7IotNdpSgfXOiVUKy7Bq2HUXHH2fR2UG7qZAJBiao0dvAJcD2Hzh/n5f5bSx+Am7AbipfgCm5AkeiU3PnsU6c6983y0bLI54wNebxCqXhBkK52SkuSXK/tJbitFV5ambwG+8qHP8ESpxQZbtJReiKErn9scTEidKaMprssEMwzWAo9oW5PJrHaDw3xtnIWwVn7I1g7RXZtQ5dKxZEdHRKymFy8CGEauA7CsT2H4QoNVpQudLPISw3+QqDQkDaWRNjG+hm94K8unusw+wjj2l7eQsAMYGxFdMw03fGa98t2uiSrv1hRmuZe7enfK14Mea59/viqjHH8pnI4fdGk5yj4PwrECg8C+QFUjZ8PtC+UUBVyEuEyLBjLivNb997vFnUsBfmx0IpM4886LzuxQZtS3Q9oR97dtUIglWV/+0hq03QwW0xfMaOqR016P4arJPr1RrLMhcrnDcSAgt0URx4FVYy9LAAxeBapQ7o9NKGy3mPGEWTPXrsfISBy8cVnIlOkc/5tt3QAdqi1Z4JSMNeJl+uNFaQZa/ELOcCwfxcE8qb4/Hjk/MrWQw2Lcti2Bd0BoMoZ7fP/FooW+eP6NtlpSKtezhuxvrW9uGfLd7XbTODyMJD85691BcRXjY2gzmWdJvzA7z7T5eDoI73+we7IGzhULHD7QKYPy/7SK1b1nVivIFvU629jyWCQ9dwfTJcl5Vqa1yUn0cye5T+CxMp//QfoRw8tUlUMpzI0mEsaEeIo8GK3SWoDzYVR/EdnabXPmSrRX2x+vG+CWml4Ga/osC5W2EcsZzfiXXKZG1qoTOCH6Is+AnW7jzKSYMmpwZUeMjzODqneHhYjsD92NlQpobHM2bno6Wm9u+HKFtAEme/c4xlxhaxzd8wfMFDUUXcKP0gKjeuU6QPvgCVfwT/yHFwDPk0DBxwd8aQPWaVJUmfBBnO7KMSvibCViMVwclBqN/kFNnFckx6z/nOVt1YCMHnjnDAxaKPsmmZIBWfw/xBndUmIh8o6V5BchX4QUTye1F1f3autNpVdJhqi28r4cbOC9An/vVELHDPnEN/WfEBxD8hqmTXNJ+lLhmdwW+kvIHXWLSVPz8cBs9U6KvhmKXuXwxpw1TjjggDk0PUlOWY/PDrZrevJVeSLbgLEMTDfUItw59z/lrSAEg7ezeuw0oFCoRqCAjYnIk/pnim4kiuM4eHlz33p65czOsSsdwuwKyxsmWyev+b72r9WiRI4rxd5vYLZsTHCKGKoZC4InZ3FRK0sBy4XhdI5dCJbzxEwZUgC85G2B0yAztTfckO0JFikMldJWwqIxXrBPOMi+vQi8vRlKrKS7KOBNycvhZpGB/Bw3kxPDvXX4LkVNi6+fYtw7EjnexK5h+Uoi8WqyrLIE2KGq86lbJ87m2uw42qz5dWRgr1q0NXaa5Uzo2cSI0CawloMwA2EoGrhmcU0Dieglv6XEdj7rTN7XJ1iVjDH8voismDzeG+cwgklOpH7CIkS6N3kOtOCbs5XS6VP1QIeGnOoh3vgxtH4rofweDGzZEaYJUwrfVa41K7NwrZkS79syCl7Ye3ZcuyyaN2uCZ3izJN7JPK3pvDlE8tVXSM8RrrkiL8SPs7D2HJlKoqd1fmEalNachz6DlWp1/qDz4sjQb/0nev01kjJdOhpnm5CjWad22DWaI1t5MPXEtvIo2qWJlSOL8cqxiaTDE+HH64ScRk6+GST0rjF4y18v4zoKbAU7HmXOH0BOb1tINPAUa+rwG+DzoIGyvlhaH1aO3oYXGidsjyE7+wKSIn3DLJwiqJ4txSx6pWuAi8cnMtxAtCX4FqfNSuKtanxxfuSAI1/SjtQ+kSF1PqvMPezdWn2TRSFwobjjeLsssP2YkpImsr/D4ddpiHWg9xX4Ae5056kAKHvmBaMD1xyAFdqXReIlldBH2qv5k1Z1PPBLNCCF9h9BmZXb4DtEzEcCaZA1JZ0t5icn+k17NEd+EixuPHNMYrwK6jlD63jyf5alhNRzTX+GHZl39eDVfyKpKNBbV2QgdUQ9Tcw6aYxEgLFcVzUI5dFLZ043YYJlIRHZQvE2t4BkEk7y8DSgP95Js+4YolruX+MYtzFH4Jr3Xgoz7F+W91I4dOo0rxvyso8XEEDgt0+NBuAH0rN7i2woidfHbeALovaa+6l3vf4ZZFGyBggjIe3WuynMF8LeA4Q47VwHi7MzghWmyLIU98wHsT1ZYT/IioZ5D3gbabuo1zGxRiKyDxpA37bBoH2wy669QLhQaBo+F8LwOOBDM1YAXzmIQHdyJuWDHyHVoWJWfjAE+BWC+95mvzjFPCahk6SVbgAuZngH4iFY4A0GCD5UtRsu3//cmMEWJLGdbQ+d//ujBCF9pVv1oXKBepUJHmcyTcbIAqWM+EhAO/TdTej/GsBJx0gr6SxUBE1XvqTXaar2EV/+hpuCTqc8jRfp1hqP/wpqUyIL3l75AXFpNuZBGqS6Pd46sN6BldXx3DwbiBq4szApIc+eltvta9+/jXDbl98QQuDd+gGChj+6t7Rdr6maMLRDIkInFk1w0QxiBY9Og7Vb2pik7RSRECc/bCrD5UIF2oj5Cd42ndiJ//UW13G8t+VmVblSkARFcMAtul+IH8eeJp+hyAVP351+Zjz/3RM69BnRtCBON9K7InWpiVfvDOPQbv6J5ERxIR3+C9cRjpvqL9gtUHDySpPg14Wa8TZVCjhb4L0C51C6GWi+vgGICo/Zjw3eNDAyJWCkNVDP/AhlCWMllDU6R/gI5KsIsq+2etzi7ULSHVSLmX7TRGknx/lfTWADrQmPTsMfDY5X1jbcjdXyEdWQHnvzCKpy/2ZrlcuN58vYt/27QmDcGA1P9qyXO/PVhhvIG16d4bTILTpcuMyJQklXB1C0GYnriS8tEt56lNSR1lQu/LO4wfmyr2jWAbKbcyrP0fsHaCEBsniRqVTr50YOnlPcjJxCjQ6kG5hXPSbMxXVavbbSDC25dmAFNo6mKkK8sFANQ6XvCJxm765SNkS59NM8CDWM2KtVsPGYq4WoWLZm3YbA1BLRMx/rkmekj/8hQuCTIRXFw8aF98YdwYt4VQjPa+8sXAESGrNVUtq27h/eETqrAbEBCH2mLT7cu6bm4hAKSegCBbMPUizAFuKkzqO31wKhPV0kglveEzZVYBf3rWFWeiyuCKmg7ouPSqscRg2lEgvuX/7akxcgps1jvU5MmhlxRcxWmGDHqfsHdYVKfzuyJ+3NuOHmc/3grOtLxsytvrCHUMXTlIPf1UhcMX0o+c5yrTP6QsLmxkh3QTMVU6Ewrv8bviyDlGw5o6Bm1abGzWUcwFMCZYheiY+DdwIZ9H9Vk/AslIAAEVYSUZ+AAAARXhpZgAATU0AKgAAAAgABQESAAMAAAABAAEAAAEaAAUAAAABAAAASgEbAAUAAAABAAAAUgEoAAMAAAABAAIAAIdpAAQAAAABAAAAWgAAAAAAAABIAAAAAQAAAEgAAAABAAKgAgAEAAAAAQAAAOGgAwAEAAAAAQAAAOEAAAAA;" parent="7" vertex="1">
                    <mxGeometry x="580" y="807" width="90" height="90" as="geometry"/>
                </mxCell>
                <mxCell id="88" style="edgeStyle=none;html=1;entryX=0.417;entryY=1.056;entryDx=0;entryDy=0;entryPerimeter=0;fontSize=14;" edge="1" parent="7" target="19">
                    <mxGeometry relative="1" as="geometry">
                        <mxPoint x="230" y="490" as="sourcePoint"/>
                        <Array as="points">
                            <mxPoint x="88" y="490"/>
                        </Array>
                    </mxGeometry>
                </mxCell>
                <mxCell id="95" style="edgeStyle=orthogonalEdgeStyle;html=1;exitX=0;exitY=0.75;exitDx=0;exitDy=0;fontSize=14;entryX=-0.007;entryY=0.434;entryDx=0;entryDy=0;entryPerimeter=0;" edge="1" parent="7" source="32" target="39">
                    <mxGeometry relative="1" as="geometry">
                        <mxPoint x="375" y="830" as="targetPoint"/>
                        <Array as="points">
                            <mxPoint x="150" y="505"/>
                            <mxPoint x="150" y="852"/>
                        </Array>
                    </mxGeometry>
                </mxCell>
                <mxCell id="96" value="ECR Repository" style="text;html=1;align=center;verticalAlign=middle;resizable=0;points=[];autosize=1;strokeColor=none;fillColor=none;fontSize=14;" vertex="1" parent="7">
                    <mxGeometry x="480" y="920" width="120" height="20" as="geometry"/>
                </mxCell>
                <mxCell id="98" style="edgeStyle=orthogonalEdgeStyle;html=1;exitX=0.5;exitY=0;exitDx=0;exitDy=0;entryX=0.5;entryY=1;entryDx=0;entryDy=0;fontSize=14;" edge="1" parent="7" source="51" target="20">
                    <mxGeometry relative="1" as="geometry"/>
                </mxCell>
                <mxCell id="144" value="Pull Docker Image" style="text;html=1;align=center;verticalAlign=middle;resizable=0;points=[];autosize=1;strokeColor=none;fillColor=none;fontSize=14;" vertex="1" parent="7">
                    <mxGeometry x="200" y="817" width="130" height="20" as="geometry"/>
                </mxCell>
                <mxCell id="123" value="GIT POLL SCM" style="text;html=1;align=center;verticalAlign=middle;resizable=0;points=[];autosize=1;strokeColor=none;fillColor=none;fontSize=14;" vertex="1" parent="7">
                    <mxGeometry x="19.33" y="920" width="110" height="20" as="geometry"/>
                </mxCell>
                <mxCell id="146" value="" style="shape=image;verticalLabelPosition=bottom;labelBackgroundColor=#ffffff;verticalAlign=top;aspect=fixed;imageAspect=0;image=data:image/png,iVBORw0KGgoAAAANSUhEUgAAAO4AAADUCAMAAACs0e/bAAAAYFBMVEX///8b29sA2Njm+vrL9fXi+fn0/f3Y9/fv/Pwg3Nzz/f1q5OTr+/tx5eX7//+/8vKM6emw8PDR9vaX6+tA39+l7u688vKe7Oyt7++F6OhV4eE53t5b4uJv5eWG6Ojc+Pi+edOjAAAOwUlEQVR4nOVd53rqOhAMwkAchw4pGML7v+WNbYrLjLSrQjjfnZ+JkXZVtkt6efHEdLbcr+bFrswrlLvj6fvzK5ssfNvDWEyyr+13cbx3M1/tl7O3uL3Y8bbcHk2NUQfNn46rj3GMXsYfq+OI9WKO2+VrjF5cyL7zAQVDeor9LKST2b4Y8jnoJf/OIi+mLhYfhYOINjWn9dSnk7f1SdFJ8ZGK49lcSMWdmt1eueJe9zt1J/OghUSwLpV0XIg5rMXDv1hreb30Ua4jM7sfedBxpea0kXSxOfnweuljtI/I7Jc/IQ01+d4xxYt9GdiF+YrE7DIPo6Sh5ued9/D+EziedRf5MgKz74dwSmpqzHyCe5hoRSDt4mAZUhk+41DSkFMAhidFzB4+g5h930WkpSKn6Blc45jMVh3sAib4Iy4tNT3fLdtj+p2ggw9fbufxian28G3BfUbas70O5l7MTiMv5Ds9eVa1H0Pg4/Z3HsbrOA0tDUHHt7djImZrqF2yWUpqqiWdtnmlGZ2lJSc5TPZ/4lbH77/PrYZf+b41HSSj3KsX6f4di1r87bicb9fLzXn8i1m23K+KMjbTVXtlsdovs1nVy3mzXG/npbATIzKwFiIqTl9n9OPJx2oXieXfZnarD+hWnIXxHUlgYeekY/Rj9dcX2SoP5diYfGWPu21+3BGHnZtblxlrDhIZMFbHnDq87vYSQyFzmSrm29WEwyugTivg+NPPSjT5p9gomjjMepe/8G6P7R511tmm0E6xMYUosHXD2D7DDnFl27gX016F162GYWO2+tRAZl1E1u1ri124NwKGOIhpcs/omk3c2OIbNo2rs0I7+CpFzPoHi21WoOH778B/tAtJus3dzIbFTd8svvmB/YhLZVOEEON2bc0qNNPDY15UOnNqPLdtA2fk1hTBAVPrBsY/2LIfhHHrigH5CHwEyq/Zos/f6Od+sa4LnNyuQlpvg5ocBskdNjrmGEKDI/VjSuhp+IHJCLQ6XxldZQgFjrmNN7U1mMIzQ+Plhw1NSAmEnVsz0hmMTrApMz/9L6fsyxA5YpfJ5hi9zoDZG6YfeSbmY5BQtud/TMwM9BVEAA1MSUJTHr/rKwUpKipeXnLSXferJRmVgM1lTZV6JTYk2BBGuqluYi2f/Pu1xglMQMMOnHCPHcuZePVQP8tgDd5iOycOiLXU8fOx/RhAFdXidbveKVgJBLzgDW78FYXNww0RCAIs8Ei3hO459uTaXD4jDu55gkzv2fWB9+RS36pCBGfPDmwxtSYPLj1/C8MWS8kfUJaLFf7N9sdy2XvR2cRU/ojC6wnm57qsvuC/BRkHDEvwNk9kXEgouEXDCvhf38CgzXZ8UFH9GpJwjbdFFVTEHK2bTC6lLsC6yDT/xAaQZwyDOZKjB2igO46w/8Yp2SMKfdeyJVSdxgWCgKv5snmhUe1pLsOhaxqMUX4rBTacG78EWpB+cplnXZI48xzQkqjtSKgmPQ1IqoPCQtV6rCBT1YqFNpBfiIp69IYmahKBM4UllY8a4ks5T3q8CQCqonpDweC7V3CZL+Uop+RUQJu33lGQSJ88CbZlRg8WyhfAHGslfy0qSgXiVj9eTNXAW5SYQT4BB5qR8vY1QgAjkmaKvSWPTAmNxQXE9wIAndpfMxaLbH37NB31Bxu3AtFEUMDoBTOTU2HJ4QBA0fyBTQN1KQaVUyFZlyAgJ958QnNrmCB0ARpto8e6QV2gBK5ZQQWlPlsmT6z6YaG3ymA0dI4nXevsksRMpKU8ORhz0MYGoDApoD+ulaY49BcrX9BsFG3kBwaRDtCG1PpDMFYSSSrfKjyV0SSoYHdYYOsEDLMwAnJMV0zvFQBGV6MDiSphLEMZRCPxqQiJvs4peN30wg2WR2CXTW6wrTzpFu7oplfDrso/ZTs3tEBsoMtV0wtjDRHYxdnSYLcPFKGrFl0qdonOHZQyqTCFRUoaSa9hVzGMrKwj6NA/uahDo3sTscuKC/U83jBhtYUamxSKqjJU7xJXyDt/+MLdjZFKkxO9G2hVkSyJv7Gc2Q6mKGJoxKpCakRhM5OaHV8LA4son2GENvMx0CMiZRi+k4vrCNqUidcd8YjC/F2Y+PedXCqiOgQLAaM0cxzNkBaRE7feb3ItIqpFmjRGSvgKilXhHJjXESj7Ub5729KFR2JVcI1LrXsiqPTMukTUHdKVAzXOmggbWZO4eNgjN+wUUa3WhTYB/G2GLXyhOsc1Req0gURE3VuXuR4443kmyXuZFYmp1JZmi0RUizZRozQXBP8usjNwCZUy8iMUUa32RaoX0laNFPQRRPIPu36qhItcRN0hcgOhzqhIg5aCqMlwLeR1I6NoNcN0dqVf4daRTBFZy3K3XiWiWj1IVjN09CrrCVeYCUQzPnMtF1RKEXWHYOlhwVy5AtAxlMgbSIrYhleLqBbcrXOmcLWCeweSA0oyZoUiisQO3HMB7ZZmn0FL0L1gYIpNaAQIRZTZf8M/u802uNEa+xOKZrdpikvCJUmwsUxEmeM7WUJukx5OYeP4QBXldLSI7yfgluULewSMaqcZ/89lpuJClMaYwMUoLg8dnvETrWVe8txpqdEN0Cz3JK6RolhWuQiHZVQiuSyYXFNepRGeCxdxeJAuFgFc6K7NC38kMnjc7LZtWPi1F3HXH0Ex5kic4OSBKAqC41utng+vrq8d6QSYQbgl122V+wx4d4gimI47sXobExNn37xY616Jw3XI9vQizJUIU2nWa6LmPfMVz5Q9e4IPmtyIwx1bzWaodaVxJHrc9S6i7tAflcCJnDtxePPaXHxsgktTurSYA7nZWMra5gK7anc7EZ+Tt9mR2AQXR9OxFsM3wWMpYTOb8ezdicPHbmxaBQsDcRYcLI6LFTUE3rw2QeoMGGL717KacQxSyi2YsoGIugPSZtk3eC23dzs+Tm3RonB8NHWyXUsSiagboOa1yCqsqdteFJYdFnlgMcFl6Chf+y+xC0M/J8c7O+OJvrBYDdjjUJUW3plwPVaBzWb6G1xI3tWReC/SFYMp0B1guChfKqJuwIF/OrZYDnXtEpLtYckELJhV3F420NXRs0ElmsnB+17YAX3DbTUYRNSe89uUxuwkKQdYg8xS0KQSqPcVyW6RNmHyVF8m9ypLnkHamBrAfPRpI7KZCCuYPI31/tEAsLqHyBUsqIZGGM5Mk2xCuGDWQHPUCXsfQ9+FXAQDI4vYQUh2kwBOXkIRJ06wE6cber3YjE12BQgOpkEDHRcbIyWNA4RwzrA/FJnJFsQ+EYnpIp1BbktDbiA0whOeB4MpaOTA4CwddkxJQgYsBDgyQXej2gEVL+CBFRvDRnECEp2OgZoh3W15WM2DmynwEWJikbCxGZrCSIqnPION7Ay5tGXeBBFrw+mFBXgJbweEwzucM3I+nO0ydqXkQOTD05NhT/BZgTze4Woi91jwpCQJiA7MU7i4Et7ygmTFkF2SneBlJuSI9UDFwaLgZCYz8Tf7e4xEc23hUTw+A3M8yiFYBeA09DUBuaTEZg6QkwV9lf6M7LJLea17jIT3e0P0FOz2JAq5qdhu2rJbqbta5gn3LrmJ06Ev2A0JXVUN2X2wZO6yy5KornI4lozs6GqoiP5U77JTpk6i2DC15fnTWVX07mtn0+xyvPayeDabmW5BwQZjIq61V57NI2KXKUlccLYwWqE3+EnC6+Qc/i59DUGUb6Z3qN2W83NFM+g7jbLjQcQxar3B9FyxKlY8K72khBU+3RYHjkQmu2gaFhfc3FIqlaXpZnqf9I0jdblEEKyLyU2sE/Ru9OtugM0nu/4fzt9VVDBJo7ED2Msg15QgFJXJ7Aw4+peRZ0f/VZKTXgZ/0Ub02EoSWI7+uAgN6aFupvYVsGWdgNMakI7aGuYbVzf29O64JvSDj5wlEs24WKFWu7zaUHmZEr/BtBo3nJNLdEUiHtsqd0WPq+hjDbSEvhZJkIK476DdgO9afrE9rqE3aOmzgPUsQvGf6HZT1he/o9/n4lG6nCuDwlrsHxfsqAR/8cgvbEYiBFV7r7gMNYmhQbriq88zF2l54iDHl1QlueAUl+uemSXkv8gsL8/s/A+aaIFr/vjDKf4lMdRCi94Th+21H0hDwMWjkleg20gQwHEdw+kj5MlR+xmYIeLLZosAwRQEPRNjeX8GdhY9lcBfDcEEBFp2yhPj0QNWXABDboMNO9F5zHt/kYWVUlCFR0MXuvGNbEhaHuoCiPG4hux08RVx3zRkQVHSd5SqTJ24ijq9qsmN5YBan5ZN1WkF1UDHS0HSBy0QIgpnjdiI+SKB/RHsXr/RIpLWtzH7vUZNUWk2Uaw6bpWMjKsRVOooxGxtQWOwx37f6U3Rd5zXEFTuWPRnYjTeQgzprJHKKZ6P5C+Fgf6DX9N6bG8IGtER+hTrVCErUh1x0fAbKK4UYurBB3oIEUGaQXErW8qHUMeKQd9564aF5g66pG/uvSr2lO8z2Y/oQ4ppqVhnXs6gwukzZfrHqRX2s4+TonC/zOERb2WeNAQpF9urZjCTlQt0oQnX6ep+NXHHVPnVIXhyEFBViqN1mUIuJK2O74MnGxFhOxHDmeoK1Mc+Qfemo61cO4TKYq2Z2d8RfPRLmfhuAkqfOS0px4vlSXeT71+8+arZwA3Hh8/NQE8uNp8H7a3Fj9y2d4xV66/h2OTF6muZncfjc7b8WhW5Ud/QbMoE3q0IugV95/kGn5//xePFF2ReFAfApLuuQoKFx93oIdwWj35ivY/l4ybY/NXTxW0sVDmGEG5Pfz21DTYB94bLmc2j5haD8Jl6RZuUZ+70mKZd0Wb+J8+rW3DWpM2UzB5C38dMgY3fqw5OZmUO1R9gGZ9hUz6B8qHQOa1uZp92Zq+YFbGktDHF8+gejvdVDIaN+fkrz0eND7UP2+f1kOzMWRKMt7kvx79O8TZpKiQNzisPjn95XT006hYTk/1B4cT/fnrYJ0zoPQKLbHtwBy6qL3bb7DlcnmDM1t8HHK5p/rr7Xv+zK5jhdbbcb+fFoczrjGael4divt0vZ4mTlm38B1g7sf++A7gAAAAAAElFTkSuQmCC;" vertex="1" parent="7">
                    <mxGeometry x="42.86999999999999" y="170" width="112.26" height="100" as="geometry"/>
                </mxCell>
                <mxCell id="117" style="edgeStyle=orthogonalEdgeStyle;html=1;fontSize=14;" edge="1" parent="1" target="12">
                    <mxGeometry relative="1" as="geometry">
                        <mxPoint x="-40" y="800" as="sourcePoint"/>
                    </mxGeometry>
                </mxCell>
                <mxCell id="119" style="edgeStyle=orthogonalEdgeStyle;html=1;entryX=0;entryY=0.5;entryDx=0;entryDy=0;fontSize=14;" edge="1" parent="1" target="13">
                    <mxGeometry relative="1" as="geometry">
                        <mxPoint x="-40" y="825" as="sourcePoint"/>
                    </mxGeometry>
                </mxCell>
                <mxCell id="121" style="edgeStyle=orthogonalEdgeStyle;html=1;exitX=0.5;exitY=1;exitDx=0;exitDy=0;fontSize=14;" edge="1" parent="1">
                    <mxGeometry relative="1" as="geometry">
                        <mxPoint x="-76.82499999999982" y="850" as="sourcePoint"/>
                        <mxPoint x="425" y="1040" as="targetPoint"/>
                        <Array as="points">
                            <mxPoint x="-77" y="1040"/>
                            <mxPoint x="425" y="1040"/>
                        </Array>
                    </mxGeometry>
                </mxCell>
                <mxCell id="111" value="DNS" style="text;html=1;align=center;verticalAlign=middle;resizable=0;points=[];autosize=1;strokeColor=none;fillColor=none;fontSize=14;" vertex="1" parent="1">
                    <mxGeometry x="-25" y="330" width="50" height="20" as="geometry"/>
                </mxCell>
                <mxCell id="114" value="&lt;font style=&quot;font-size: 12px&quot;&gt;HTTPS &lt;br&gt;(Retrieve Image)&lt;/font&gt;" style="text;html=1;align=center;verticalAlign=middle;resizable=0;points=[];autosize=1;strokeColor=none;fillColor=none;fontSize=14;" vertex="1" parent="1">
                    <mxGeometry x="-50" y="469" width="100" height="40" as="geometry"/>
                </mxCell>
                <mxCell id="116" value="HTTPS" style="text;html=1;align=center;verticalAlign=middle;resizable=0;points=[];autosize=1;strokeColor=none;fillColor=none;fontSize=14;" vertex="1" parent="1">
                    <mxGeometry x="-180" y="630" width="60" height="20" as="geometry"/>
                </mxCell>
                <mxCell id="118" value="HTTPS" style="text;html=1;align=center;verticalAlign=middle;resizable=0;points=[];autosize=1;strokeColor=none;fillColor=none;fontSize=14;" vertex="1" parent="1">
                    <mxGeometry x="-35" y="780" width="60" height="20" as="geometry"/>
                </mxCell>
                <mxCell id="120" value="HTTPS" style="text;html=1;align=center;verticalAlign=middle;resizable=0;points=[];autosize=1;strokeColor=none;fillColor=none;fontSize=14;" vertex="1" parent="1">
                    <mxGeometry x="-35" y="830" width="60" height="20" as="geometry"/>
                </mxCell>
                <mxCell id="127" value="SSH" style="text;html=1;align=center;verticalAlign=middle;resizable=0;points=[];autosize=1;strokeColor=none;fillColor=none;fontSize=14;" vertex="1" parent="1">
                    <mxGeometry x="-180" y="290" width="40" height="20" as="geometry"/>
                </mxCell>
                <mxCell id="147" value="" style="shape=image;verticalLabelPosition=bottom;labelBackgroundColor=#ffffff;verticalAlign=top;aspect=fixed;imageAspect=0;image=data:image/png,iVBORw0KGgoAAAANSUhEUgAAAL8AAAEICAMAAAA5jNVNAAABKVBMVEX////w1rfTODMjHyAzUGEAAAD35M1Jcovc2dhta22BsMTvPToAHR40UmT53r4iHyDYOTQiGxri394fHyDRODMeGhvl4uEWHh8AAAwaFRb1PjsVDxEbGBv/7dUAAA0VHh9FbIMMAAURDxUNHh8gFhPz3cLy8vLCNTEkIyYMChJCP0AuQk8qNj+fnp4ZFhq0My+OLSqqMS7Wv6TPz8+aLywmKS62tbVlY2PmzbCejXqsmYTJs5ozMDG4pI2FhIQsICE4ISIWAAB2aVy6ublzKSdQJCR8e3tJR0dXVVVcUkngz7p+cGKmpaVLQjyNfm1GIyNiJiaCKymtoJDLu6lpYFg7NTGekoSUk5NMJCNyk6NjfIk8P0R8o7VdJiW8rp1UTUhBUlpRX2hRaXVUu24xAAAgAElEQVR4nM1daUMaSRNWxzaw4nA5yGRQwyECIiYSDhU1EYMYjyQbDXsl2ez//xFvV3X3TM/JjGLy1pfNyvVUd91V3TM395RUzbS7uyejXm9MqdcbnUy6w1j1SX9yVpQbTsYGIaRoGLquIem6YRThT+OTYe5X4wui6nCkEWLoig/plDEj3v0/3YjumKLT/LCbRHm4uP6/Y6EdJ8R73ZMe+0BIvP2rEUuUOTFc4AulPBV5Uq8T/E+p5dyFxvBXw+Y0vCCGA3yJkO+33z6/X0J6//7z77d3BZIvydKlkcb/wx7sGsQh81qdXH1eWl9fkmid0vtvtzck30pKHMR/tR7skqJTuPOFL0s27DIXS9/O6sQSJYP8UiEaaoSvpImoXvJFz3mgLJC6+QFy8svQxy6Y5GhF0igKuZ+CnrPw+725CeTi16CvxtHkaAYZ77ZzbdiIArkKgZ4J0udLwYGh/AolmKDN0clg0s5lMrlrugHk5r0/+i2JGAvv70iBq3HsZ6O/RrXVybiby8RiueseUVr5373QU7jzXkS5WP98QzgDP9eQtgcE0feGgD6TO6GSRO5couODXOJh/Xe+BT/TDFV7oLYaGQ9zMYq+vTsoKq36Nwf6adgZqf370k9m4BoFn3p/hn4ypsaTfLcvfjjwjC7zP5OB6gUTnQlKTvukN6ZGiHyxoY8AHrbgjDPwM3SgjTaTjNuAPrbbi1/oSqH+ef3B6IGBq42fxcCEoLXYRdEZxntxuvql+631h0mOtQN1xsBT52YjgG8MYPFjsZNePN7Tlfr3B8q9zMAlKrFmPK0jiwP84jiGkh8HGij1u/VHiI5J92hG9cZTwj8B+CSOstPtAfyxLsN/4OIj9UsYVRvxp4PfRfgjhL+L8ONa6XI28OfVI+aJyfVTwc9J8CcMfsO4f7Tomwx84Qw8VSjU0GF7Zfg9vb41A9EHot+zfsd0uPY08EF69IuMBD9eI5bdfyx6oAEmE8WnyWd0+uVGG+Bfc/iD+tX6TIRHfMl78nReYEhAtzI01myziuZ4oLUCZH9q6OlcfcjvvyED+vgJ8NMwQbugeUo3buhY0NQUK9x3Yt2KtCdLmE9e3d1d/f5deyIVrtKVKXa7I82qUmkDH+FfEusZTilAdb+QfKnVKvGkXp+9E0DbbxR5lUo3DPovzRP+FgP/+cvt7bctNdTyr98RewGGzDqMmFg/QNN1fTyajAyFfPOBv770pUXqpVKeHIRgYInmYHb4SnEyU/QZzSxRGeSCputUD2JEMZj5sYk5wv+9XhcLeTudgaX1e61Vz+c3SgVzjZRZwm+b5UHDOGnnMPbM5C407X7dufwoPLI0kH4I+SHk7vBo//jgkpTEx2aYCWQEHJ2cxNB/ZaA3dEGTRk/4PJ/VWpQK+aOp+Lfm7/dV2CZV7d/ykpAxQx+m89VnORfloHvS69G8i+J/75AedKKAQKuT+7urq7t7MhW+jdQ+S4Y1bWbwR9zm0IQXcy4KHr3vmOL/7F7+e4C/MTjsq0jR4AMHt2SmLiAnCkzdHCQtIx47CPyO5V+HRFDLHzwAuMnAISZJswqj2fJrxhBkZ2KiF/htP7209Jn+dkHZfzh6YOA2P7sYospDKgqfZowSfMT/3mE712kEWVCmm5wpDNxQQ0pmg7/LpBECt6GMnuF3ui4afyXrj4U/Pw+p2IwUAIpTdDNzLviAv+7Av37XUsjxo4QHCTZgRgrAln8Yi7Ud8Kn91Bp2qFvrJaV193j4VIXrijGaBXxsStC4OZYZOeDHG1rrzIGV5h/5x0sPpT5RtJlUUqApoRiTjJlzWTRQ6s7orE9cf3oYqffabBQYrScYHxf8uKK4YgNViehuffFftWaTRaL6Gl7LH9c9wPZnoLyInyrATEI47M81chkX+niPhp9hwR6Hxn2wz/5xlJ+NAcJSfy/nMj5gPltXIfGrV2EZUA+4+donMwlB0fsao5yH+DS0+mFo/Ddh3/m7yBcIXbZZ4T/JnbjlZ6Dk90Nh2oLsPNxbIX5iCZtan4kBZebzJOeGH68p+XDJ+RKgcosajZMdTG1hBWuDvUoNqPFo+FgvB/PvFp+4poURCl6gIHnXKxS/IzfGugV3KhBBPNoBxFnsaUw8rH9cd3lff/jrd3mXX1MPNuwLwN55VWrhq5eFRxdRxrzoQHN2N/6eXgrhakWB6BtpuV47rNtjjSUuargB6lnrsfgvxESVN36tPt0omsX1da3uKqTs50vy3/h715VCQWUOuLj7GPgNcyDMGHma/zCVBRP/lzpxJWV5W7DH37t1UIcNUG9LNG55BAMMfjKL/stD/in+EDbRrE8vlbRW384AFfGSbJZ4KaxPkiXQDijCPJwBJjzJtT8oA9o491D81g4cbGgl+w5gjOP+Dir5lC31oM7yvofBHyP8bGL1dRnjH4q3MajVBo2xpb8h5Ac52ML5GXWguTjOKwXLBLFqS//odkBh7wNzyED3IfB7RQ7/+V6C/qMWu9A1Niem6Q2+F3oI/ZXpyIYWEV+VFNOuqod39618nuRBbupnAv+DolDmtgD+81XArxSl8UhNv0D8SilEaXa+L0pYKqYk9g3oQ5rO/6Qq1mRoS+mrxxuiEho5j79G+EkKf3l5O6G4SBsA/kHrcip+9ZIol7eHR/3+/vFNy5XwqGclpcCDcDD4jJL5G2qWAD82tLViRDfQ5vC3KfznnzYFaBwCzhdMBi60+vT1J0mlUKrn6Qexs+IsRvfzVFZuRcSM393KtzCspeKWfLMGf9EHkeDzemFiD+CL5S+Qmy+f379//+0SX9UaqMDTDZC9L1Fy7hiNIShTRyzi3L+kfGpnx0zgKP7yq6/IgBGpFMd6sInXFP7y8lqWyeD393wWeP0zLqROlbg2PVenMZqkOfUb9xuoUiii4EWtT9+smyL+1Bv8fRKhG9NDy1k+B/jPwXpSUZKHq9axRwsb0AijAIcDUi8VCoVWqe4RQ2OeZaqAjRj+1Ww2mhFiurv2Dlf/+Qf2adtgHmtW6eDB6tPgg9nZP7i6u7y8uzrse3GrHlAVKHlEskcbSnkvldpOoBKHDeVYqyWrLCOlUPrZ6q8vff7MZlPXb2D2sBfWAzPH5NsJUC/BLrklkdqfxN7CQuoVYtBDThij8CcTC2z590B8Ct8R9RWYnxvcCWiSa2MwQGET4EBK0t90F00B//YCZeC8HF4FRuh3E68Q/vLzl2A8oUe0tP49z8zQmUrT2QIoQENTSmELEIEEKuDKpcH/JlYXgAEuxCHcGLP8m+cM/vLzj9R8tWC8CtvjzIZQnd2C2BbiicJ0BQ5B2G+h0an9jwf1ZHkBabWcRJ8zHT/GONnTZUHAeR561Osbd0cHjIE8dTfCt3sajgcwcLsB3+X4WymZTSF+rgLTW9onTHpW+fKnUqcUP7ZIP5+pkFDUSV5DH8qcWImEi0CnMwDDhy1bcEfzr+wbhn8h9RGDAJIJhh9DVOVPHP7yaiqb5DMa72lCpGj5w/l9ivpWVQeERoqDW0+L+CAaFBzeWb1rZd9x/AsLShZ9TjD+BpMeE/4C4OfWB2JFqDeoR9ShqvP7R0f7849oMbqo39KYbpn4b7S1c4GfS1BwMsMaXab0wMeo/BTuOP6jPAaPdF1CTAREp32wbyUrwFALyuYnc/1THzEQCiwIFW22J8Utl4brvwX+kCXb+yRk3hWN2PRky1JiopRfm/gXVtfABgW1lFB5k5vLFvyF1FeKX1lnIw7H+QILEy9noLUes2Us4SUip9vH8MfEn2KRmH9Lg7V5hedaZp7j05pijmgckYGI08PVYoPIOTOEDEC6siHwC/drMvCBVUL88GOfKPvGEn7BNIw4wI/1iUiUDh4t/+6hp3lWsbKySbobiZSMfy8RFIiypAVTLiE9lOAzJYje4BvNauXjzY43fupgzI4OzSZN8y+rsF8cF4flX/sqSw98ZpM6gPt1nNFQ72bjbOdFTciF/7JglQTU+0L2ow3/wnbABuRsttPi+WsW4zfUtmNllvjdCiwXI+bn80nJfDIw57gBnrkkSv/aR7v0cAUoXa1vsfWZUWvx4LOX9kL9QRuIn3CYH2ZDMZXxikOrtuVftT4Ce5Yk/Odm5LbU0q1bdvq3pRL9JZGHYfS8bYcvNsDDBE3k5bd95F0WN2A2yBntk+/OKkT/Cub2Si0ziaGbkVxzLL+pAW4fIMedqVUZ/6syZjCPnOy30fGGve2t7p8B+gK5siybWtOk6M1ugtxtVYx8sn+4l59+JEllTrt/5Gy/A7+Udqrq0SVpUStHbuTiNE3J1j658IsNcOLHwBPrVbLyMvwvYQPqM8kTOUEdd5+n9Ee3ClT0tPzAyn9VJv4u9RXi7CpJY80hq3gtP/0Iht72MWB1/ugxIVA9mczf3R4cXF1u5OHMTovcS+j7Vxjk8uTXAQbF2ZkHnID2ll96Lb8VeksMqIclMni4SkPVXCmUKEG9s7WRvzuS0RMQrrri8L721bQnYkx7U07bKT7CapD5u3nTtdP9yoccjfeifqlVKGhQktsgpbNjSWvnb/N1iFKoiFnJiw0MlpPtGoxFh+xX7+WntIo9MLpQtyi1RzAdXLp7BP75/cvLm5vvl1cHx/tSDqeqB616EjwwRHJe4r8gNNjWmMfQh2uv10dECU8pEeX7d6Zvpa1I53XU22Nb1OdRkVPnD5Q6L6arJcVT/BdMDZaDIIIVt2W/5YfQtcyq0EqyUMBSTP29VwAfQH0QlL5fDRF29aoOdW1WkKHik/3ggwXzGFmAUHzWzn2XH3dAWVMkIu/XPSMwFy3xliiUqFobpHZ3cHzUN1ef70D/6PCswKpjGlbSIRJyBm8mrToFaCSJj/eeUQYWPiayJnx+amc6filOVg+wxoatmNL9zeXlGdIltcMkXzfvgWA+LK9g6dYbyleHABnTxId97NWbRJbfWkKWliLgFzJynDevDNHA+CDlb9W+2aIp5NGQQuqVVPywcAEya3FYtOKhm9/y4+dSrz4mymsS/ukKsMXepGLgqvYvieP+HGrUriz8JT71rQ40H+uJhAKk3Qv8u2D9y5i2Byw/42BhDxJ6VpAOj/+Y8IIFhDr1gh3/HcefbJEz/qkjFB9fMCyRN/sZOB/JnFcwfPwsmt+816kjT2KFI1IQAbPaP7ghG6WCeX0OFLAJ1Ys6uRPhm/q9ECA+woWZVxWg83ozVXw44eaVbtc9FMAru8H3UNuTNwNOVe0f314qJJ/fqFPKU87Ixv2Z1FuCOpZX7Gnix0KEqGSh9dz8FEJ82IehIq3deOBXrzwY2BLG0zY7A2Zz/+j48IDSMft/yQvTLN6detkwbCatM7Yo/sx6hoDPMwgvBVYPvKbhGIvq7cbGketV754YLL9H6iJjeCcpQM8S/xDiw62XpwLsBxy1U29aoQ7i8ZMXAdq74FAArLqdhhUfHj+1+Klf+y97zfII6pPkxv3x9II79RLTlp8nAcwDVK3gIRR8br1KXgpwW6/54zok1D0pLIINYgBuoQqU/gVuRFgdCNW3jKMCYcRHCBDWRJ0bQGM0/6MXeL+GVsrXYRplX1b1ft/6P0xtNv19F8dwiqVcS323Q4sPJSjEewvQbYn494PVG9b+K5TqGziOAgnYBl5vZ+GHTmoyO3UNmRGpmsHblNjH/uFPqMGeIVBLCyqt34gjqXaSFBsiB1vXwgcCa0tDCAeVh2Q5vPgs8BTU0wKpx0TT/PHTvNMV/9Dc3SptqFd1MCZTV5IpMJ4OQO/7Lrz6LvCEnnf1lpwIS62AmWiIf2jwwAZqNJxI0c4kv4AdpM2X0yUBjSDkMJb5CS3+XPx4DOcQIPW+UA8aiobg4e5eqec3Cvc3Z7e29Hd+HmcvphkfJDRAPR48o/mJgB/rwCUvDabGpK7lg6f6HMmX9MIV6odP3mtfwdMkmydg5hOih9Div8DqwEnvJAa6iAFGKIgvfntLUOhmAmARxNxcl5nPqPhhrEYEoU4Yx+RhBwj74uB4wrtwYgMgDOiuwaOfKOLDHaBPFgmJ7kMYuBeJTTI4+kH8LI3KscphIor3wo9vy1mAEwgc3o0uQjdi+YGBaTvAHUBsLq7D259HsJ7waSZ+PiYIrOhGqFsTpE/wG+zSac7AFBfGg5g2Rs/JZDTxT22zqVI22OTZiL6rK/kIp1DVY3bvQ7q5WOE6EKzEvKsynBtrPHkM731Tn8xKkGcUxxjIK6X7kGfIoS6BX5fuPHu2whkofwzMAHAur9jF8CH74Xn44Cf1ShHzxHBHhl8hCO7T00JlLKp6wOtCleazZxYDmx9WA0ChAtIAYsDDh5D4U3sfpDIcjG36SBC7AyF/M3UL1OMBj+oqi8+QXnAG1pRtf1QM/+5cTWGV81D4U6tWEZFrGvGxQZiwaNCSC5rQUtXj+zwfL06/ePbMzkC27G9HWQC0O4eMfnwexvyA4IsibkVZ5PtM/HfgSIE+AfGdMVPnDwYCvVJb3FlxMhBgRxn+iYl/uvqmXp2WedWp0lmxfqV+/9l1hYvAdwWtghK5O3KnjKp6dJa3LiBWaul0RUiQxIBfLBoVf2r7nRCdSpPvNN8Bjdx9Xl93ZgL9o+PD46PjS0DYIgMp74V/9A/PSnl3LuBiQEn4pJICv5D/KegXzl3oJVPRIvdf3q+vSyWoo+8kn6/XN0TCpZVI6+6WMnRE2YLqW90NHr/9hZMBHzsq5J/bn2BnkXq9tikkx0JPaUf8CsWXv6PRPL+x5ZgU3Ngw74WqoXVHkXUrfXKNnTOomQykBQNfvcAJ/Nz+B/uKD1zw08rKMzs1+a/Ajf/YmtgYfL+7ui153JbvpGShtLFxyt64lsh+PP8ATba0qcUvaumAHRD2/4L534BiqSQ6O89c1GHw27s6IQbeqlZotSCUSZYTifKanQ+rfdGqE+Py4Gj/BgdOEx+3n1PCLmFzcVFsQVPEEm4lNv1vT8Pqm3+t/VVWiE7zhRv+sxcMf3VuLtOdjMYNHR5wAZjWXq1uv/5YTmxa7u7+CmvOG3lyenYI+nwEvYBk4h2f2sGzHskViwEeDCXdGZkZ/2D8WX7uh546LC46aafoIHr6Y/CqfGNnFW7hTiZSz58v0zVdfXma2OS7UDhW948PD3FuV0UPTV/Y3Nx7LuZ9l+mPpRcpmTLEGHC38jj+toj//RZ/bU0svg96Sp003sdqHe+gOSmfRVhGFj6Vefc1f7kv5bxwS1Qy8XHZRI/T+ukd/NIXMgPucqhZAJqw/MsTfeo8aPFfLHJa2UnDbXaTTI6zQL+TzyJwFpah9Yc7QF0Zz98x4F8r7/GBNYpgdXUBBKi5IjOAIuSBn1Wgc+x0vlfFghpNZdN/8VcWLVpZBDNUVCbtDOWhSm2aNQIuWNjmcV9rg9ycXd1eXVHRz4rFNwemwKp0+FfzJWMOyoX/nOe/Q1Z/cL2eev1GtNwrrsV/IaNnHFAh0gzSu47hrXZiEE3mYO+0zLRRa0HhE8y2GBS31JMa6o755bgFsLnuXqRZf+DlZ+fMEo11BPqO0+y40DMhAnOtF8nFiKoUtqPYqq5SWkghBy9F+Jctg2XFtM8xrfkmq9Ssr1/h+N0FUTzVBvUfXn9zvP7VDJNdNv+FB3iJA7oLBhslsn/lKmXhOVUoYCHx7tXeJ7rS0LSyDy1ga11anhXmId2t+JTZACBu/Ui9EWFyOu1YfK+lN3+Mc6Cwgp7jF1dxD5a3P60lqLNapg4ouXa+sL0NdtaUHxRr22+86MBIvPccIs5wQMnR3mxl9XEPxfUUHAcHnbQPfpQhKkSvyqxaA1DXEonEm/NVCT+YRfuvgPi7Agip/hzH9p1tYlJMOZjRbDj0XIo6aR/81BUsb5+XcdKCQaByC3+U5AcMqO13fMTfqv+jAyjLAsYPzNplJxx6xkHNE//y3vkpFf8kTJmmWASTcIg/4q/ZTDPF7xU+nPPy2xw3oDKHDD/UMqYrrScDTWXzpcf6p1b3Pr2h+lt+DQIDUBPouCR08MfOiv27PKy/mIAAZ5lzGSA2H9R8wNKbawb20/2jGEycrzFxTv2RpV46ZV9aN/6adzsJAnrtQhp/kN7CTgxbmVA09Isgs9AQcf/oagp0OJtV6KrjmcxEyul3aFjQtC1X2rMfsGeaHzF+Im8iClfaNPyR8a+kAypKqXIye/r1KwaGCWfZmNp/Hr+ZS6Fk/3Dv5Eup/84U2H3QJx3G5nvj7ygJf/wwj5+lJk7X6LZ/er2dAhIvriXTtm9qerbDePU/J8+fuBTADHui42+mE6t+k4xouRWtqPUuiJZdKyfW/jh/+WpvewHYcIl/xzO4TGHeXOT5BiqAPKwIqkWp8wgF8DKg+NXnCXhsHBnsZnK59gUeOMuubZbLifLm6Zs/lCTNf+VvSnt2U9FCmhdc32tOBWACJDQ4Ov4VHMX3Kim9KyvGuN0dsguM8ZE9IlLRUKps4gPi7zEHx8TfvBvOpQBcgEwNjo6/CQmM2+tsn64pWiODFxgjZdo9Atv/tvL3v/9qbyH2kOUHxN+jBsoHKMUhjLbLA7A3mBocWQGYADnxp/YglzfwCmBY/CqwkYu1a1rtz9+A/vz7LRZQLPw1xeMMycICpIWabuarOD6clfEzJRMaHF2AFtPZN86aQOo1vwcBb9Fl6TJyYGh//8bpLwcDaY/YTUz/WAc52QSWbZ+wZJBuPlgBqAW1dx9SqY9UKCsVmFvj8Nuj9hzdgxxJm/h/+xMYML+Fir/HEDoPfqwnJXXdAoRvUSoPV4C0Xe9Se6ebip7+E/Dh8zMgcCFwkKuaIel/f5MZMD0YXQWP2I1N78lHYNCCJpMyfnZUUpQdoivAYjpZto4ep7ah7/EWYP6oMAmCwFHD09RVov+w8P/WTFsanPaM3VB8bGfAxi4BYgNOIoiLjp9qnkj6UqlXX2nUqVWYktJ8SWvk4ATdgGhVxF/5T15/a/lBfNyxG3e+8oO2mADJmsL620KAHqAAKEBAe58UKAW8/dsSEIVQ70V/lh0DzNnwd9Jm/IbO1y0+7C4I2wkqJkBl+V3bcgwxFb/HBqWVxOtXr2nKAjXc5FsLIpUgTclYRxgzpPKX+eJflbT8FR5nGPj0uf3pEphE2vaKCZCwQNPw77j+AotHwwJ+edDbPyUJr8BFFBmz3BiT8Ves5Qfn6xW7fXAdHxEHeGxJAPpoIUDBCrDSrDTd7xD9Byd8usZU/WIZ67etl39UrOzRJ3ZDyyI5L0aa5tRgLkAvwuBXtKZLxLAqCi0PJ3xU4eLErPdS/P/wF/55K0f/aa8TYMyyuy4SwSlKuwZjDMFjoCkKkKaxqotFqAalOztJ5e1fdvigwlQDcsyDUTtq4v9bsp3Av8cRGH4C2HmXET/+K20XjyE6IfDvAH6PPVqBglBa8q7SBpDrGJV8QjLU+L0VgvVWUl5v8WF1Z48DwOz0u80Hw7lTIUBB8GGlmn5CRqXnHxd+2IBGptqlHmwIW8//rKRlNfIUH5yd9ToBn2FnwOQsAF0At6CBdUO6xk3vTaKLKAcH1gak4T74apIMaPhe5Bv0X0Uu3Ta9xIedhfW8xQV9sG0DUIO5AgQqMMW/44kfQDiVl0sKlQFqQsEIjYr/eijvStJTfLA06PmQy7Z7A9DS1qYrgC9+sKEVD/i//XYKQsB8WI/7tr9tRnjHS3z48ns/3Aw6qbYNYJ6OKcA0/Ite70ETmv7XLf/oA4wRBhFzDWaf/pSVlxUe3NaHSb/3fZptlwnCNJIrQBD+RdYfc+PH7nb67Q8PBqgPM2K4AUUmYZo9c097iA8zPr7PFbpADZACVmzScAUIxl/xxL/IXJhSkaIfQTQKKu5CEFFl5l/2vGzn3LEPt/1+15myy6MkJ8xiiM50A5REIfPWX8ZBxenD/qEmdABhNA3fXNKDZU9X7MMC54BLyDCPlLUGLVBlOv6OD34RRHhx8C/1Yd0YNBDBfHZsph83zi4+EIkHXj8zJ65AKVt8o7marsD++HlrlXNgkyLqw+CRJnMT8gNMv2LfN1tPC7C//nR+Gnz9z5y4gKlsMo4xEEsiA/E3ffHbOXj7Q7JFEERQH9Yr/oWm31l1FtE8TT5fvkskypssFNfjQdc4GjgOYnKOCjBdgQPxMw74WG3l7b+mO6MmVO/lMjpV307aXvWEpkt5FcGvvnyT2MxKYyxG0COah0yFRSLDplQ6j8Rv2wPt7UAoAiSS7SFV3x8Ve9UQtBdiYcycpfkVTkF3qGEUwXi3PMA0BZ6K38ZBmooRbsIPnW7AbvEHtT329Ae19xWMAEizpgacU2LV0gAVZnG02TLAVgxT4Mfhl6UIXNrpf/+ACVX0gf4XlVnX8idPUy+zZQu9TuKZuWobn3ke+GS8a5sNQpNbmabAofAjB0kzqay8Hfw3QCwDh+dFp5H9oJQtoTfImC95GzU0SILQCwsvxhR40Q//Dis8BNhPBweiv42aIGb/lM6KRYv8HZbK6oSMrNtCqnC8MOgiTS5BSXb9GyRhzAB5eacaW7mV2nT8FsCmc7aPKu9Os9nsACnptO01Cr5ntzfsCcQBl/kyG7TGVAA9sJ8BguykA1vgHf8IwBQeUFNgrDnwdzoO0OYOucADTYpTvBi7QbaMkTTOeaR9DSj87s6KLX4WYoCIAWxakCdGf9LI4NrLV6GABF5GLK6vTtkMkJdQYIBfq/FC6SLCpqiTHHBUyDKRCz8ZgVQ98MFCVXF9eIpFEP4GdKXDf61CoTdrD1lmb9IcJiY2vDbZgUQl+CJTpgI0EEphuYhFQB74V1ZMXfQCrumGUSRuKhYN8TxMO6GPAielDdrWFWOxSYPY2EEBCnyyFnvUbDa7KkVA7pk3uuKea6cz1EajN5rsdoftdiaXqzLK5WLt4fXuaDygbKClTlegKcOe+z6qgljTGEAb50SBd0jf6XgGBlRrpzyYJM6evnC64GtAqZtxLTkDXuudXA9j0277phIB+UZzhRWY4Bf/KbsAAAfNSURBVKt4RzeGTx7kxfUG0cnY8V3dqQIkHt6RfWNFcA78OxWmpJUKsqFT5Mb45Lod8olpVXgMKbGmRJqKOVAClQRMbUDUDaK4TGh1ugBRI6SzHYCdrbnwr7xYaTZ3dhaZraxRg3zdjvSMhCo08ST8aIr5RABdXwML7G1CBl7Zbk2b/nDRKkYaTDAr7vW3z4RWIj8jBPBndAs/HoUQVh0e/AXFleuh9yLDmfepDxetWk/s8HQA8nRZxYj6sGfAnxto9vMW4la0sU5zezPmqbYp2RjBoeGpj6bKmQ9O8HZgKy9MFqI/aRLXf6yb+FGBRWpF8QkFrp4IC2z0dm0TA9MfaGAywCJoD/8F8g9cdCI/Khbxxy38EPSbRpEqBk2N8Z8Xg0bjojc62e22rZZTBnCF2HLBQNoXP+eiE+ZqeDf+kcGLG9S3dBRpJoBQ9QywwBmwvGGeLVc1mI9ZDM7AVpqRH5SG+E+M9OILNh64IhvQuYZmSB0+12czODIT5ierA3intwO244/4hBnEPzFszWrTgFIDI6q7XpSLdafGoCZBPsbaqAH4d9JRn1GE+HeLVskf8QtIu0V97I8/E4uFx4+x3BT89MeDqjK++K+LVurL8LfFj/IZA7rY3cnJ6GTSldwjtbzgwcLhR1vVmYo/6oPeEH9Xwo8OWLhBur4atuirDSlsjXer/KM5aFaEUzlWlZ6CfzEd1QEw/ESq/AB+cashjXCEA5ir5jIx8GDtISVgIEfxw7Hxou+Xy4T5cmVaBSgd1QFg/ENl05rWwChQ5LUE2ks+8hFj66+Fex5MNRT+mhbxSZlu/Jg6iNYWOjBv/Bh5UPkPu+Oh8HeiOgDE35bxYy4kvkWnDkxMKWZo+mMmQLj8aH/CPluXiAAosII49dEgU/FjKo1RfTWTqYEDi/lRphvh4epGKPxRDWiVL2PHgb8N6gmRqXHijz+HGWTIX9IEfn/4DzCgbvxNTIEnDGBD0+P++EF8Qhs8KDiGwB/RgCL+jGGdFuH4RxmBv5fLCAL5h/8Tyw/5S2iHD64OAujg8mw6pDmz4c9peFxWiCAaUIFfa3S73etd6nx744vBAB47ORky6YeQIHzAOwiDfyWsO7Tjp99t4scAQrvIxTK52PUARuyxUmQYus4qMkpv0gb4bSgehU9YAX96Kv5axAiU4b/QrM4Rw1/Lta97pGiryhRJY7Q7jOVQgHJDmBXzmYHwIpyLqDSDT/GAA4gUgTL5H+sO/HAIFOtamq7TpTdQpK5jTPhBE9ojzKki/FiPl8k6XlOSJv5mxGe1M/xx3TYuaS04GYzjo5OTEZX02mTYjuUgCOrujhoE61IkwnPVT8RDgNNNfw6o9EZ8VjviHxnSzA/HXyS9a9MXwqMQDSsCZTUdhcSDvtlBQ+sBlAEc7EQ1QIjfTMCgDsZ/ZNemR5r5CGVzd0jEJ+rKz5/05yAd2iFK+DGBwW5HkzfGdMfS5sYGLjyjopUFhKc2kdYgTSMWTw7SUyuSHvghAGXtDvH9Hm6wGhteUzcwollY6PKq/QviRHp6blrZ8eAADGgkAxTjAZyDHvKs3xAcTBRpE+geuKSIGtBoEZAXfiraEdPo8NSOyxy49IAa0MCmoDd+9qxPRUdDr+jjJ0MPVD2R/WK6YxMjakCD2vpuYnEOtOKI0ZvgNYDRH7MckaoTGwfpJjQATAMaLYJg+Guadj0Ev4qyH9GwPIDsHFAWOk3WxFgBAxRF93I8zlTYP8ahCyKPJTsH0HisUSZ26PpHUmAG+0KvZbgn/inrj7RbJM72J1rwSAqc4wEcxw8D/D8L/9xcd0Bcfl0Jn5ICsQCOBocsq4Io5WlsvzdRc2qeHbWcTwTvyANQQ2f4M8UoOcksqNodE2LYeIjifQT+IsMPChwxgp0BtSdjEd2CPEUBUOVqS/j60zA9YgQ7I6rGoLIagzQhTEvHJIGf1RQy0FP8OQbUB074lgL/AFt10o6ZodDPVGAXhetpWuTAn5s21fPUBB4oShubJ2BkyPGP9YgR4IwJq0oRNDDD8Xe5AgP/0VK42RKbCgn//hxzu6JOjj3RaCncjAl7UuEVgHfwirsZyQA9aQIwhSCEiaAAHL+o82NVM2oXcKaUCTEWJRHv4Jl1/naUoviTkBa6KYvEFp1XzBl+Z/Xk5xLG8OElmIWdok+R+fX4I0pABhed9SlywxOoc/9a+UEXHL6PihkM0S6G15P4gLDB+J8aQbsIStXhiwg5VkDRiDnOqv3KAG6ODWaGN4FogGpSJqr90vhtjrngCCFEjA9iMDLI4KnrP1OpEcmC8gQYmy6ExH/x4gPtRspiMzxq0wajbrTu/VMRDKuED4IzPGr7pWG/nQbhy2gsAe5GmMT4CbQbNohk8wMsavilUZudQICM6UGAQI8z0L+gbuJPYIGMwUngMHrOBJ/JxegHfmna6CAcrQZ72DjxHh6v8nANsHdPLqCSGqns8sRUFR0htOkXI/tJjCrGarlMjMU8LOiJMIvxE2gsVxQ1dhKmdtGD7iH0EEfx3sXAIEQ+wvOLozY7DV0tRXjar24I0nXNUXyP1E1/ehrwg0UhSSdRjz48NeWux0SIdjCBjvT+PyIHB4FpKbLGv01gNA0HY9iZCv1iFHUW4KdSFUZecP6rMYDpzlpt0Bj34jAHMPSdro1G/wPFj/5q024wdgAAAABJRU5ErkJggg==;" vertex="1" parent="1">
                    <mxGeometry x="-120.19999999999999" y="740" width="79.59" height="110" as="geometry"/>
                </mxCell>
            </root>
        </mxGraphModel>
    </diagram>
</mxfile>